<?xml version="1.0" encoding="UTF-8" standalone="no"?>
<!-- Created with Inkscape (http://www.inkscape.org/) -->

<svg
   xmlns:dc="http://purl.org/dc/elements/1.1/"
   xmlns:cc="http://creativecommons.org/ns#"
   xmlns:rdf="http://www.w3.org/1999/02/22-rdf-syntax-ns#"
   xmlns:svg="http://www.w3.org/2000/svg"
   xmlns="http://www.w3.org/2000/svg"
   xmlns:sodipodi="http://sodipodi.sourceforge.net/DTD/sodipodi-0.dtd"
   xmlns:inkscape="http://www.inkscape.org/namespaces/inkscape"
   inkscape:version="0.48.2 r9819"
   version="1.1"
   id="svg28100"
   height="297mm"
   width="210mm"
   sodipodi:docname="kleberolle.svg">
  <defs
     id="defs3" />
  <sodipodi:namedview
     inkscape:document-units="mm"
     id="base"
     pagecolor="#ffffff"
     bordercolor="#666666"
     borderopacity="1.0"
     inkscape:pageopacity="0.0"
     inkscape:pageshadow="2"
     inkscape:zoom="0.70710678"
     inkscape:cx="-338.76652"
     inkscape:cy="706.02802"
     inkscape:current-layer="layer1"
     showgrid="false"
     inkscape:window-width="1440"
     inkscape:window-height="786"
     inkscape:window-x="0"
     inkscape:window-y="0"
     inkscape:window-maximized="1"
     showguides="true"
     inkscape:guide-bbox="true">
    <sodipodi:guide
       orientation="1,0"
       position="-455,917.14286"
       id="guide28178" />
    <sodipodi:guide
       orientation="0,1"
       position="-472.14286,821.78572"
       id="guide28180" />
    <sodipodi:guide
       orientation="0,1"
       position="-474.64286,847.14286"
       id="guide28182" />
    <sodipodi:guide
       orientation="0,1"
       position="-332.85714,970"
       id="guide28184" />
    <sodipodi:guide
       orientation="0,1"
       position="-224.28571,777.14286"
       id="guide28188" />
    <sodipodi:guide
       orientation="0,1"
       position="-671.75144,1238.447"
       id="guide28478" />
    <sodipodi:guide
       orientation="1,0"
       position="-296.78571,889.64286"
       id="guide28486" />
    <sodipodi:guide
       orientation="0,1"
       position="-615.71429,944.28571"
       id="guide2996" />
    <sodipodi:guide
       orientation="0,1"
       position="-573.92857,1015.3571"
       id="guide2998" />
  </sodipodi:namedview>
  <metadata
     id="metadata4">
    <rdf:RDF>
      <cc:Work
         rdf:about="">
        <dc:format>image/svg+xml</dc:format>
        <dc:type
           rdf:resource="http://purl.org/dc/dcmitype/StillImage" />
        <dc:title />
      </cc:Work>
    </rdf:RDF>
  </metadata>
  <g
     inkscape:label="Layer 1"
     inkscape:groupmode="layer"
     id="layer1">
    <path
       style="fill:#d3bc5f;stroke:none;display:inline"
       d="m -421.46461,218.71013 c 45.67242,19.8708 157.42596,93.7068 524.98994,169.4197 0,0 82.8074,-0.5381 53.7271,-6.1809 -21.3083,-4.1349 -41.9094,-8.3601 -61.813796,-12.6511 -95.6543005,-20.6218 -175.2145,-42.7664 -239.816044,-63.7187 -153.31325,-49.7246 -222.37861,-92.7336 -222.37861,-92.7336 z"
       id="path15722"
       inkscape:connector-curvature="0"
       sodipodi:nodetypes="ccssscc" />
    <g
       id="g28150">
      <path
         id="path15728-7"
         d="m -1021.7377,1205.1792 c 0,61.7417 -53.5435,111.7932 -119.5927,111.7932 -66.0493,0 -119.5928,-50.0515 -119.5928,-111.7932 0,-61.7417 53.5435,-111.7932 119.5928,-111.7932 66.0492,0 119.5927,50.0515 119.5927,111.7932 z"
         style="fill:#d3bc5f;fill-opacity:1;fill-rule:evenodd;stroke:none;display:inline"
         transform="matrix(0.66117451,0,0,0.66117451,396.72243,-640.23213)" />
      <path
         id="path15728"
         d="m -1021.7377,1205.1792 c 0,61.7417 -53.5435,111.7932 -119.5927,111.7932 -66.0493,0 -119.5928,-50.0515 -119.5928,-111.7932 0,-61.7417 53.5435,-111.7932 119.5928,-111.7932 66.0492,0 119.5927,50.0515 119.5927,111.7932 z"
         style="fill:#decd87;fill-opacity:1;fill-rule:evenodd;stroke:none;display:inline"
         transform="matrix(0.66117451,0,0,0.66117451,378.81833,-640.61013)" />
      <path
         inkscape:connector-curvature="0"
         id="path15762"
         d="m -381.8542,180.72343 c -8.60228,-2.1808 -15.43386,-9.749 -16.67277,-18.4705 -1.86485,-13.1282 8.5753,-25.1396 21.85115,-25.1396 9.93984,0 18.88163,6.8917 21.46669,16.5449 0.78402,2.9275 0.7345,8.5764 -0.1,11.4175 -2.07252,7.0559 -7.64768,12.8494 -14.66313,15.2375 -2.91572,0.9925 -8.78563,1.1952 -11.88197,0.4102 l 0,0 z"
         style="fill:#e9ddaf;fill-opacity:1;fill-rule:evenodd;stroke:none;display:inline" />
    </g>
    <path
       style="fill:#d3bc5f;fill-opacity:1;fill-rule:evenodd;stroke:none"
       d="m -732.14286,108.07646 158.21429,-71.071377 0,237.857087 -158.21429,-69.64286 z"
       id="rect28490"
       inkscape:connector-curvature="0"
       sodipodi:nodetypes="ccccc" />
  </g>
</svg>
