<?xml version="1.0" encoding="UTF-8" standalone="no"?>
<!-- Created with Inkscape (http://www.inkscape.org/) -->

<svg
   xmlns:dc="http://purl.org/dc/elements/1.1/"
   xmlns:cc="http://creativecommons.org/ns#"
   xmlns:rdf="http://www.w3.org/1999/02/22-rdf-syntax-ns#"
   xmlns:svg="http://www.w3.org/2000/svg"
   xmlns="http://www.w3.org/2000/svg"
   xmlns:xlink="http://www.w3.org/1999/xlink"
   xmlns:sodipodi="http://sodipodi.sourceforge.net/DTD/sodipodi-0.dtd"
   xmlns:inkscape="http://www.inkscape.org/namespaces/inkscape"
   width="1253.36"
   height="744.09448"
   id="svg3296"
   version="1.1"
   inkscape:version="0.48.4 r9939"
   sodipodi:docname="updating.svg">
  <defs
     id="defs3298" />
  <sodipodi:namedview
     id="base"
     pagecolor="#ffffff"
     bordercolor="#666666"
     borderopacity="1.0"
     inkscape:pageopacity="0.0"
     inkscape:pageshadow="2"
     inkscape:zoom="1.979899"
     inkscape:cx="950.70952"
     inkscape:cy="517.09309"
     inkscape:document-units="px"
     inkscape:current-layer="gnuplot_plot_1"
     showgrid="false"
     width="1052.36px"
     fit-margin-bottom="-0.4"
     inkscape:window-width="1920"
     inkscape:window-height="1014"
     inkscape:window-x="0"
     inkscape:window-y="27"
     inkscape:window-maximized="1" />
  <metadata
     id="metadata3301">
    <rdf:RDF>
      <cc:Work
         rdf:about="">
        <dc:format>image/svg+xml</dc:format>
        <dc:type
           rdf:resource="http://purl.org/dc/dcmitype/StillImage" />
      </cc:Work>
    </rdf:RDF>
  </metadata>
  <g
     inkscape:label="Layer 1"
     inkscape:groupmode="layer"
     id="layer1"
     transform="translate(0,-308.2677)">
    <text
       xml:space="preserve"
       style="font-size:28px;font-style:normal;font-variant:normal;font-weight:500;font-stretch:normal;line-height:125%;letter-spacing:0px;word-spacing:0px;fill:#000000;fill-opacity:1;stroke:none;font-family:Inconsolata;-inkscape-font-specification:Inconsolata Medium"
       x="553.95068"
       y="386.71112"
       id="text4116"
       sodipodi:linespacing="125%"><tspan
         sodipodi:role="line"
         x="553.95068"
         y="386.71112"
         id="tspan4120">How often does a new released movie </tspan><tspan
         sodipodi:role="line"
         x="553.95068"
         y="421.71112"
         id="tspan4132">change in the first days?</tspan></text>
    <text
       xml:space="preserve"
       style="font-size:28px;font-style:normal;font-variant:normal;font-weight:500;font-stretch:normal;line-height:125%;letter-spacing:0px;word-spacing:0px;fill:#000000;fill-opacity:1;stroke:none;font-family:Inconsolata;-inkscape-font-specification:Inconsolata Medium"
       x="314.95068"
       y="811.15497"
       id="text4116-0"
       sodipodi:linespacing="125%"><tspan
         sodipodi:role="line"
         x="314.95068"
         y="811.15497"
         id="tspan4132-8">How many new upcoming movies are </tspan><tspan
         sodipodi:role="line"
         x="314.95068"
         y="846.15497"
         id="tspan4160">released per day?</tspan></text>
    <g
       id="g4388">
      <g
         transform="matrix(0.68532218,0,0,0.68532218,-177.88019,331.96827)"
         id="g4180">
        <path
           sodipodi:type="arc"
           style="fill:#ffffff;fill-opacity:1;fill-rule:nonzero;stroke:#000000;stroke-width:2;stroke-miterlimit:4;stroke-opacity:1;stroke-dasharray:none;stroke-dashoffset:0"
           id="path3308"
           sodipodi:cx="600.53571"
           sodipodi:cy="78.575127"
           sodipodi:rx="46.972092"
           sodipodi:ry="43.941635"
           d="m 647.5078,78.575127 c 0,24.268293 -21.03012,43.941633 -46.97209,43.941633 -25.94197,0 -46.9721,-19.67334 -46.9721,-43.941633 0,-24.268295 21.03013,-43.941635 46.9721,-43.941635 25.94197,0 46.97209,19.67334 46.97209,43.941635 z"
           transform="translate(-261.97524,0)" />
        <path
           sodipodi:type="arc"
           style="fill:#000000;fill-opacity:1;fill-rule:nonzero;stroke:#000000;stroke-width:2;stroke-miterlimit:4;stroke-opacity:1;stroke-dasharray:none;stroke-dashoffset:0"
           id="path4086"
           sodipodi:cx="583.86816"
           sodipodi:cy="199.03581"
           sodipodi:rx="1.5152289"
           sodipodi:ry="1.2626907"
           d="m 585.38339,199.03581 c 0,0.69737 -0.67839,1.26269 -1.51523,1.26269 -0.83683,0 -1.51522,-0.56532 -1.51522,-1.26269 0,-0.69736 0.67839,-1.26269 1.51522,-1.26269 0.83684,0 1.51523,0.56533 1.51523,1.26269 z"
           transform="translate(-245.30769,-120.46069)" />
        <path
           style="fill:none;stroke:#000000;stroke-width:1.71059597;stroke-linecap:butt;stroke-linejoin:miter;stroke-miterlimit:4;stroke-opacity:1;stroke-dasharray:none"
           d="m 366.90955,78.480425 -28.12674,0"
           id="path4088"
           inkscape:connector-curvature="0" />
        <path
           sodipodi:type="arc"
           id="path4090"
           style="fill:#000000;stroke:none"
           sodipodi:cx="600.66199"
           sodipodi:cy="78.44886"
           sodipodi:rx="1.5"
           sodipodi:ry="1.5"
           d="m 602.16199,78.44886 c 0,0.828427 -0.67158,1.5 -1.5,1.5 -0.82843,0 -1.5,-0.671573 -1.5,-1.5 0,-0.828427 0.67157,-1.5 1.5,-1.5 0.82842,0 1.5,0.671573 1.5,1.5 z"
           transform="translate(-262.10152,0)" />
        <path
           style="fill:none;stroke:#000000;stroke-width:2;stroke-linecap:butt;stroke-linejoin:miter;stroke-miterlimit:4;stroke-opacity:1;stroke-dasharray:none"
           d="m 338.56047,78.101622 0,-38.44894"
           id="path4088-2"
           inkscape:connector-curvature="0" />
      </g>
      <text
         sodipodi:linespacing="125%"
         id="text4191"
         y="394.95953"
         x="115.80295"
         style="font-size:28px;font-style:normal;font-variant:normal;font-weight:500;font-stretch:normal;line-height:125%;letter-spacing:0px;word-spacing:0px;fill:#000000;fill-opacity:1;stroke:none;font-family:Inconsolata;-inkscape-font-specification:Inconsolata Medium"
         xml:space="preserve"><tspan
           y="394.95953"
           x="115.80295"
           id="tspan4193"
           sodipodi:role="line">Scheduler</tspan></text>
      <text
         sodipodi:linespacing="125%"
         id="text4195"
         y="456.67764"
         x="20.14646"
         style="font-size:28px;font-style:normal;font-variant:normal;font-weight:500;font-stretch:normal;line-height:125%;letter-spacing:0px;word-spacing:0px;fill:#000000;fill-opacity:1;stroke:none;font-family:Inconsolata;-inkscape-font-specification:Inconsolata Medium"
         xml:space="preserve"><tspan
           y="456.67764"
           x="20.14646"
           id="tspan4197"
           sodipodi:role="line">Creates new tasks to crawl and </tspan><tspan
           id="tspan4199"
           y="491.67764"
           x="20.14646"
           sodipodi:role="line">triplify movies which should </tspan><tspan
           id="tspan4205"
           y="526.67761"
           x="20.14646"
           sodipodi:role="line">be updated.</tspan></text>
      <g
         transform="translate(3.0304577,-39.39595)"
         id="g4364">
        <g
           id="g4340">
          <text
             sodipodi:linespacing="125%"
             id="text4207"
             y="615.21924"
             x="16.500002"
             style="font-size:28px;font-style:normal;font-variant:normal;font-weight:500;font-stretch:normal;line-height:125%;letter-spacing:0px;word-spacing:0px;fill:#000000;fill-opacity:1;stroke:none;font-family:Inconsolata;-inkscape-font-specification:Inconsolata Medium"
             xml:space="preserve"><tspan
               y="615.21924"
               x="16.500002"
               id="tspan4209"
               sodipodi:role="line">upcoming movies</tspan></text>
          <text
             sodipodi:linespacing="125%"
             id="text4207-2"
             y="653.49017"
             x="16.864002"
             style="font-size:28px;font-style:normal;font-variant:normal;font-weight:500;font-stretch:normal;line-height:125%;letter-spacing:0px;word-spacing:0px;fill:#000000;fill-opacity:1;stroke:none;font-family:Inconsolata;-inkscape-font-specification:Inconsolata Medium"
             xml:space="preserve"><tspan
               y="653.49017"
               x="16.864002"
               id="tspan4209-9"
               sodipodi:role="line">a month old movies</tspan></text>
          <text
             sodipodi:linespacing="125%"
             id="text4207-2-8"
             y="687.28113"
             x="16.864002"
             style="font-size:28px;font-style:normal;font-variant:normal;font-weight:500;font-stretch:normal;line-height:125%;letter-spacing:0px;word-spacing:0px;fill:#000000;fill-opacity:1;stroke:none;font-family:Inconsolata;-inkscape-font-specification:Inconsolata Medium"
             xml:space="preserve"><tspan
               y="687.28113"
               x="16.864002"
               id="tspan4209-9-8"
               sodipodi:role="line">a year old movies</tspan></text>
          <text
             sodipodi:linespacing="125%"
             id="text4207-2-8-4"
             y="725.58008"
             x="16.472002"
             style="font-size:28px;font-style:normal;font-variant:normal;font-weight:500;font-stretch:normal;line-height:125%;letter-spacing:0px;word-spacing:0px;fill:#000000;fill-opacity:1;stroke:none;font-family:Inconsolata;-inkscape-font-specification:Inconsolata Medium"
             xml:space="preserve"><tspan
               y="725.58008"
               x="16.472002"
               id="tspan4209-9-8-5"
               sodipodi:role="line">5 year old movies</tspan></text>
          <text
             inkscape:transform-center-y="-37.857143"
             inkscape:transform-center-x="53.928572"
             sodipodi:linespacing="125%"
             id="text4207-2-8-4-9"
             y="763.87903"
             x="16.472002"
             style="font-size:28px;font-style:normal;font-variant:normal;font-weight:500;font-stretch:normal;line-height:125%;letter-spacing:0px;word-spacing:0px;fill:#000000;fill-opacity:1;stroke:none;font-family:Inconsolata;-inkscape-font-specification:Inconsolata Medium"
             xml:space="preserve"><tspan
               y="763.87903"
               x="16.472002"
               id="tspan4209-9-8-5-3"
               sodipodi:role="line">5 - 25 year old movies</tspan></text>
        </g>
        <g
           id="g4352"
           transform="translate(-2.6855469e-6,-1.5715015)">
          <text
             sodipodi:linespacing="125%"
             id="text4207-1"
             y="617.07074"
             x="356.12704"
             style="font-size:28px;font-style:normal;font-variant:normal;font-weight:500;font-stretch:normal;line-height:125%;letter-spacing:0px;word-spacing:0px;fill:#000000;fill-opacity:1;stroke:none;font-family:Inconsolata;-inkscape-font-specification:Inconsolata Medium"
             xml:space="preserve"><tspan
               y="617.07074"
               x="356.12704"
               id="tspan4209-1"
               sodipodi:role="line">daily</tspan></text>
          <text
             sodipodi:linespacing="125%"
             id="text4207-2-6"
             y="655.34167"
             x="356.49103"
             style="font-size:28px;font-style:normal;font-variant:normal;font-weight:500;font-stretch:normal;line-height:125%;letter-spacing:0px;word-spacing:0px;fill:#000000;fill-opacity:1;stroke:none;font-family:Inconsolata;-inkscape-font-specification:Inconsolata Medium"
             xml:space="preserve"><tspan
               y="655.34167"
               x="356.49103"
               id="tspan4209-9-4"
               sodipodi:role="line">daily</tspan></text>
          <text
             sodipodi:linespacing="125%"
             id="text4207-2-8-3"
             y="689.13263"
             x="356.49103"
             style="font-size:28px;font-style:normal;font-variant:normal;font-weight:500;font-stretch:normal;line-height:125%;letter-spacing:0px;word-spacing:0px;fill:#000000;fill-opacity:1;stroke:none;font-family:Inconsolata;-inkscape-font-specification:Inconsolata Medium"
             xml:space="preserve"><tspan
               y="689.13263"
               x="356.49103"
               id="tspan4209-9-8-57"
               sodipodi:role="line">weekly</tspan></text>
          <text
             sodipodi:linespacing="125%"
             id="text4207-2-8-4-94"
             y="727.43158"
             x="356.09903"
             style="font-size:28px;font-style:normal;font-variant:normal;font-weight:500;font-stretch:normal;line-height:125%;letter-spacing:0px;word-spacing:0px;fill:#000000;fill-opacity:1;stroke:none;font-family:Inconsolata;-inkscape-font-specification:Inconsolata Medium"
             xml:space="preserve"><tspan
               y="727.43158"
               x="356.09903"
               id="tspan4209-9-8-5-8"
               sodipodi:role="line">monthly</tspan></text>
          <text
             inkscape:transform-center-y="-37.857143"
             inkscape:transform-center-x="53.928572"
             sodipodi:linespacing="125%"
             id="text4207-2-8-4-9-4"
             y="765.73053"
             x="356.09903"
             style="font-size:28px;font-style:normal;font-variant:normal;font-weight:500;font-stretch:normal;line-height:125%;letter-spacing:0px;word-spacing:0px;fill:#000000;fill-opacity:1;stroke:none;font-family:Inconsolata;-inkscape-font-specification:Inconsolata Medium"
             xml:space="preserve"><tspan
               y="765.73053"
               x="356.09903"
               id="tspan4209-9-8-5-3-2"
               sodipodi:role="line">yearly</tspan></text>
        </g>
      </g>
    </g>
    <g
       id="gnuplot_canvas"
       transform="matrix(0.67559524,0,0,0.67559524,598.57143,435.21933)">
      <rect
         x="0"
         y="0"
         width="600"
         height="480"
         id="rect9"
         style="fill:none" />
      <defs
         id="defs11">
        <circle
           id="gpDot"
           r="0.5"
           cx="0"
           cy="0"
           sodipodi:cx="0"
           sodipodi:cy="0"
           sodipodi:rx="0.5"
           sodipodi:ry="0.5"
           style="stroke-width:0.5" />
        <path
           id="gpPt0"
           d="M -1,0 H 1 M 0,-1 v 2"
           inkscape:connector-curvature="0"
           style="stroke:currentColor;stroke-width:0.222" />
        <path
           id="gpPt1"
           d="M -1,-1 1,1 M 1,-1 -1,1"
           inkscape:connector-curvature="0"
           style="stroke:currentColor;stroke-width:0.222" />
        <path
           id="gpPt2"
           d="M -1,0 1,0 M 0,-1 0,1 m -1,-2 2,2 m -2,0 2,-2"
           inkscape:connector-curvature="0"
           style="stroke:currentColor;stroke-width:0.222" />
        <rect
           id="gpPt3"
           x="-1"
           y="-1"
           width="2"
           height="2"
           style="stroke:currentColor;stroke-width:0.222" />
        <rect
           id="gpPt4"
           x="-1"
           y="-1"
           width="2"
           height="2"
           style="fill:currentColor;stroke:currentColor;stroke-width:0.222" />
        <circle
           id="gpPt5"
           cx="0"
           cy="0"
           r="1"
           sodipodi:cx="0"
           sodipodi:cy="0"
           sodipodi:rx="1"
           sodipodi:ry="1"
           style="stroke:currentColor;stroke-width:0.222" />
        <use
           xlink:href="#gpPt5"
           id="gpPt6"
           style="fill:currentColor;stroke:none"
           x="0"
           y="0"
           width="600"
           height="480" />
        <path
           id="gpPt7"
           d="m 0,-1.33 -1.33,2 2.66,0 z"
           inkscape:connector-curvature="0"
           style="stroke:currentColor;stroke-width:0.222" />
        <use
           xlink:href="#gpPt7"
           id="gpPt8"
           style="fill:currentColor;stroke:none"
           x="0"
           y="0"
           width="600"
           height="480" />
        <use
           xlink:href="#gpPt7"
           id="gpPt9"
           transform="scale(-1,-1)"
           style="stroke:currentColor"
           x="0"
           y="0"
           width="600"
           height="480" />
        <use
           xlink:href="#gpPt9"
           id="gpPt10"
           style="fill:currentColor;stroke:none"
           x="0"
           y="0"
           width="600"
           height="480" />
        <use
           xlink:href="#gpPt3"
           id="gpPt11"
           transform="matrix(0.70710678,0.70710678,-0.70710678,0.70710678,0,0)"
           style="stroke:currentColor"
           x="0"
           y="0"
           width="600"
           height="480" />
        <use
           xlink:href="#gpPt11"
           id="gpPt12"
           style="fill:currentColor;stroke:none"
           x="0"
           y="0"
           width="600"
           height="480" />
      </defs>
      <g
         style="color:#ffffff;fill:none;stroke:currentColor;stroke-width:1;stroke-linecap:butt;stroke-linejoin:miter"
         id="g27" />
      <g
         style="color:#000000;fill:none;stroke:currentColor;stroke-width:1;stroke-linecap:butt;stroke-linejoin:miter"
         id="g29"
         transform="translate(-74.760188,-8.9712226)">
        <path
           d="m 71.9,414.8 9,0 m 494.1,0 -9,0 h 0.01"
           id="path31"
           inkscape:connector-curvature="0"
           style="stroke:#000000" />
        <g
           transform="translate(63.6,419.3)"
           style="font-size:15px;text-anchor:end;fill:#000000;stroke:none;font-family:Arial"
           id="g33">
          <text
             id="text35">0</text>
        </g>
        <path
           d="m 71.9,348.4 9,0 m 494.1,0 -9,0 h 0.01"
           id="path37"
           inkscape:connector-curvature="0"
           style="stroke:#000000" />
        <g
           transform="translate(63.6,352.9)"
           style="font-size:15px;text-anchor:end;fill:#000000;stroke:none;font-family:Arial"
           id="g39">
          <text
             id="text41">100</text>
        </g>
        <path
           d="m 71.9,282.1 9,0 m 494.1,0 -9,0 h 0.01"
           id="path43"
           inkscape:connector-curvature="0"
           style="stroke:#000000" />
        <g
           transform="translate(63.6,286.6)"
           style="font-size:15px;text-anchor:end;fill:#000000;stroke:none;font-family:Arial"
           id="g45">
          <text
             id="text47">200</text>
        </g>
        <path
           d="m 71.9,215.7 9,0 m 494.1,0 -9,0 h 0.01"
           id="path49"
           inkscape:connector-curvature="0"
           style="stroke:#000000" />
        <g
           transform="translate(63.6,220.2)"
           style="font-size:15px;text-anchor:end;fill:#000000;stroke:none;font-family:Arial"
           id="g51">
          <text
             id="text53">300</text>
        </g>
        <path
           d="m 71.9,149.4 9,0 m 494.1,0 -9,0 h 0.01"
           id="path55"
           inkscape:connector-curvature="0"
           style="stroke:#000000" />
        <g
           transform="translate(63.6,153.9)"
           style="font-size:15px;text-anchor:end;fill:#000000;stroke:none;font-family:Arial"
           id="g57">
          <text
             id="text59">400</text>
        </g>
        <path
           d="m 71.9,83 9,0 m 494.1,0 -9,0 h 0.01"
           id="path61"
           inkscape:connector-curvature="0"
           style="stroke:#000000" />
        <g
           transform="translate(63.6,87.5)"
           style="font-size:15px;text-anchor:end;fill:#000000;stroke:none;font-family:Arial"
           id="g63">
          <text
             id="text65">500</text>
        </g>
        <path
           d="m 71.9,16.7 9,0 m 494.1,0 -9,0 h 0.01"
           id="path67"
           inkscape:connector-curvature="0"
           style="stroke:#000000" />
        <g
           transform="translate(63.6,21.2)"
           style="font-size:15px;text-anchor:end;fill:#000000;stroke:none;font-family:Arial"
           id="g69">
          <text
             id="text71">600</text>
        </g>
        <path
           d="m 113.8,414.8 0,9 m 0,-407.1 0,-9 h 0.01"
           id="path73"
           inkscape:connector-curvature="0"
           style="stroke:#000000" />
        <g
           transform="matrix(0,-1,1,0,118.3,432.1)"
           style="font-size:15px;text-anchor:end;fill:#000000;stroke:none;font-family:Arial"
           id="g75">
          <text
             id="text77">0</text>
        </g>
        <path
           d="m 155.8,414.8 0,9 m 0,-407.1 0,-9 h 0.01"
           id="path79"
           inkscape:connector-curvature="0"
           style="stroke:#000000" />
        <g
           transform="matrix(0,-1,1,0,160.3,432.1)"
           style="font-size:15px;text-anchor:end;fill:#000000;stroke:none;font-family:Arial"
           id="g81">
          <text
             id="text83">1</text>
        </g>
        <path
           d="m 197.7,414.8 0,9 m 0,-407.1 0,-9 h 0.01"
           id="path85"
           inkscape:connector-curvature="0"
           style="stroke:#000000" />
        <g
           transform="matrix(0,-1,1,0,202.2,432.1)"
           style="font-size:15px;text-anchor:end;fill:#000000;stroke:none;font-family:Arial"
           id="g87">
          <text
             id="text89">2</text>
        </g>
        <path
           d="m 239.6,414.8 0,9 m 0,-407.1 0,-9 h 0.01"
           id="path91"
           inkscape:connector-curvature="0"
           style="stroke:#000000" />
        <g
           transform="matrix(0,-1,1,0,244.1,432.1)"
           style="font-size:15px;text-anchor:end;fill:#000000;stroke:none;font-family:Arial"
           id="g93">
          <text
             id="text95">3</text>
        </g>
        <path
           d="m 281.5,414.8 0,9 m 0,-407.1 0,-9 h 0.01"
           id="path97"
           inkscape:connector-curvature="0"
           style="stroke:#000000" />
        <g
           transform="matrix(0,-1,1,0,286,432.1)"
           style="font-size:15px;text-anchor:end;fill:#000000;stroke:none;font-family:Arial"
           id="g99">
          <text
             id="text101">4</text>
        </g>
        <path
           d="m 323.5,414.8 0,9 m 0,-407.1 0,-9 h 0.01"
           id="path103"
           inkscape:connector-curvature="0"
           style="stroke:#000000" />
        <g
           transform="matrix(0,-1,1,0,328,432.1)"
           style="font-size:15px;text-anchor:end;fill:#000000;stroke:none;font-family:Arial"
           id="g105">
          <text
             id="text107">5</text>
        </g>
        <path
           d="m 365.4,414.8 0,9 m 0,-407.1 0,-9 h 0.01"
           id="path109"
           inkscape:connector-curvature="0"
           style="stroke:#000000" />
        <g
           transform="matrix(0,-1,1,0,369.9,432.1)"
           style="font-size:15px;text-anchor:end;fill:#000000;stroke:none;font-family:Arial"
           id="g111">
          <text
             id="text113">6</text>
        </g>
        <path
           d="m 407.3,414.8 0,9 m 0,-407.1 0,-9 h 0.01"
           id="path115"
           inkscape:connector-curvature="0"
           style="stroke:#000000" />
        <g
           transform="matrix(0,-1,1,0,411.8,432.1)"
           style="font-size:15px;text-anchor:end;fill:#000000;stroke:none;font-family:Arial"
           id="g117">
          <text
             id="text119">7</text>
        </g>
        <path
           d="m 449.2,414.8 0,9 m 0,-407.1 0,-9 h 0.01"
           id="path121"
           inkscape:connector-curvature="0"
           style="stroke:#000000" />
        <g
           transform="matrix(0,-1,1,0,453.7,432.1)"
           style="font-size:15px;text-anchor:end;fill:#000000;stroke:none;font-family:Arial"
           id="g123">
          <text
             id="text125">8</text>
        </g>
        <path
           d="m 491.2,414.8 0,9 m 0,-407.1 0,-9 h 0.01"
           id="path127"
           inkscape:connector-curvature="0"
           style="stroke:#000000" />
        <g
           transform="matrix(0,-1,1,0,495.7,432.1)"
           style="font-size:15px;text-anchor:end;fill:#000000;stroke:none;font-family:Arial"
           id="g129">
          <text
             id="text131">9</text>
        </g>
        <path
           d="m 533.1,414.8 0,9 m 0,-407.1 0,-9 h 0.01"
           id="path133"
           inkscape:connector-curvature="0"
           style="stroke:#000000" />
        <g
           transform="matrix(0,-1,1,0,537.6,432.1)"
           style="font-size:15px;text-anchor:end;fill:#000000;stroke:none;font-family:Arial"
           id="g135">
          <text
             id="text137">10</text>
        </g>
        <path
           d="m 71.9,16.7 0,398.1 503.1,0 0,-398.1 -503.1,0 z m 0,0 h 0.01"
           id="path139"
           inkscape:connector-curvature="0"
           style="stroke:#000000" />
        <g
           transform="matrix(0,-1,1,0,17.6,215.8)"
           style="font-size:15px;text-anchor:middle;fill:#000000;stroke:none;font-family:Arial"
           id="g141">
          <text
             id="text143"># of triples</text>
        </g>
        <g
           transform="translate(323.4,471.9)"
           style="font-size:15px;text-anchor:middle;fill:#000000;stroke:none;font-family:Arial"
           id="g145">
          <text
             id="text147">Days</text>
        </g>
      </g>
      <g
         id="gnuplot_plot_1">
        <title
           id="title150">gnuplot_plot_1</title>
        <g
           style="color:#ff0000;fill:none;stroke:currentColor;stroke-width:1;stroke-linecap:butt;stroke-linejoin:miter"
           id="g152"
           transform="translate(-74.760188,-8.9712226)">
          <g
             style="stroke:none"
             id="g154">
            <polygon
               points="108.6,333.1 108.6,414.8 119.2,414.8 119.2,333.1 "
               id="polygon156"
               style="fill:#ff0000" />
          </g>
          <path
             d="m 108.6,414.8 0,-81.6 10.5,0 0,81.6 -10.5,0 z m 0,0 h 0.01"
             id="path158"
             inkscape:connector-curvature="0"
             style="stroke:#ff0000" />
          <g
             style="stroke:none"
             id="g160">
            <polygon
               points="150.5,313.8 150.5,414.8 161.1,414.8 161.1,313.8 "
               id="polygon162"
               style="fill:#ff0000" />
          </g>
          <path
             d="m 150.5,414.8 0,-100.9 10.5,0 0,100.9 -10.5,0 z m 0,0 h 0.01"
             id="path164"
             inkscape:connector-curvature="0"
             style="stroke:#ff0000" />
          <g
             style="stroke:none"
             id="g166">
            <polygon
               points="192.4,184.5 192.4,414.8 203,414.8 203,184.5 "
               id="polygon168"
               style="fill:#ff0000" />
          </g>
          <path
             d="m 192.4,414.8 0,-230.2 10.5,0 0,230.2 -10.5,0 z m 0,0 h 0.01"
             id="path170"
             inkscape:connector-curvature="0"
             style="stroke:#ff0000" />
          <g
             style="stroke:none"
             id="g172">
            <polygon
               points="234.4,353.7 234.4,414.8 244.9,414.8 244.9,353.7 "
               id="polygon174"
               style="fill:#ff0000" />
          </g>
          <path
             d="m 234.4,414.8 0,-61 10.4,0 0,61 -10.4,0 z m 0,0 h 0.01"
             id="path176"
             inkscape:connector-curvature="0"
             style="stroke:#ff0000" />
          <g
             style="stroke:none"
             id="g178">
            <polygon
               points="276.3,382.9 276.3,414.8 286.9,414.8 286.9,382.9 "
               id="polygon180"
               style="fill:#ff0000" />
          </g>
          <path
             d="m 276.3,414.8 0,-31.8 10.5,0 0,31.8 -10.5,0 z m 0,0 h 0.01"
             id="path182"
             inkscape:connector-curvature="0"
             style="stroke:#ff0000" />
          <g
             style="stroke:none"
             id="g184">
            <polygon
               points="318.2,73.7 318.2,414.8 328.8,414.8 328.8,73.7 "
               id="polygon186"
               style="fill:#ff0000" />
          </g>
          <path
             d="m 318.2,414.8 0,-341 10.5,0 0,341 -10.5,0 z m 0,0 h 0.01"
             id="path188"
             inkscape:connector-curvature="0"
             style="stroke:#ff0000" />
          <g
             style="stroke:none"
             id="g190">
            <polygon
               points="360.1,223.6 360.1,414.8 370.7,414.8 370.7,223.6 "
               id="polygon192"
               style="fill:#ff0000" />
          </g>
          <path
             d="m 360.1,414.8 0,-191.1 10.5,0 0,191.1 -10.5,0 z m 0,0 h 0.01"
             id="path194"
             inkscape:connector-curvature="0"
             style="stroke:#ff0000" />
          <g
             style="stroke:none"
             id="g196">
            <polygon
               points="402.1,337.7 402.1,414.8 412.6,414.8 412.6,337.7 "
               id="polygon198"
               style="fill:#ff0000" />
          </g>
          <path
             d="m 402.1,414.8 0,-77 10.4,0 0,77 -10.4,0 z m 0,0 h 0.01"
             id="path200"
             inkscape:connector-curvature="0"
             style="stroke:#ff0000" />
          <g
             style="stroke:none"
             id="g202">
            <polygon
               points="444,236.9 444,414.8 454.6,414.8 454.6,236.9 "
               id="polygon204"
               style="fill:#ff0000" />
          </g>
          <path
             d="m 444,414.8 0,-177.8 10.5,0 0,177.8 -10.5,0 z m 0,0 h 0.01"
             id="path206"
             inkscape:connector-curvature="0"
             style="stroke:#ff0000" />
          <g
             style="stroke:none"
             id="g208">
            <polygon
               points="485.9,345.7 485.9,414.8 496.5,414.8 496.5,345.7 "
               id="polygon210"
               style="fill:#ff0000" />
          </g>
          <path
             d="m 485.9,414.8 0,-69 10.5,0 0,69 -10.5,0 z m 0,0 h 0.01"
             id="path212"
             inkscape:connector-curvature="0"
             style="stroke:#ff0000" />
          <g
             style="stroke:none"
             id="g214">
            <polygon
               points="527.8,381.5 527.8,414.8 538.4,414.8 538.4,381.5 "
               id="polygon216"
               style="fill:#ff0000" />
          </g>
          <path
             d="m 527.8,414.8 0,-33.2 10.5,0 0,33.2 -10.5,0 z m 0,0 h 0.01"
             id="path218"
             inkscape:connector-curvature="0"
             style="stroke:#ff0000" />
        </g>
        <text
           xml:space="preserve"
           style="font-size:41.44493484px;font-style:normal;font-variant:normal;font-weight:500;font-stretch:normal;line-height:125%;letter-spacing:0px;word-spacing:0px;fill:#000000;fill-opacity:1;stroke:none;font-family:Inconsolata;-inkscape-font-specification:Inconsolata Medium"
           x="529.21912"
           y="52.990406"
           id="text5088"
           sodipodi:linespacing="125%"><tspan
             sodipodi:role="line"
             id="tspan5090"
             x="529.21912"
             y="52.990406">Often changing triple:</tspan><tspan
             sodipodi:role="line"
             x="529.21912"
             y="104.79658"
             id="tspan5092">- Cast</tspan><tspan
             sodipodi:role="line"
             x="529.21912"
             y="156.60274"
             id="tspan5094">- Tagline</tspan><tspan
             sodipodi:role="line"
             x="529.21912"
             y="208.40891"
             id="tspan5096">- Links to images, videos</tspan></text>
      </g>
      <g
         id="gnuplot_plot_2"
         transform="translate(-74.760188,-8.9712226)">
        <title
           id="title221">gnuplot_plot_2</title>
        <g
           style="color:#008000;fill:none;stroke:currentColor;stroke-width:1;stroke-linecap:butt;stroke-linejoin:miter"
           id="g223">
          <g
             style="stroke:none"
             id="g225">
            <polygon
               points="119.1,408.7 119.1,414.8 129.6,414.8 129.6,408.7 "
               id="polygon227"
               style="fill:#008000" />
          </g>
          <path
             d="m 119.1,414.8 0,-6 10.4,0 0,6 -10.4,0 z m 0,0 h 0.01"
             id="path229"
             inkscape:connector-curvature="0"
             style="stroke:#008000" />
          <g
             style="stroke:none"
             id="g231">
            <polygon
               points="161,408.7 161,414.8 171.6,414.8 171.6,408.7 "
               id="polygon233"
               style="fill:#008000" />
          </g>
          <path
             d="m 161,414.8 0,-6 10.5,0 0,6 -10.5,0 z m 0,0 h 0.01"
             id="path235"
             inkscape:connector-curvature="0"
             style="stroke:#008000" />
          <g
             style="stroke:none"
             id="g237">
            <polygon
               points="202.9,321.8 202.9,414.8 213.5,414.8 213.5,321.8 "
               id="polygon239"
               style="fill:#008000" />
          </g>
          <path
             d="m 202.9,414.8 0,-92.9 10.5,0 0,92.9 -10.5,0 z m 0,0 h 0.01"
             id="path241"
             inkscape:connector-curvature="0"
             style="stroke:#008000" />
          <g
             style="stroke:none"
             id="g243">
            <polygon
               points="244.8,412 244.8,414.8 255.4,414.8 255.4,412 "
               id="polygon245"
               style="fill:#008000" />
          </g>
          <path
             d="m 244.8,414.8 0,-2.7 10.5,0 0,2.7 -10.5,0 z m 0,0 h 0.01"
             id="path247"
             inkscape:connector-curvature="0"
             style="stroke:#008000" />
          <g
             style="stroke:none"
             id="g249">
            <polygon
               points="286.8,413.4 286.8,414.8 297.3,414.8 297.3,413.4 "
               id="polygon251"
               style="fill:#008000" />
          </g>
          <path
             d="m 286.8,414.8 0,-1.3 10.4,0 0,1.3 -10.4,0 z m 0,0 h 0.01"
             id="path253"
             inkscape:connector-curvature="0"
             style="stroke:#008000" />
          <g
             style="stroke:none"
             id="g255">
            <polygon
               points="328.7,383.5 328.7,414.8 339.3,414.8 339.3,383.5 "
               id="polygon257"
               style="fill:#008000" />
          </g>
          <path
             d="m 328.7,414.8 0,-31.2 10.5,0 0,31.2 -10.5,0 z m 0,0 h 0.01"
             id="path259"
             inkscape:connector-curvature="0"
             style="stroke:#008000" />
          <g
             style="stroke:none"
             id="g261">
            <polygon
               points="370.6,396.8 370.6,414.8 381.2,414.8 381.2,396.8 "
               id="polygon263"
               style="fill:#008000" />
          </g>
          <path
             d="m 370.6,414.8 0,-17.9 10.5,0 0,17.9 -10.5,0 z m 0,0 h 0.01"
             id="path265"
             inkscape:connector-curvature="0"
             style="stroke:#008000" />
          <g
             style="stroke:none"
             id="g267">
            <polygon
               points="412.5,366.9 412.5,414.8 423.1,414.8 423.1,366.9 "
               id="polygon269"
               style="fill:#008000" />
          </g>
          <path
             d="m 412.5,414.8 0,-47.8 10.5,0 0,47.8 -10.5,0 z m 0,0 h 0.01"
             id="path271"
             inkscape:connector-curvature="0"
             style="stroke:#008000" />
          <g
             style="stroke:none"
             id="g273">
            <polygon
               points="454.5,400.1 454.5,414.8 465,414.8 465,400.1 "
               id="polygon275"
               style="fill:#008000" />
          </g>
          <path
             d="m 454.5,414.8 0,-14.6 10.4,0 0,14.6 -10.4,0 z m 0,0 h 0.01"
             id="path277"
             inkscape:connector-curvature="0"
             style="stroke:#008000" />
          <g
             style="stroke:none"
             id="g279">
            <polygon
               points="496.4,398.1 496.4,414.8 507,414.8 507,398.1 "
               id="polygon281"
               style="fill:#008000" />
          </g>
          <path
             d="m 496.4,414.8 0,-16.6 10.5,0 0,16.6 -10.5,0 z m 0,0 h 0.01"
             id="path283"
             inkscape:connector-curvature="0"
             style="stroke:#008000" />
          <g
             style="stroke:none"
             id="g285">
            <polygon
               points="538.3,413.4 538.3,414.8 548.9,414.8 548.9,413.4 "
               id="polygon287"
               style="fill:#008000" />
          </g>
          <path
             d="m 538.3,414.8 0,-1.3 10.5,0 0,1.3 -10.5,0 z m 0,0 h 0.01"
             id="path289"
             inkscape:connector-curvature="0"
             style="stroke:#008000" />
        </g>
      </g>
      <g
         style="color:#000000;fill:none;stroke:currentColor;stroke-width:1;stroke-linecap:butt;stroke-linejoin:miter"
         id="g291"
         transform="translate(-74.760188,-8.9712226)">
        <path
           d="m 71.9,16.7 0,398.1 503.1,0 0,-398.1 -503.1,0 z m 0,0 h 0.01"
           id="path293"
           inkscape:connector-curvature="0"
           style="stroke:#000000" />
      </g>
    </g>
  </g>
</svg>
