<?xml version="1.0" encoding="UTF-8" ?>
<!DOCTYPE svg PUBLIC "-//W3C//DTD SVG 1.1//EN" "http://www.w3.org/Graphics/SVG/1.1/DTD/svg11.dtd">
<svg width="450pt" height="375pt" viewBox="0 0 450 375" version="1.1" xmlns="http://www.w3.org/2000/svg">
<path fill="#007a9e" d=" M 0.00 0.00 L 450.00 0.00 L 450.00 375.00 L 0.00 375.00 L 0.00 0.00 Z" />
<path fill="#dd6108" d=" M 232.28 37.18 C 240.93 36.62 250.57 36.86 257.89 42.17 C 264.78 45.39 266.83 53.92 265.80 60.86 C 264.27 67.82 258.66 73.08 256.50 79.71 C 255.19 84.71 259.56 88.31 263.18 90.83 C 272.28 96.07 282.85 97.95 292.00 103.09 C 294.72 104.53 294.15 108.56 295.45 110.78 C 297.43 117.32 299.47 123.87 301.90 130.25 C 303.44 133.30 305.07 136.95 308.45 138.28 C 316.48 139.33 324.58 139.67 332.66 140.10 C 333.28 134.00 334.09 127.93 334.99 121.87 C 341.25 122.07 347.61 121.35 353.83 122.29 C 357.00 127.51 355.54 134.14 356.25 140.00 C 371.52 139.98 386.79 140.02 402.07 140.00 C 401.96 145.90 401.90 151.80 401.75 157.70 C 388.16 158.11 374.57 157.54 360.99 158.23 C 358.94 158.35 356.99 159.06 355.08 159.75 C 370.60 161.51 386.24 160.91 401.82 161.35 C 401.56 167.24 401.16 173.12 400.91 179.01 C 387.60 179.05 374.28 178.50 361.00 179.22 C 358.94 179.35 356.99 180.06 355.08 180.76 C 370.32 182.50 385.69 182.04 401.00 182.01 C 400.99 188.00 401.00 194.00 401.00 200.00 C 385.99 199.98 370.99 200.02 355.99 200.00 C 356.00 207.22 356.01 214.45 356.02 221.68 C 370.82 221.11 385.92 221.39 400.03 226.33 C 400.19 228.85 400.34 231.38 400.42 233.92 C 385.72 234.01 371.02 233.90 356.33 234.21 C 356.03 253.12 355.41 272.06 356.31 290.96 C 357.38 296.98 360.33 302.49 361.80 308.41 C 370.76 309.45 383.04 304.01 389.73 312.26 C 391.75 314.42 393.47 316.85 395.10 319.31 C 385.60 319.58 376.08 319.52 366.59 320.15 C 367.71 321.75 368.86 323.33 370.01 324.93 C 380.23 324.98 390.50 324.52 400.71 325.43 C 406.97 327.33 410.52 333.52 413.96 338.68 C 403.38 338.87 392.78 337.79 382.22 338.35 C 379.57 340.00 377.87 342.75 375.81 345.02 C 368.86 345.05 361.91 345.28 354.99 344.83 C 349.30 343.90 345.11 338.62 338.99 339.15 C 330.85 338.61 322.58 338.40 314.52 339.80 C 309.15 342.59 304.28 346.35 298.65 348.62 C 290.52 351.24 281.76 350.67 273.49 352.56 C 270.80 356.06 269.77 361.53 264.95 362.96 C 254.47 366.50 242.80 368.62 232.03 364.86 C 227.84 363.78 222.78 361.98 221.42 357.33 C 220.15 354.81 220.42 350.83 217.16 349.91 C 209.86 347.39 202.03 346.34 195.12 342.73 C 186.61 337.88 176.33 339.28 167.01 338.95 C 140.02 339.33 113.00 338.36 86.03 339.32 C 78.11 341.17 70.31 345.15 61.95 343.28 C 57.79 344.74 55.80 341.32 53.76 338.84 C 44.93 338.13 36.05 337.82 27.28 336.58 C 31.43 332.41 35.35 327.71 40.52 324.76 C 48.33 323.85 56.26 324.34 64.03 322.99 C 67.72 323.42 70.60 321.28 73.17 319.10 C 65.47 318.12 57.35 319.46 49.98 316.55 C 53.16 313.94 55.84 310.30 59.89 308.99 C 64.81 307.90 69.91 307.86 74.90 307.26 C 75.93 301.32 79.01 296.12 81.19 290.60 C 83.05 271.58 81.79 252.41 81.76 233.33 C 68.95 232.99 56.14 233.02 43.33 232.73 C 43.51 230.14 43.71 227.60 43.92 225.03 C 55.62 220.88 68.07 221.01 80.31 220.64 C 80.93 213.67 81.74 206.72 82.17 199.74 C 69.16 198.68 56.13 199.49 43.11 199.17 C 42.89 193.55 42.65 187.95 42.39 182.34 C 55.55 181.96 68.72 181.95 81.89 182.00 C 81.50 180.70 81.12 179.39 80.74 178.09 C 67.88 178.00 55.03 177.98 42.17 177.99 C 41.92 172.22 41.70 166.46 41.22 160.71 C 55.01 159.86 68.85 160.33 82.64 159.35 C 79.98 158.70 77.37 157.76 74.62 157.67 C 63.71 157.71 52.80 157.51 41.91 156.93 C 41.48 151.29 41.14 145.65 40.85 140.01 C 54.44 139.97 68.07 140.38 81.64 139.43 C 82.01 133.72 82.19 127.99 83.16 122.35 C 89.57 122.15 96.00 122.03 102.42 121.91 C 103.46 127.53 104.30 133.19 104.55 138.90 C 131.11 139.12 157.67 138.91 184.23 139.06 C 187.85 132.27 189.70 124.74 192.69 117.68 C 194.95 112.20 198.39 107.33 201.11 102.07 C 202.07 100.53 202.86 98.54 204.73 97.91 C 214.46 94.99 224.73 93.77 234.10 89.68 C 231.78 82.63 223.65 82.34 217.76 79.99 C 217.57 74.86 216.97 69.70 217.30 64.58 C 220.64 58.17 224.48 52.00 227.40 45.36 C 228.83 42.54 229.77 39.28 232.28 37.18 Z" />
<path fill="#007a9e" d=" M 105.50 157.39 C 119.89 157.54 134.27 157.89 148.65 157.41 C 157.61 158.25 166.96 156.08 175.70 158.89 C 152.17 161.19 128.53 159.76 104.96 160.83 C 105.13 159.68 105.32 158.53 105.50 157.39 Z" />
<path fill="#007a9e" d=" M 315.00 158.00 C 320.99 158.00 326.99 158.00 333.00 158.00 C 333.00 158.75 333.00 160.25 333.00 161.00 C 326.99 160.99 321.00 161.00 315.00 161.00 C 315.00 160.25 315.00 158.75 315.00 158.00 Z" />
<path fill="#007a9e" d=" M 104.32 178.34 C 125.84 177.73 147.36 178.07 168.89 177.99 C 168.50 179.29 168.12 180.60 167.74 181.91 C 146.61 181.99 125.48 182.22 104.35 181.77 C 104.33 180.62 104.32 179.48 104.32 178.34 Z" />
<path fill="#007a9e" d=" M 191.83 177.77 C 193.59 178.06 197.13 178.66 198.89 178.95 C 196.84 180.41 194.62 181.63 192.43 182.86 C 192.23 181.16 192.03 179.46 191.83 177.77 Z" />
<path fill="#007a9e" d=" M 287.00 179.00 C 288.33 179.00 289.66 179.00 291.00 179.00 C 291.00 179.75 291.00 181.25 291.00 182.00 C 289.66 182.00 288.33 182.00 287.00 182.00 C 287.00 181.25 287.00 179.75 287.00 179.00 Z" />
<path fill="#007a9e" d=" M 317.39 179.42 C 322.59 179.22 327.79 179.04 333.00 178.88 C 333.00 179.69 333.00 181.31 333.00 182.12 C 327.79 181.95 322.59 181.78 317.39 181.58 C 317.39 181.04 317.39 179.96 317.39 179.42 Z" />
<path fill="#007a9e" d=" M 105.00 200.00 C 124.02 200.00 143.04 199.98 162.06 200.02 C 160.76 203.49 159.43 206.94 157.89 210.31 C 154.77 217.09 147.03 220.24 139.99 220.64 C 128.34 221.45 116.66 221.01 105.00 221.02 C 105.00 214.01 105.00 207.01 105.00 200.00 Z" />
<path fill="#007a9e" d=" M 183.07 200.03 C 187.54 200.02 192.03 200.02 196.51 200.01 C 196.31 207.11 195.24 214.12 192.50 220.70 C 186.55 220.66 180.29 221.33 174.79 218.57 C 177.56 212.39 180.38 206.24 183.07 200.03 Z" />
<path fill="#007a9e" d=" M 288.01 199.98 C 290.66 200.01 295.95 200.07 298.59 200.10 C 299.93 206.76 301.92 213.27 303.37 219.91 C 299.53 219.94 291.84 220.00 287.99 220.03 C 288.00 213.34 288.00 206.66 288.01 199.98 Z" />
<path fill="#007a9e" d=" M 318.46 200.06 C 323.31 200.03 328.18 200.01 333.05 199.99 C 332.98 206.80 332.90 213.61 332.79 220.42 C 329.01 217.46 325.09 214.66 321.67 211.28 C 318.77 208.36 319.38 203.81 318.46 200.06 Z" />
<path fill="#007a9e" d=" M 160.34 219.92 C 164.40 218.72 168.84 217.95 172.75 220.02 C 169.65 219.99 163.44 219.94 160.34 219.92 Z" />
<path fill="#007a9e" d=" M 151.71 220.64 C 153.41 219.95 155.11 219.28 156.82 218.62 C 156.87 219.25 156.98 220.50 157.03 221.13 C 155.26 220.97 153.48 220.81 151.71 220.64 Z" />
<path fill="#007a9e" d=" M 118.77 233.35 C 128.48 233.10 138.20 233.03 147.91 233.46 C 163.84 233.59 179.79 232.95 195.71 233.96 C 195.23 241.63 194.95 249.32 195.19 257.01 C 195.48 263.81 197.15 270.60 196.29 277.43 C 196.10 283.16 193.56 288.55 193.74 294.30 C 193.85 299.22 193.78 304.15 193.24 309.06 C 186.93 308.88 180.63 308.60 174.33 308.44 C 174.36 285.73 177.24 262.72 172.98 240.30 C 166.93 239.87 160.81 239.84 154.90 238.34 C 149.75 236.18 144.62 238.37 139.76 240.10 C 133.32 242.57 126.41 243.22 119.77 244.97 C 118.31 265.00 119.17 285.09 119.45 305.14 C 119.86 309.37 114.58 308.60 111.64 309.59 C 113.02 300.00 107.48 292.22 105.60 283.35 C 104.52 270.06 104.04 256.16 108.41 243.38 C 111.48 239.67 115.93 237.32 118.77 233.35 Z" />
<path fill="#007a9e" d=" M 219.81 233.24 C 227.67 235.83 235.50 238.64 243.63 240.31 C 244.40 238.23 245.17 236.15 245.95 234.07 C 249.12 233.98 252.36 233.95 255.55 233.83 C 261.31 243.55 262.84 254.93 266.70 265.40 C 267.19 266.67 267.81 268.10 269.23 268.58 C 273.91 270.68 278.94 271.78 283.85 273.20 C 284.75 276.95 285.62 280.69 286.50 284.46 C 284.75 287.05 283.00 289.65 281.54 292.43 C 280.38 298.17 283.92 303.17 285.09 308.54 C 260.75 309.41 236.38 308.88 212.03 308.98 C 214.70 302.42 215.56 294.94 212.71 288.31 C 208.91 279.25 209.80 269.02 212.62 259.82 C 213.99 250.67 218.02 242.28 219.81 233.24 Z" />
<path fill="#007a9e" d=" M 284.95 235.07 C 296.65 234.99 308.36 234.59 320.06 235.06 C 323.71 235.09 325.80 238.60 328.23 240.83 C 332.54 244.86 331.81 251.36 332.45 256.66 C 332.60 267.81 334.52 279.41 332.03 290.40 C 328.93 295.77 329.48 302.00 329.68 308.00 C 322.77 307.99 315.87 307.98 308.98 307.98 C 308.46 301.84 308.71 295.46 306.52 289.59 C 302.53 280.11 297.15 271.26 293.49 261.64 C 290.44 252.84 288.32 243.75 284.95 235.07 Z" />
<path fill="#007a9e" d=" M 101.89 318.99 C 120.50 319.49 140.07 316.38 157.66 324.19 C 138.50 325.80 119.31 324.11 100.14 323.63 C 100.71 322.07 101.30 320.53 101.89 318.99 Z" />
<path fill="#007a9e" d=" M 184.21 319.76 C 187.13 319.61 190.21 319.73 193.18 319.73 C 193.28 321.60 193.37 323.47 193.44 325.34 C 190.15 323.86 187.05 321.98 184.21 319.76 Z" />
<path fill="#007a9e" d=" M 305.34 318.73 C 306.20 318.92 307.90 319.30 308.75 319.49 C 308.81 321.29 308.85 323.08 308.91 324.89 C 307.36 324.55 305.80 324.27 304.31 323.74 C 304.49 322.04 304.93 320.38 305.34 318.73 Z" />
<path fill="#007a9e" d=" M 334.00 321.01 C 334.74 321.02 336.23 321.03 336.97 321.03 C 337.77 322.28 338.57 323.52 339.37 324.77 C 337.45 324.80 333.61 324.85 331.69 324.87 C 332.45 323.58 333.22 322.29 334.00 321.01 Z" />
</svg>
