<?xml version="1.0" encoding="UTF-8" standalone="no"?>
<!-- Created with Inkscape (http://www.inkscape.org/) -->

<svg
   xmlns:dc="http://purl.org/dc/elements/1.1/"
   xmlns:cc="http://creativecommons.org/ns#"
   xmlns:rdf="http://www.w3.org/1999/02/22-rdf-syntax-ns#"
   xmlns:svg="http://www.w3.org/2000/svg"
   xmlns="http://www.w3.org/2000/svg"
   xmlns:sodipodi="http://sodipodi.sourceforge.net/DTD/sodipodi-0.dtd"
   xmlns:inkscape="http://www.inkscape.org/namespaces/inkscape"
   id="svg2"
   version="1.1"
   inkscape:version="0.48.4 r9939"
   width="600"
   height="480"
   xml:space="preserve"
   sodipodi:docname="baseline.pdf"><metadata
     id="metadata8"><rdf:RDF><cc:Work
         rdf:about=""><dc:format>image/svg+xml</dc:format><dc:type
           rdf:resource="http://purl.org/dc/dcmitype/StillImage" /><dc:title></dc:title></cc:Work></rdf:RDF></metadata><defs
     id="defs6" /><sodipodi:namedview
     pagecolor="#ffffff"
     bordercolor="#666666"
     borderopacity="1"
     objecttolerance="10"
     gridtolerance="10"
     guidetolerance="10"
     inkscape:pageopacity="0"
     inkscape:pageshadow="2"
     inkscape:window-width="960"
     inkscape:window-height="1014"
     id="namedview4"
     showgrid="false"
     inkscape:zoom="1.3906433"
     inkscape:cx="179.57231"
     inkscape:cy="177.73751"
     inkscape:window-x="0"
     inkscape:window-y="27"
     inkscape:window-maximized="0"
     inkscape:current-layer="g12" /><g
     id="g10"
     inkscape:groupmode="layer"
     inkscape:label="baseline"
     transform="matrix(1.25,0,0,-1.25,0,480)"><g
       id="g12"><g
         id="g14"
         transform="matrix(1,0,0,-1,0,384)"><path
           d="m 43.121,369.602 7.199,0 m 89.68,0 -7.199,0 0.008,0"
           style="fill:none;stroke:#000000;stroke-opacity:1;stroke-width:0.8;stroke-linecap:butt;stroke-linejoin:miter;stroke-miterlimit:4;stroke-dasharray:none"
           id="path16" /></g><text
         transform="matrix(1,0,0,-1,29.800313,10.8)"
         id="text18"><tspan
           style="fill:#000000;fill-opacity:1;fill-rule:nonzero;stroke:none;font-family:Arial;font-variant:normal;font-weight:normal;font-size:12;writing-mode:lr;-inkscape-font-specification:ArialMT"
           x="0"
           y="0"
           id="tspan20">0</tspan></text>
<g
         id="g22"
         transform="matrix(1,0,0,-1,0,384)"><path
           d="m 43.121,307.199 7.199,0 m 89.68,0 -7.199,0 0.008,0"
           style="fill:none;stroke:#000000;stroke-opacity:1;stroke-width:0.8;stroke-linecap:butt;stroke-linejoin:miter;stroke-miterlimit:4;stroke-dasharray:none"
           id="path24" /></g><text
         transform="matrix(1,0,0,-1,19.7925,73.2)"
         id="text26"><tspan
           style="fill:#000000;fill-opacity:1;fill-rule:nonzero;stroke:none;font-family:Arial;font-variant:normal;font-weight:normal;font-size:12;writing-mode:lr;-inkscape-font-specification:ArialMT"
           x="0 6.672 9.996"
           y="0"
           sodipodi:role="line"
           id="tspan28">0.2</tspan></text>
<g
         id="g30"
         transform="matrix(1,0,0,-1,0,384)"><path
           d="m 43.121,244.801 7.199,0 m 89.68,0 -7.199,0 0.008,0"
           style="fill:none;stroke:#000000;stroke-opacity:1;stroke-width:0.8;stroke-linecap:butt;stroke-linejoin:miter;stroke-miterlimit:4;stroke-dasharray:none"
           id="path32" /></g><text
         transform="matrix(1,0,0,-1,19.7925,135.6)"
         id="text34"><tspan
           style="fill:#000000;fill-opacity:1;fill-rule:nonzero;stroke:none;font-family:Arial;font-variant:normal;font-weight:normal;font-size:12;writing-mode:lr;-inkscape-font-specification:ArialMT"
           x="0 6.672 9.996"
           y="0"
           sodipodi:role="line"
           id="tspan36">0.4</tspan></text>
<g
         id="g38"
         transform="matrix(1,0,0,-1,0,384)"><path
           d="m 43.121,182.48 7.199,0 m 89.68,0 -7.199,0 0.008,0"
           style="fill:none;stroke:#000000;stroke-opacity:1;stroke-width:0.8;stroke-linecap:butt;stroke-linejoin:miter;stroke-miterlimit:4;stroke-dasharray:none"
           id="path40" /></g><text
         transform="matrix(1,0,0,-1,19.7925,197.92)"
         id="text42"><tspan
           style="fill:#000000;fill-opacity:1;fill-rule:nonzero;stroke:none;font-family:Arial;font-variant:normal;font-weight:normal;font-size:12;writing-mode:lr;-inkscape-font-specification:ArialMT"
           x="0 6.672 9.996"
           y="0"
           sodipodi:role="line"
           id="tspan44">0.6</tspan></text>
<g
         id="g46"
         transform="matrix(1,0,0,-1,0,384)"><path
           d="m 43.121,120.078 7.199,0 m 89.68,0 -7.199,0 0.008,0"
           style="fill:none;stroke:#000000;stroke-opacity:1;stroke-width:0.8;stroke-linecap:butt;stroke-linejoin:miter;stroke-miterlimit:4;stroke-dasharray:none"
           id="path48" /></g><text
         transform="matrix(1,0,0,-1,19.7925,260.32)"
         id="text50"><tspan
           style="fill:#000000;fill-opacity:1;fill-rule:nonzero;stroke:none;font-family:Arial;font-variant:normal;font-weight:normal;font-size:12;writing-mode:lr;-inkscape-font-specification:ArialMT"
           x="0 6.672 9.996"
           y="0"
           sodipodi:role="line"
           id="tspan52">0.8</tspan></text>
<g
         id="g54"
         transform="matrix(1,0,0,-1,0,384)"><path
           d="m 43.121,57.68 7.199,0 m 89.68,0 -7.199,0 0.008,0"
           style="fill:none;stroke:#000000;stroke-opacity:1;stroke-width:0.8;stroke-linecap:butt;stroke-linejoin:miter;stroke-miterlimit:4;stroke-dasharray:none"
           id="path56" /></g><text
         transform="matrix(1,0,0,-1,29.800313,322.72)"
         id="text58"><tspan
           style="fill:#000000;fill-opacity:1;fill-rule:nonzero;stroke:none;font-family:Arial;font-variant:normal;font-weight:normal;font-size:12;writing-mode:lr;-inkscape-font-specification:ArialMT"
           x="0"
           y="0"
           id="tspan60">1</tspan></text>
<g
         id="g62"
         transform="matrix(1,0,0,-1,0,384)"><path
           d="m 43.121,369.602 0,-7.204 m 0,-304.718 0,7.199 m 24.238,304.723 0,-7.204 m 0,-304.718 0,7.199 m 24.243,304.723 0,-7.204 m 0,-304.718 0,7.199 m 24.16,304.723 0,-7.204 m 0,-304.718 0,7.199 M 140,369.602 l 0,-7.204 m 0,-304.718 0,7.199 m -96.879,-7.199 0,311.922 96.879,0 0,-311.922 -96.879,0 z m 0,0 0.008,0"
           style="fill:none;stroke:#000000;stroke-opacity:1;stroke-width:0.8;stroke-linecap:butt;stroke-linejoin:miter;stroke-miterlimit:4;stroke-dasharray:none"
           id="path64" /></g><text
         transform="matrix(1,0,0,-1,66.816875,344.32)"
         id="text66"><tspan
           style="fill:#000000;fill-opacity:1;fill-rule:nonzero;stroke:none;font-family:Arial;font-variant:normal;font-weight:normal;font-size:12;writing-mode:lr;-inkscape-font-specification:ArialMT"
           x="0 7.992 11.988 18.66 24.66 27.36 33.36 36.024 42.696"
           y="0"
           sodipodi:role="line"
           id="tspan68">Precision</tspan><tspan
           style="fill:#000000;fill-opacity:1;fill-rule:nonzero;stroke:none;font-family:Arial;font-variant:normal;font-weight:normal;font-size:12;writing-mode:lr;-inkscape-font-specification:ArialMT"
           x="-26.574996 -18.582996 -11.910996 -5.910996 0.761004 3.425004 6.125004 12.797004"
           y="36"
           sodipodi:role="line"
           id="tspan70">Baseline</tspan></text>
<path
         d="m 92.961,315.52 33.758,0 0,-7.199 -33.758,0 0,7.199 z"
         style="fill:#ff0000;fill-opacity:1;fill-rule:nonzero;stroke:none"
         id="path72" /><g
         id="g74"
         transform="matrix(1,0,0,-1,0,384)"><path
           d="m 92.961,75.68 33.758,0 0,-7.2 -33.758,0 0,7.2 z m 0,0 0.008,0"
           style="fill:none;stroke:#ff0000;stroke-opacity:1;stroke-width:0.8;stroke-linecap:butt;stroke-linejoin:miter;stroke-miterlimit:4;stroke-dasharray:none"
           id="path76" /></g><path
         d="m 75.441,189.199 16.238,0 0,-174.801 -16.238,0 0,174.801 z"
         style="fill:#ff0000;fill-opacity:1;fill-rule:nonzero;stroke:none"
         id="path78" /><g
         id="g80"
         transform="matrix(1,0,0,-1,0,384)"><path
           d="m 75.441,369.602 0,-174.723 16.161,0 0,174.723 -16.161,0 z m 0,0 0.008,0"
           style="fill:none;stroke:#ff0000;stroke-opacity:1;stroke-width:0.8;stroke-linecap:butt;stroke-linejoin:miter;stroke-miterlimit:4;stroke-dasharray:none"
           id="path82" /></g><text
         transform="matrix(1,0,0,-1,58.968438,293.92)"
         id="text84"><tspan
           style="fill:#000000;fill-opacity:1;fill-rule:nonzero;stroke:none;font-family:Arial;font-variant:normal;font-weight:normal;font-size:12;writing-mode:lr;-inkscape-font-specification:ArialMT"
           x="0 9.996 17.316"
           y="0"
           sodipodi:role="line"
           id="tspan86">MFM</tspan></text>
<path
         d="m 92.961,301.121 33.758,0 0,-7.199 -33.758,0 0,7.199 z"
         style="fill:#008000;fill-opacity:1;fill-rule:nonzero;stroke:none"
         id="path88" /><g
         id="g90"
         transform="matrix(1,0,0,-1,0,384)"
         style="fill:#b3b3b3;fill-opacity:1"><path
           d="m 92.961,90.078 33.758,0 0,-7.199 -33.758,0 0,7.199 z m 0,0 0.008,0"
           style="fill:#b3b3b3;stroke:#008000;stroke-opacity:1;stroke-width:0.80000000000000004;stroke-linecap:butt;stroke-linejoin:miter;stroke-miterlimit:4;stroke-dasharray:none;fill-opacity:1"
           id="path92" /></g><path
         d="m 91.602,326.398 16.16,0 0,-312 -16.16,0 0,312 z"
         style="fill:#b3b3b3;fill-opacity:1;fill-rule:nonzero;stroke:none"
         id="path94" /><g
         id="g96"
         transform="matrix(1,0,0,-1,0,384)"><path
           d="m 91.602,369.602 0,-311.922 16.078,0 0,311.922 -16.078,0 z m 0,0 0.007,0"
           style="fill:none;stroke:#008000;stroke-opacity:1;stroke-width:0.8;stroke-linecap:butt;stroke-linejoin:miter;stroke-miterlimit:4;stroke-dasharray:none"
           id="path98" /></g><g
         id="g100"
         transform="matrix(1,0,0,-1,0,384)"><path
           d="m 43.121,57.68 0,311.922 96.879,0 0,-311.922 -96.879,0 z m 0,0 0.008,0"
           style="fill:none;stroke:#000000;stroke-opacity:1;stroke-width:0.8;stroke-linecap:butt;stroke-linejoin:miter;stroke-miterlimit:4;stroke-dasharray:none"
           id="path102" /></g><g
         id="g104"
         transform="matrix(1,0,0,-1,0,384)"><path
           d="m 203.121,369.602 7.199,0 m 89.68,0 -7.199,0 0.008,0"
           style="fill:none;stroke:#000000;stroke-opacity:1;stroke-width:0.8;stroke-linecap:butt;stroke-linejoin:miter;stroke-miterlimit:4;stroke-dasharray:none"
           id="path106" /></g><text
         transform="matrix(1,0,0,-1,189.80031,10.8)"
         id="text108"><tspan
           style="fill:#000000;fill-opacity:1;fill-rule:nonzero;stroke:none;font-family:Arial;font-variant:normal;font-weight:normal;font-size:12;writing-mode:lr;-inkscape-font-specification:ArialMT"
           x="0"
           y="0"
           id="tspan110">0</tspan></text>
<g
         id="g112"
         transform="matrix(1,0,0,-1,0,384)"><path
           d="m 203.121,307.199 7.199,0 m 89.68,0 -7.199,0 0.008,0"
           style="fill:none;stroke:#000000;stroke-opacity:1;stroke-width:0.8;stroke-linecap:butt;stroke-linejoin:miter;stroke-miterlimit:4;stroke-dasharray:none"
           id="path114" /></g><text
         transform="matrix(1,0,0,-1,179.7925,73.2)"
         id="text116"><tspan
           style="fill:#000000;fill-opacity:1;fill-rule:nonzero;stroke:none;font-family:Arial;font-variant:normal;font-weight:normal;font-size:12;writing-mode:lr;-inkscape-font-specification:ArialMT"
           x="0 6.672 9.996"
           y="0"
           sodipodi:role="line"
           id="tspan118">0.2</tspan></text>
<g
         id="g120"
         transform="matrix(1,0,0,-1,0,384)"><path
           d="m 203.121,244.801 7.199,0 m 89.68,0 -7.199,0 0.008,0"
           style="fill:none;stroke:#000000;stroke-opacity:1;stroke-width:0.8;stroke-linecap:butt;stroke-linejoin:miter;stroke-miterlimit:4;stroke-dasharray:none"
           id="path122" /></g><text
         transform="matrix(1,0,0,-1,179.7925,135.6)"
         id="text124"><tspan
           style="fill:#000000;fill-opacity:1;fill-rule:nonzero;stroke:none;font-family:Arial;font-variant:normal;font-weight:normal;font-size:12;writing-mode:lr;-inkscape-font-specification:ArialMT"
           x="0 6.672 9.996"
           y="0"
           sodipodi:role="line"
           id="tspan126">0.4</tspan></text>
<g
         id="g128"
         transform="matrix(1,0,0,-1,0,384)"><path
           d="m 203.121,182.48 7.199,0 m 89.68,0 -7.199,0 0.008,0"
           style="fill:none;stroke:#000000;stroke-opacity:1;stroke-width:0.8;stroke-linecap:butt;stroke-linejoin:miter;stroke-miterlimit:4;stroke-dasharray:none"
           id="path130" /></g><text
         transform="matrix(1,0,0,-1,179.7925,197.92)"
         id="text132"><tspan
           style="fill:#000000;fill-opacity:1;fill-rule:nonzero;stroke:none;font-family:Arial;font-variant:normal;font-weight:normal;font-size:12;writing-mode:lr;-inkscape-font-specification:ArialMT"
           x="0 6.672 9.996"
           y="0"
           sodipodi:role="line"
           id="tspan134">0.6</tspan></text>
<g
         id="g136"
         transform="matrix(1,0,0,-1,0,384)"><path
           d="m 203.121,120.078 7.199,0 m 89.68,0 -7.199,0 0.008,0"
           style="fill:none;stroke:#000000;stroke-opacity:1;stroke-width:0.8;stroke-linecap:butt;stroke-linejoin:miter;stroke-miterlimit:4;stroke-dasharray:none"
           id="path138" /></g><text
         transform="matrix(1,0,0,-1,179.7925,260.32)"
         id="text140"><tspan
           style="fill:#000000;fill-opacity:1;fill-rule:nonzero;stroke:none;font-family:Arial;font-variant:normal;font-weight:normal;font-size:12;writing-mode:lr;-inkscape-font-specification:ArialMT"
           x="0 6.672 9.996"
           y="0"
           sodipodi:role="line"
           id="tspan142">0.8</tspan></text>
<g
         id="g144"
         transform="matrix(1,0,0,-1,0,384)"><path
           d="m 203.121,57.68 7.199,0 m 89.68,0 -7.199,0 0.008,0"
           style="fill:none;stroke:#000000;stroke-opacity:1;stroke-width:0.8;stroke-linecap:butt;stroke-linejoin:miter;stroke-miterlimit:4;stroke-dasharray:none"
           id="path146" /></g><text
         transform="matrix(1,0,0,-1,189.80031,322.72)"
         id="text148"><tspan
           style="fill:#000000;fill-opacity:1;fill-rule:nonzero;stroke:none;font-family:Arial;font-variant:normal;font-weight:normal;font-size:12;writing-mode:lr;-inkscape-font-specification:ArialMT"
           x="0"
           y="0"
           id="tspan150">1</tspan></text>
<g
         id="g152"
         transform="matrix(1,0,0,-1,0,384)"><path
           d="m 203.121,369.602 0,-7.204 m 0,-304.718 0,7.199 m 24.238,304.723 0,-7.204 m 0,-304.718 0,7.199 m 24.243,304.723 0,-7.204 m 0,-304.718 0,7.199 m 24.16,304.723 0,-7.204 m 0,-304.718 0,7.199 M 300,369.602 l 0,-7.204 m 0,-304.718 0,7.199 m -96.879,-7.199 0,311.922 96.879,0 0,-311.922 -96.879,0 z m 0,0 0.008,0"
           style="fill:none;stroke:#000000;stroke-opacity:1;stroke-width:0.8;stroke-linecap:butt;stroke-linejoin:miter;stroke-miterlimit:4;stroke-dasharray:none"
           id="path154" /></g><text
         transform="matrix(1,0,0,-1,234.8325,344.32)"
         id="text156"><tspan
           style="fill:#000000;fill-opacity:1;fill-rule:nonzero;stroke:none;font-family:Arial;font-variant:normal;font-weight:normal;font-size:12;writing-mode:lr;-inkscape-font-specification:ArialMT"
           x="0 8.664 15.336 21.336 28.008 30.672"
           y="0"
           sodipodi:role="line"
           id="tspan158">Recall</tspan></text>
<path
         d="m 235.441,193.602 16.238,0 0,-179.203 -16.238,0 0,179.203 z"
         style="fill:#ff0000;fill-opacity:1;fill-rule:nonzero;stroke:none"
         id="path160" /><g
         id="g162"
         transform="matrix(1,0,0,-1,0,384)"><path
           d="m 235.441,369.602 0,-179.122 16.161,0 0,179.122 -16.161,0 z m 0,0 0.008,0"
           style="fill:none;stroke:#ff0000;stroke-opacity:1;stroke-width:0.8;stroke-linecap:butt;stroke-linejoin:miter;stroke-miterlimit:4;stroke-dasharray:none"
           id="path164" /></g><path
         d="m 251.602,326.398 16.16,0 0,-312 -16.16,0 0,312 z"
         style="fill:#b3b3b3;fill-opacity:1;fill-rule:nonzero;stroke:none"
         id="path166" /><g
         id="g168"
         transform="matrix(1,0,0,-1,0,384)"><path
           d="m 251.602,369.602 0,-311.922 16.078,0 0,311.922 -16.078,0 z m 0,0 0.007,0"
           style="fill:none;stroke:#008000;stroke-opacity:1;stroke-width:0.8;stroke-linecap:butt;stroke-linejoin:miter;stroke-miterlimit:4;stroke-dasharray:none"
           id="path170" /></g><g
         id="g172"
         transform="matrix(1,0,0,-1,0,384)"><path
           d="m 203.121,57.68 0,311.922 96.879,0 0,-311.922 -96.879,0 z m 0,0 0.008,0"
           style="fill:none;stroke:#000000;stroke-opacity:1;stroke-width:0.8;stroke-linecap:butt;stroke-linejoin:miter;stroke-miterlimit:4;stroke-dasharray:none"
           id="path174" /></g><g
         id="g176"
         transform="matrix(1,0,0,-1,0,384)"><path
           d="m 363.121,369.602 7.199,0 m 89.68,0 -7.199,0 0.008,0"
           style="fill:none;stroke:#000000;stroke-opacity:1;stroke-width:0.8;stroke-linecap:butt;stroke-linejoin:miter;stroke-miterlimit:4;stroke-dasharray:none"
           id="path178" /></g><text
         transform="matrix(1,0,0,-1,349.80031,10.8)"
         id="text180"><tspan
           style="fill:#000000;fill-opacity:1;fill-rule:nonzero;stroke:none;font-family:Arial;font-variant:normal;font-weight:normal;font-size:12;writing-mode:lr;-inkscape-font-specification:ArialMT"
           x="0"
           y="0"
           id="tspan182">0</tspan></text>
<g
         id="g184"
         transform="matrix(1,0,0,-1,0,384)"><path
           d="m 363.121,307.199 7.199,0 m 89.68,0 -7.199,0 0.008,0"
           style="fill:none;stroke:#000000;stroke-opacity:1;stroke-width:0.8;stroke-linecap:butt;stroke-linejoin:miter;stroke-miterlimit:4;stroke-dasharray:none"
           id="path186" /></g><text
         transform="matrix(1,0,0,-1,339.7925,73.2)"
         id="text188"><tspan
           style="fill:#000000;fill-opacity:1;fill-rule:nonzero;stroke:none;font-family:Arial;font-variant:normal;font-weight:normal;font-size:12;writing-mode:lr;-inkscape-font-specification:ArialMT"
           x="0 6.672 9.996"
           y="0"
           sodipodi:role="line"
           id="tspan190">0.2</tspan></text>
<g
         id="g192"
         transform="matrix(1,0,0,-1,0,384)"><path
           d="m 363.121,244.801 7.199,0 m 89.68,0 -7.199,0 0.008,0"
           style="fill:none;stroke:#000000;stroke-opacity:1;stroke-width:0.8;stroke-linecap:butt;stroke-linejoin:miter;stroke-miterlimit:4;stroke-dasharray:none"
           id="path194" /></g><text
         transform="matrix(1,0,0,-1,339.7925,135.6)"
         id="text196"><tspan
           style="fill:#000000;fill-opacity:1;fill-rule:nonzero;stroke:none;font-family:Arial;font-variant:normal;font-weight:normal;font-size:12;writing-mode:lr;-inkscape-font-specification:ArialMT"
           x="0 6.672 9.996"
           y="0"
           sodipodi:role="line"
           id="tspan198">0.4</tspan></text>
<g
         id="g200"
         transform="matrix(1,0,0,-1,0,384)"><path
           d="m 363.121,182.48 7.199,0 m 89.68,0 -7.199,0 0.008,0"
           style="fill:none;stroke:#000000;stroke-opacity:1;stroke-width:0.8;stroke-linecap:butt;stroke-linejoin:miter;stroke-miterlimit:4;stroke-dasharray:none"
           id="path202" /></g><text
         transform="matrix(1,0,0,-1,339.7925,197.92)"
         id="text204"><tspan
           style="fill:#000000;fill-opacity:1;fill-rule:nonzero;stroke:none;font-family:Arial;font-variant:normal;font-weight:normal;font-size:12;writing-mode:lr;-inkscape-font-specification:ArialMT"
           x="0 6.672 9.996"
           y="0"
           sodipodi:role="line"
           id="tspan206">0.6</tspan></text>
<g
         id="g208"
         transform="matrix(1,0,0,-1,0,384)"><path
           d="m 363.121,120.078 7.199,0 m 89.68,0 -7.199,0 0.008,0"
           style="fill:none;stroke:#000000;stroke-opacity:1;stroke-width:0.8;stroke-linecap:butt;stroke-linejoin:miter;stroke-miterlimit:4;stroke-dasharray:none"
           id="path210" /></g><text
         transform="matrix(1,0,0,-1,339.7925,260.32)"
         id="text212"><tspan
           style="fill:#000000;fill-opacity:1;fill-rule:nonzero;stroke:none;font-family:Arial;font-variant:normal;font-weight:normal;font-size:12;writing-mode:lr;-inkscape-font-specification:ArialMT"
           x="0 6.672 9.996"
           y="0"
           sodipodi:role="line"
           id="tspan214">0.8</tspan></text>
<g
         id="g216"
         transform="matrix(1,0,0,-1,0,384)"><path
           d="m 363.121,57.68 7.199,0 m 89.68,0 -7.199,0 0.008,0"
           style="fill:none;stroke:#000000;stroke-opacity:1;stroke-width:0.8;stroke-linecap:butt;stroke-linejoin:miter;stroke-miterlimit:4;stroke-dasharray:none"
           id="path218" /></g><text
         transform="matrix(1,0,0,-1,349.80031,322.72)"
         id="text220"><tspan
           style="fill:#000000;fill-opacity:1;fill-rule:nonzero;stroke:none;font-family:Arial;font-variant:normal;font-weight:normal;font-size:12;writing-mode:lr;-inkscape-font-specification:ArialMT"
           x="0"
           y="0"
           id="tspan222">1</tspan></text>
<g
         id="g224"
         transform="matrix(1,0,0,-1,0,384)"><path
           d="m 363.121,369.602 0,-7.204 m 0,-304.718 0,7.199 m 24.238,304.723 0,-7.204 m 0,-304.718 0,7.199 m 24.243,304.723 0,-7.204 m 0,-304.718 0,7.199 m 24.16,304.723 0,-7.204 m 0,-304.718 0,7.199 M 460,369.602 l 0,-7.204 m 0,-304.718 0,7.199 m -96.879,-7.199 0,311.922 96.879,0 0,-311.922 -96.879,0 z m 0,0 0.008,0"
           style="fill:none;stroke:#000000;stroke-opacity:1;stroke-width:0.8;stroke-linecap:butt;stroke-linejoin:miter;stroke-miterlimit:4;stroke-dasharray:none"
           id="path226" /></g><text
         transform="matrix(1,0,0,-1,399.50828,344.32)"
         id="text228"><tspan
           style="fill:#000000;fill-opacity:1;fill-rule:nonzero;stroke:none;font-family:Arial;font-variant:normal;font-weight:normal;font-size:12;writing-mode:lr;-inkscape-font-specification:ArialMT"
           x="0 7.32 13.992 17.316"
           y="0"
           sodipodi:role="line"
           id="tspan230">F0.5</tspan></text>
<path
         d="m 395.441,190.078 16.238,0 0,-175.68 -16.238,0 0,175.68 z"
         style="fill:#ff0000;fill-opacity:1;fill-rule:nonzero;stroke:none"
         id="path232" /><g
         id="g234"
         transform="matrix(1,0,0,-1,0,384)"><path
           d="m 395.441,369.602 0,-175.602 16.161,0 0,175.602 -16.161,0 z m 0,0 0.008,0"
           style="fill:none;stroke:#ff0000;stroke-opacity:1;stroke-width:0.8;stroke-linecap:butt;stroke-linejoin:miter;stroke-miterlimit:4;stroke-dasharray:none"
           id="path236" /></g><path
         d="m 411.602,326.398 16.16,0 0,-312 -16.16,0 0,312 z"
         style="fill:#b3b3b3;fill-opacity:1;fill-rule:nonzero;stroke:none"
         id="path238" /><g
         id="g240"
         transform="matrix(1,0,0,-1,0,384)"><path
           d="m 411.602,369.602 0,-311.922 16.078,0 0,311.922 -16.078,0 z m 0,0 0.007,0"
           style="fill:none;stroke:#008000;stroke-opacity:1;stroke-width:0.8;stroke-linecap:butt;stroke-linejoin:miter;stroke-miterlimit:4;stroke-dasharray:none"
           id="path242" /></g><g
         id="g244"
         transform="matrix(1,0,0,-1,0,384)"><path
           d="m 363.121,57.68 0,311.922 96.879,0 0,-311.922 -96.879,0 z m 0,0 0.008,0"
           style="fill:none;stroke:#000000;stroke-opacity:1;stroke-width:0.8;stroke-linecap:butt;stroke-linejoin:miter;stroke-miterlimit:4;stroke-dasharray:none"
           id="path246" /></g></g></g></svg>