<?xml version="1.0" encoding="UTF-8" standalone="no"?>
<!-- Created with Inkscape (http://www.inkscape.org/) -->

<svg
   xmlns:dc="http://purl.org/dc/elements/1.1/"
   xmlns:cc="http://creativecommons.org/ns#"
   xmlns:rdf="http://www.w3.org/1999/02/22-rdf-syntax-ns#"
   xmlns:svg="http://www.w3.org/2000/svg"
   xmlns="http://www.w3.org/2000/svg"
   xmlns:sodipodi="http://sodipodi.sourceforge.net/DTD/sodipodi-0.dtd"
   xmlns:inkscape="http://www.inkscape.org/namespaces/inkscape"
   id="svg2"
   version="1.1"
   inkscape:version="0.48.4 r9939"
   width="600"
   height="480"
   xml:space="preserve"
   sodipodi:docname="baseline.svg"><metadata
     id="metadata8"><rdf:RDF><cc:Work
         rdf:about=""><dc:format>image/svg+xml</dc:format><dc:type
           rdf:resource="http://purl.org/dc/dcmitype/StillImage" /><dc:title></dc:title></cc:Work></rdf:RDF></metadata><defs
     id="defs6" /><sodipodi:namedview
     pagecolor="#ffffff"
     bordercolor="#666666"
     borderopacity="1"
     objecttolerance="10"
     gridtolerance="10"
     guidetolerance="10"
     inkscape:pageopacity="0"
     inkscape:pageshadow="2"
     inkscape:window-width="1920"
     inkscape:window-height="1014"
     id="namedview4"
     showgrid="false"
     inkscape:zoom="0.84895833"
     inkscape:cx="467.30107"
     inkscape:cy="242.71573"
     inkscape:window-x="0"
     inkscape:window-y="27"
     inkscape:window-maximized="1"
     inkscape:current-layer="g12" /><g
     id="g10"
     inkscape:groupmode="layer"
     inkscape:label="baseline"
     transform="matrix(1.25,0,0,-1.25,0,480)"><g
       id="g12"><g
         id="g14"
         transform="matrix(1,0,0,-1,0,384)"><path
           d="m 43.121,369.602 7.199,0 m 89.68,0 -7.199,0 0.008,0"
           style="fill:none;stroke:#000000;stroke-opacity:1;stroke-width:0.80000000000000004;stroke-linecap:butt;stroke-linejoin:miter;stroke-miterlimit:4;stroke-dasharray:none"
           id="path16" /></g><text
         transform="matrix(1,0,0,-1,29.800313,10.8)"
         id="text18"
         style="-inkscape-font-specification:CMU Serif Medium;font-family:CMU Serif;font-weight:500;font-style:normal;font-stretch:normal;font-variant:normal"><tspan
           style="fill:#000000;fill-opacity:1;fill-rule:nonzero;stroke:none;font-family:CMU Serif;font-variant:normal;font-weight:500;font-size:12;writing-mode:lr;-inkscape-font-specification:CMU Serif Medium;font-style:normal;font-stretch:normal"
           x="0"
           y="0"
           id="tspan20">0</tspan></text>
<g
         id="g22"
         transform="matrix(1,0,0,-1,0,384)"><path
           d="m 43.121,307.199 7.199,0 m 89.68,0 -7.199,0 0.008,0"
           style="fill:none;stroke:#000000;stroke-opacity:1;stroke-width:0.80000000000000004;stroke-linecap:butt;stroke-linejoin:miter;stroke-miterlimit:4;stroke-dasharray:none"
           id="path24" /></g><text
         transform="matrix(1,0,0,-1,19.7925,73.2)"
         id="text26"
         style="-inkscape-font-specification:CMU Serif Medium;font-family:CMU Serif;font-weight:500;font-style:normal;font-stretch:normal;font-variant:normal"><tspan
           style="fill:#000000;fill-opacity:1;fill-rule:nonzero;stroke:none;font-family:CMU Serif;font-variant:normal;font-weight:500;font-size:12;writing-mode:lr;-inkscape-font-specification:CMU Serif Medium;font-style:normal;font-stretch:normal"
           x="0 6.672 9.996"
           y="0"
           sodipodi:role="line"
           id="tspan28">0.2</tspan></text>
<g
         id="g30"
         transform="matrix(1,0,0,-1,0,384)"><path
           d="m 43.121,244.801 7.199,0 m 89.68,0 -7.199,0 0.008,0"
           style="fill:none;stroke:#000000;stroke-opacity:1;stroke-width:0.80000000000000004;stroke-linecap:butt;stroke-linejoin:miter;stroke-miterlimit:4;stroke-dasharray:none"
           id="path32" /></g><text
         transform="matrix(1,0,0,-1,19.7925,135.6)"
         id="text34"
         style="-inkscape-font-specification:CMU Serif Medium;font-family:CMU Serif;font-weight:500;font-style:normal;font-stretch:normal;font-variant:normal"><tspan
           style="fill:#000000;fill-opacity:1;fill-rule:nonzero;stroke:none;font-family:CMU Serif;font-variant:normal;font-weight:500;font-size:12;writing-mode:lr;-inkscape-font-specification:CMU Serif Medium;font-style:normal;font-stretch:normal"
           x="0 6.672 9.996"
           y="0"
           sodipodi:role="line"
           id="tspan36">0.4</tspan></text>
<g
         id="g38"
         transform="matrix(1,0,0,-1,0,384)"><path
           d="m 43.121,182.48 7.199,0 m 89.68,0 -7.199,0 0.008,0"
           style="fill:none;stroke:#000000;stroke-opacity:1;stroke-width:0.80000000000000004;stroke-linecap:butt;stroke-linejoin:miter;stroke-miterlimit:4;stroke-dasharray:none"
           id="path40" /></g><text
         transform="matrix(1,0,0,-1,19.7925,197.92)"
         id="text42"
         style="-inkscape-font-specification:CMU Serif Medium;font-family:CMU Serif;font-weight:500;font-style:normal;font-stretch:normal;font-variant:normal"><tspan
           style="fill:#000000;fill-opacity:1;fill-rule:nonzero;stroke:none;font-family:CMU Serif;font-variant:normal;font-weight:500;font-size:12;writing-mode:lr;-inkscape-font-specification:CMU Serif Medium;font-style:normal;font-stretch:normal"
           x="0 6.672 9.996"
           y="0"
           sodipodi:role="line"
           id="tspan44">0.6</tspan></text>
<g
         id="g46"
         transform="matrix(1,0,0,-1,0,384)"><path
           d="m 43.121,120.078 7.199,0 m 89.68,0 -7.199,0 0.008,0"
           style="fill:none;stroke:#000000;stroke-opacity:1;stroke-width:0.80000000000000004;stroke-linecap:butt;stroke-linejoin:miter;stroke-miterlimit:4;stroke-dasharray:none"
           id="path48" /></g><text
         transform="matrix(1,0,0,-1,19.7925,260.32)"
         id="text50"
         style="-inkscape-font-specification:CMU Serif Medium;font-family:CMU Serif;font-weight:500;font-style:normal;font-stretch:normal;font-variant:normal"><tspan
           style="fill:#000000;fill-opacity:1;fill-rule:nonzero;stroke:none;font-family:CMU Serif;font-variant:normal;font-weight:500;font-size:12;writing-mode:lr;-inkscape-font-specification:CMU Serif Medium;font-style:normal;font-stretch:normal"
           x="0 6.672 9.996"
           y="0"
           sodipodi:role="line"
           id="tspan52">0.8</tspan></text>
<g
         id="g54"
         transform="matrix(1,0,0,-1,0,384)"><path
           d="m 43.121,57.68 7.199,0 m 89.68,0 -7.199,0 0.008,0"
           style="fill:none;stroke:#000000;stroke-opacity:1;stroke-width:0.80000000000000004;stroke-linecap:butt;stroke-linejoin:miter;stroke-miterlimit:4;stroke-dasharray:none"
           id="path56" /></g><text
         transform="matrix(1,0,0,-1,29.800313,322.72)"
         id="text58"
         style="-inkscape-font-specification:CMU Serif Medium;font-family:CMU Serif;font-weight:500;font-style:normal;font-stretch:normal;font-variant:normal"><tspan
           style="fill:#000000;fill-opacity:1;fill-rule:nonzero;stroke:none;font-family:CMU Serif;font-variant:normal;font-weight:500;font-size:12;writing-mode:lr;-inkscape-font-specification:CMU Serif Medium;font-style:normal;font-stretch:normal"
           x="0"
           y="0"
           id="tspan60">1</tspan></text>
<g
         id="g62"
         transform="matrix(1,0,0,-1,0,384)"><path
           d="m 43.121,369.602 0,-7.204 m 0,-304.718 0,7.199 m 24.238,304.723 0,-7.204 m 0,-304.718 0,7.199 m 24.243,304.723 0,-7.204 m 0,-304.718 0,7.199 m 24.16,304.723 0,-7.204 m 0,-304.718 0,7.199 M 140,369.602 l 0,-7.204 m 0,-304.718 0,7.199 m -96.879,-7.199 0,311.922 96.879,0 0,-311.922 -96.879,0 z m 0,0 0.008,0"
           style="fill:none;stroke:#000000;stroke-opacity:1;stroke-width:0.80000000000000004;stroke-linecap:butt;stroke-linejoin:miter;stroke-miterlimit:4;stroke-dasharray:none"
           id="path64" /></g><text
         transform="matrix(1,0,0,-1,66.816875,344.32)"
         id="text66"
         style="-inkscape-font-specification:CMU Serif Medium;font-family:CMU Serif;font-weight:500;font-style:normal;font-stretch:normal;font-variant:normal"><tspan
           style="font-size:12px;font-variant:normal;font-weight:500;writing-mode:lr-tb;fill:#000000;fill-opacity:1;fill-rule:nonzero;stroke:none;font-family:CMU Serif;-inkscape-font-specification:CMU Serif Medium;font-style:normal;font-stretch:normal"
           x="0 7.9920001 11.988 18.66 24.66 27.360001 33.360001 36.023998 42.695999"
           y="0"
           sodipodi:role="line"
           id="tspan68">Precision</tspan><tspan
           style="font-size:12px;font-variant:normal;font-weight:500;writing-mode:lr-tb;fill:#000000;fill-opacity:1;fill-rule:nonzero;stroke:none;font-family:CMU Serif;-inkscape-font-specification:CMU Serif Medium;font-style:normal;font-stretch:normal"
           sodipodi:role="line"
           id="tspan70"
           x="0"
           y="0" /></text>
<path
         d="m 75.441,189.199 16.238,0 0,-174.801 -16.238,0 0,174.801 z"
         style="fill:#666666;fill-opacity:1;fill-rule:nonzero;stroke:none"
         id="path78" /><path
         d="m 91.602,326.398 16.16,0 0,-312 -16.16,0 0,312 z"
         style="fill:#b3b3b3;fill-opacity:1;fill-rule:nonzero;stroke:none"
         id="path94" /><g
         id="g100"
         transform="matrix(1,0,0,-1,0,384)"><path
           d="m 43.121,57.68 0,311.922 96.879,0 0,-311.922 -96.879,0 z m 0,0 0.008,0"
           style="fill:none;stroke:#000000;stroke-opacity:1;stroke-width:0.80000000000000004;stroke-linecap:butt;stroke-linejoin:miter;stroke-miterlimit:4;stroke-dasharray:none"
           id="path102" /></g><g
         id="g104"
         transform="matrix(1,0,0,-1,0,384)"><path
           d="m 203.121,369.602 7.199,0 m 89.68,0 -7.199,0 0.008,0"
           style="fill:none;stroke:#000000;stroke-opacity:1;stroke-width:0.80000000000000004;stroke-linecap:butt;stroke-linejoin:miter;stroke-miterlimit:4;stroke-dasharray:none"
           id="path106" /></g><text
         transform="matrix(1,0,0,-1,189.80031,10.8)"
         id="text108"
         style="-inkscape-font-specification:CMU Serif Medium;font-family:CMU Serif;font-weight:500;font-style:normal;font-stretch:normal;font-variant:normal"><tspan
           style="fill:#000000;fill-opacity:1;fill-rule:nonzero;stroke:none;font-family:CMU Serif;font-variant:normal;font-weight:500;font-size:12;writing-mode:lr;-inkscape-font-specification:CMU Serif Medium;font-style:normal;font-stretch:normal"
           x="0"
           y="0"
           id="tspan110">0</tspan></text>
<g
         id="g112"
         transform="matrix(1,0,0,-1,0,384)"><path
           d="m 203.121,307.199 7.199,0 m 89.68,0 -7.199,0 0.008,0"
           style="fill:none;stroke:#000000;stroke-opacity:1;stroke-width:0.80000000000000004;stroke-linecap:butt;stroke-linejoin:miter;stroke-miterlimit:4;stroke-dasharray:none"
           id="path114" /></g><text
         transform="matrix(1,0,0,-1,179.7925,73.2)"
         id="text116"
         style="-inkscape-font-specification:CMU Serif Medium;font-family:CMU Serif;font-weight:500;font-style:normal;font-stretch:normal;font-variant:normal"><tspan
           style="fill:#000000;fill-opacity:1;fill-rule:nonzero;stroke:none;font-family:CMU Serif;font-variant:normal;font-weight:500;font-size:12;writing-mode:lr;-inkscape-font-specification:CMU Serif Medium;font-style:normal;font-stretch:normal"
           x="0 6.672 9.996"
           y="0"
           sodipodi:role="line"
           id="tspan118">0.2</tspan></text>
<g
         id="g120"
         transform="matrix(1,0,0,-1,0,384)"><path
           d="m 203.121,244.801 7.199,0 m 89.68,0 -7.199,0 0.008,0"
           style="fill:none;stroke:#000000;stroke-opacity:1;stroke-width:0.80000000000000004;stroke-linecap:butt;stroke-linejoin:miter;stroke-miterlimit:4;stroke-dasharray:none"
           id="path122" /></g><text
         transform="matrix(1,0,0,-1,179.7925,135.6)"
         id="text124"
         style="-inkscape-font-specification:CMU Serif Medium;font-family:CMU Serif;font-weight:500;font-style:normal;font-stretch:normal;font-variant:normal"><tspan
           style="fill:#000000;fill-opacity:1;fill-rule:nonzero;stroke:none;font-family:CMU Serif;font-variant:normal;font-weight:500;font-size:12;writing-mode:lr;-inkscape-font-specification:CMU Serif Medium;font-style:normal;font-stretch:normal"
           x="0 6.672 9.996"
           y="0"
           sodipodi:role="line"
           id="tspan126">0.4</tspan></text>
<g
         id="g128"
         transform="matrix(1,0,0,-1,0,384)"><path
           d="m 203.121,182.48 7.199,0 m 89.68,0 -7.199,0 0.008,0"
           style="fill:none;stroke:#000000;stroke-opacity:1;stroke-width:0.80000000000000004;stroke-linecap:butt;stroke-linejoin:miter;stroke-miterlimit:4;stroke-dasharray:none"
           id="path130" /></g><text
         transform="matrix(1,0,0,-1,179.7925,197.92)"
         id="text132"
         style="-inkscape-font-specification:CMU Serif Medium;font-family:CMU Serif;font-weight:500;font-style:normal;font-stretch:normal;font-variant:normal"><tspan
           style="fill:#000000;fill-opacity:1;fill-rule:nonzero;stroke:none;font-family:CMU Serif;font-variant:normal;font-weight:500;font-size:12;writing-mode:lr;-inkscape-font-specification:CMU Serif Medium;font-style:normal;font-stretch:normal"
           x="0 6.672 9.996"
           y="0"
           sodipodi:role="line"
           id="tspan134">0.6</tspan></text>
<g
         id="g136"
         transform="matrix(1,0,0,-1,0,384)"><path
           d="m 203.121,120.078 7.199,0 m 89.68,0 -7.199,0 0.008,0"
           style="fill:none;stroke:#000000;stroke-opacity:1;stroke-width:0.80000000000000004;stroke-linecap:butt;stroke-linejoin:miter;stroke-miterlimit:4;stroke-dasharray:none"
           id="path138" /></g><text
         transform="matrix(1,0,0,-1,179.7925,260.32)"
         id="text140"
         style="-inkscape-font-specification:CMU Serif Medium;font-family:CMU Serif;font-weight:500;font-style:normal;font-stretch:normal;font-variant:normal"><tspan
           style="fill:#000000;fill-opacity:1;fill-rule:nonzero;stroke:none;font-family:CMU Serif;font-variant:normal;font-weight:500;font-size:12;writing-mode:lr;-inkscape-font-specification:CMU Serif Medium;font-style:normal;font-stretch:normal"
           x="0 6.672 9.996"
           y="0"
           sodipodi:role="line"
           id="tspan142">0.8</tspan></text>
<g
         id="g144"
         transform="matrix(1,0,0,-1,0,384)"><path
           d="m 203.121,57.68 7.199,0 m 89.68,0 -7.199,0 0.008,0"
           style="fill:none;stroke:#000000;stroke-opacity:1;stroke-width:0.80000000000000004;stroke-linecap:butt;stroke-linejoin:miter;stroke-miterlimit:4;stroke-dasharray:none"
           id="path146" /></g><text
         transform="matrix(1,0,0,-1,189.80031,322.72)"
         id="text148"
         style="-inkscape-font-specification:CMU Serif Medium;font-family:CMU Serif;font-weight:500;font-style:normal;font-stretch:normal;font-variant:normal"><tspan
           style="fill:#000000;fill-opacity:1;fill-rule:nonzero;stroke:none;font-family:CMU Serif;font-variant:normal;font-weight:500;font-size:12;writing-mode:lr;-inkscape-font-specification:CMU Serif Medium;font-style:normal;font-stretch:normal"
           x="0"
           y="0"
           id="tspan150">1</tspan></text>
<g
         id="g152"
         transform="matrix(1,0,0,-1,0,384)"><path
           d="m 203.121,369.602 0,-7.204 m 0,-304.718 0,7.199 m 24.238,304.723 0,-7.204 m 0,-304.718 0,7.199 m 24.243,304.723 0,-7.204 m 0,-304.718 0,7.199 m 24.16,304.723 0,-7.204 m 0,-304.718 0,7.199 M 300,369.602 l 0,-7.204 m 0,-304.718 0,7.199 m -96.879,-7.199 0,311.922 96.879,0 0,-311.922 -96.879,0 z m 0,0 0.008,0"
           style="fill:none;stroke:#000000;stroke-opacity:1;stroke-width:0.80000000000000004;stroke-linecap:butt;stroke-linejoin:miter;stroke-miterlimit:4;stroke-dasharray:none"
           id="path154" /></g><text
         transform="matrix(1,0,0,-1,234.8325,344.32)"
         id="text156"
         style="-inkscape-font-specification:CMU Serif Medium;font-family:CMU Serif;font-weight:500;font-style:normal;font-stretch:normal;font-variant:normal"><tspan
           style="fill:#000000;fill-opacity:1;fill-rule:nonzero;stroke:none;font-family:CMU Serif;font-variant:normal;font-weight:500;font-size:12;writing-mode:lr;-inkscape-font-specification:CMU Serif Medium;font-style:normal;font-stretch:normal"
           x="0 8.664 15.336 21.336 28.008 30.672"
           y="0"
           sodipodi:role="line"
           id="tspan158">Recall</tspan></text>
<path
         d="m 235.441,193.602 16.238,0 0,-179.203 -16.238,0 0,179.203 z"
         style="fill:#666666;fill-opacity:1;fill-rule:nonzero;stroke:none"
         id="path160" /><path
         d="m 251.602,326.398 16.16,0 0,-312 -16.16,0 0,312 z"
         style="fill:#b3b3b3;fill-opacity:1;fill-rule:nonzero;stroke:none"
         id="path166" /><g
         id="g172"
         transform="matrix(1,0,0,-1,0,384)"><path
           d="m 203.121,57.68 0,311.922 96.879,0 0,-311.922 -96.879,0 z m 0,0 0.008,0"
           style="fill:none;stroke:#000000;stroke-opacity:1;stroke-width:0.80000000000000004;stroke-linecap:butt;stroke-linejoin:miter;stroke-miterlimit:4;stroke-dasharray:none"
           id="path174" /></g><g
         id="g176"
         transform="matrix(1,0,0,-1,0,384)"><path
           d="m 363.121,369.602 7.199,0 m 89.68,0 -7.199,0 0.008,0"
           style="fill:none;stroke:#000000;stroke-opacity:1;stroke-width:0.80000000000000004;stroke-linecap:butt;stroke-linejoin:miter;stroke-miterlimit:4;stroke-dasharray:none"
           id="path178" /></g><text
         transform="matrix(1,0,0,-1,349.80031,10.8)"
         id="text180"
         style="-inkscape-font-specification:CMU Serif Medium;font-family:CMU Serif;font-weight:500;font-style:normal;font-stretch:normal;font-variant:normal"><tspan
           style="fill:#000000;fill-opacity:1;fill-rule:nonzero;stroke:none;font-family:CMU Serif;font-variant:normal;font-weight:500;font-size:12;writing-mode:lr;-inkscape-font-specification:CMU Serif Medium;font-style:normal;font-stretch:normal"
           x="0"
           y="0"
           id="tspan182">0</tspan></text>
<g
         id="g184"
         transform="matrix(1,0,0,-1,0,384)"><path
           d="m 363.121,307.199 7.199,0 m 89.68,0 -7.199,0 0.008,0"
           style="fill:none;stroke:#000000;stroke-opacity:1;stroke-width:0.80000000000000004;stroke-linecap:butt;stroke-linejoin:miter;stroke-miterlimit:4;stroke-dasharray:none"
           id="path186" /></g><text
         transform="matrix(1,0,0,-1,339.7925,73.2)"
         id="text188"
         style="-inkscape-font-specification:CMU Serif Medium;font-family:CMU Serif;font-weight:500;font-style:normal;font-stretch:normal;font-variant:normal"><tspan
           style="fill:#000000;fill-opacity:1;fill-rule:nonzero;stroke:none;font-family:CMU Serif;font-variant:normal;font-weight:500;font-size:12;writing-mode:lr;-inkscape-font-specification:CMU Serif Medium;font-style:normal;font-stretch:normal"
           x="0 6.672 9.996"
           y="0"
           sodipodi:role="line"
           id="tspan190">0.2</tspan></text>
<g
         id="g192"
         transform="matrix(1,0,0,-1,0,384)"><path
           d="m 363.121,244.801 7.199,0 m 89.68,0 -7.199,0 0.008,0"
           style="fill:none;stroke:#000000;stroke-opacity:1;stroke-width:0.80000000000000004;stroke-linecap:butt;stroke-linejoin:miter;stroke-miterlimit:4;stroke-dasharray:none"
           id="path194" /></g><text
         transform="matrix(1,0,0,-1,339.7925,135.6)"
         id="text196"
         style="-inkscape-font-specification:CMU Serif Medium;font-family:CMU Serif;font-weight:500;font-style:normal;font-stretch:normal;font-variant:normal"><tspan
           style="fill:#000000;fill-opacity:1;fill-rule:nonzero;stroke:none;font-family:CMU Serif;font-variant:normal;font-weight:500;font-size:12;writing-mode:lr;-inkscape-font-specification:CMU Serif Medium;font-style:normal;font-stretch:normal"
           x="0 6.672 9.996"
           y="0"
           sodipodi:role="line"
           id="tspan198">0.4</tspan></text>
<g
         id="g200"
         transform="matrix(1,0,0,-1,0,384)"><path
           d="m 363.121,182.48 7.199,0 m 89.68,0 -7.199,0 0.008,0"
           style="fill:none;stroke:#000000;stroke-opacity:1;stroke-width:0.80000000000000004;stroke-linecap:butt;stroke-linejoin:miter;stroke-miterlimit:4;stroke-dasharray:none"
           id="path202" /></g><text
         transform="matrix(1,0,0,-1,339.7925,197.92)"
         id="text204"
         style="-inkscape-font-specification:CMU Serif Medium;font-family:CMU Serif;font-weight:500;font-style:normal;font-stretch:normal;font-variant:normal"><tspan
           style="fill:#000000;fill-opacity:1;fill-rule:nonzero;stroke:none;font-family:CMU Serif;font-variant:normal;font-weight:500;font-size:12;writing-mode:lr;-inkscape-font-specification:CMU Serif Medium;font-style:normal;font-stretch:normal"
           x="0 6.672 9.996"
           y="0"
           sodipodi:role="line"
           id="tspan206">0.6</tspan></text>
<g
         id="g208"
         transform="matrix(1,0,0,-1,0,384)"><path
           d="m 363.121,120.078 7.199,0 m 89.68,0 -7.199,0 0.008,0"
           style="fill:none;stroke:#000000;stroke-opacity:1;stroke-width:0.80000000000000004;stroke-linecap:butt;stroke-linejoin:miter;stroke-miterlimit:4;stroke-dasharray:none"
           id="path210" /></g><text
         transform="matrix(1,0,0,-1,339.7925,260.32)"
         id="text212"
         style="-inkscape-font-specification:CMU Serif Medium;font-family:CMU Serif;font-weight:500;font-style:normal;font-stretch:normal;font-variant:normal"><tspan
           style="fill:#000000;fill-opacity:1;fill-rule:nonzero;stroke:none;font-family:CMU Serif;font-variant:normal;font-weight:500;font-size:12;writing-mode:lr;-inkscape-font-specification:CMU Serif Medium;font-style:normal;font-stretch:normal"
           x="0 6.672 9.996"
           y="0"
           sodipodi:role="line"
           id="tspan214">0.8</tspan></text>
<g
         id="g216"
         transform="matrix(1,0,0,-1,0,384)"><path
           d="m 363.121,57.68 7.199,0 m 89.68,0 -7.199,0 0.008,0"
           style="fill:none;stroke:#000000;stroke-opacity:1;stroke-width:0.80000000000000004;stroke-linecap:butt;stroke-linejoin:miter;stroke-miterlimit:4;stroke-dasharray:none"
           id="path218" /></g><text
         transform="matrix(1,0,0,-1,349.80031,322.72)"
         id="text220"
         style="-inkscape-font-specification:CMU Serif Medium;font-family:CMU Serif;font-weight:500;font-style:normal;font-stretch:normal;font-variant:normal"><tspan
           style="fill:#000000;fill-opacity:1;fill-rule:nonzero;stroke:none;font-family:CMU Serif;font-variant:normal;font-weight:500;font-size:12;writing-mode:lr;-inkscape-font-specification:CMU Serif Medium;font-style:normal;font-stretch:normal"
           x="0"
           y="0"
           id="tspan222">1</tspan></text>
<g
         id="g224"
         transform="matrix(1,0,0,-1,0,384)"><path
           d="m 363.121,369.602 0,-7.204 m 0,-304.718 0,7.199 m 24.238,304.723 0,-7.204 m 0,-304.718 0,7.199 m 24.243,304.723 0,-7.204 m 0,-304.718 0,7.199 m 24.16,304.723 0,-7.204 m 0,-304.718 0,7.199 M 460,369.602 l 0,-7.204 m 0,-304.718 0,7.199 m -96.879,-7.199 0,311.922 96.879,0 0,-311.922 -96.879,0 z m 0,0 0.008,0"
           style="fill:none;stroke:#000000;stroke-opacity:1;stroke-width:0.80000000000000004;stroke-linecap:butt;stroke-linejoin:miter;stroke-miterlimit:4;stroke-dasharray:none"
           id="path226" /></g><text
         transform="matrix(1,0,0,-1,399.50828,344.32)"
         id="text228"
         style="-inkscape-font-specification:CMU Serif Medium;font-family:CMU Serif;font-weight:500;font-style:normal;font-stretch:normal;font-variant:normal"><tspan
           style="fill:#000000;fill-opacity:1;fill-rule:nonzero;stroke:none;font-family:CMU Serif;font-variant:normal;font-weight:500;font-size:12;writing-mode:lr;-inkscape-font-specification:CMU Serif Medium;font-style:normal;font-stretch:normal"
           x="0 7.32 13.992 17.316"
           y="0"
           sodipodi:role="line"
           id="tspan230">F0.5</tspan></text>
<path
         d="m 395.441,190.078 16.238,0 0,-175.68 -16.238,0 0,175.68 z"
         style="fill:#666666;fill-opacity:1;fill-rule:nonzero;stroke:none"
         id="path232" /><path
         d="m 411.602,326.398 16.16,0 0,-312 -16.16,0 0,312 z"
         style="fill:#b3b3b3;fill-opacity:1;fill-rule:nonzero;stroke:none"
         id="path238" /><g
         id="g244"
         transform="matrix(1,0,0,-1,0,384)"><path
           d="m 363.121,57.68 0,311.922 96.879,0 0,-311.922 -96.879,0 z m 0,0 0.008,0"
           style="fill:none;stroke:#000000;stroke-opacity:1;stroke-width:0.80000000000000004;stroke-linecap:butt;stroke-linejoin:miter;stroke-miterlimit:4;stroke-dasharray:none"
           id="path246" /></g><flowRoot
         xml:space="preserve"
         id="flowRoot4355"
         style="fill:black;stroke:none;stroke-opacity:1;stroke-width:1px;stroke-linejoin:miter;stroke-linecap:butt;fill-opacity:1;font-family:CMU Serif;font-style:italic;font-weight:bold;font-size:40px;line-height:125%;letter-spacing:0px;word-spacing:0px;-inkscape-font-specification:Sans Bold;font-stretch:normal;font-variant:normal"><flowRegion
           id="flowRegion4357"><rect
             id="rect4359"
             width="174.02017"
             height="54.29142"
             x="23.730024"
             y="76.949135" /></flowRegion><flowPara
           id="flowPara4361"></flowPara></flowRoot><flowRoot
         xml:space="preserve"
         id="flowRoot4371"
         style="fill:black;stroke:none;stroke-opacity:1;stroke-width:1px;stroke-linejoin:miter;stroke-linecap:butt;fill-opacity:1;font-family:CMU Serif;font-style:italic;font-weight:bold;font-size:15px;line-height:125%;letter-spacing:0px;word-spacing:0px;-inkscape-font-specification:Sans Bold;font-stretch:normal;font-variant:normal"><flowRegion
           id="flowRegion4373"><rect
             id="rect4375"
             width="669.66046"
             height="473.92639"
             x="-35.815174"
             y="7.7394319" /></flowRegion><flowPara
           id="flowPara4377"></flowPara></flowRoot><path
         inkscape:connector-curvature="0"
         d="m 92.14171,-3.0058675 18.26585,0 0,-7.1989995 -18.26585,0 0,7.1989995 z"
         style="fill:#666666;fill-opacity:1;fill-rule:nonzero;stroke:none"
         id="path72" /><text
         y="24.605793"
         x="42.656944"
         id="text84"
         style="font-size:12px;font-style:normal;font-variant:normal;font-weight:500;font-stretch:normal;font-family:CMU Serif;-inkscape-font-specification:CMU Serif Medium"
         transform="scale(1,-1)"><tspan
           style="font-size:12px;font-style:normal;font-variant:normal;font-weight:500;font-stretch:normal;writing-mode:lr-tb;fill:#000000;fill-opacity:1;fill-rule:nonzero;stroke:none;font-family:CMU Serif;-inkscape-font-specification:CMU Serif Medium"
           x="42.656944 52.652893 59.97287"
           y="24.605793"
           sodipodi:role="line"
           id="tspan86">MFM</tspan></text>
<path
         inkscape:connector-curvature="0"
         d="m 92.14171,-17.404868 18.26585,0 0,-7.199 -18.26585,0 0,7.199001 z"
         style="fill:#b3b3b3;fill-opacity:1;fill-rule:nonzero;stroke:none"
         id="path88" /><text
         xml:space="preserve"
         style="font-size:12px;font-style:normal;font-variant:normal;font-weight:500;font-stretch:normal;line-height:125%;letter-spacing:0px;word-spacing:0px;fill:#000000;fill-opacity:1;stroke:none;font-family:CMU Serif;-inkscape-font-specification:CMU Serif Medium"
         x="41.759705"
         y="10.383471"
         id="text4367"
         sodipodi:linespacing="125%"
         transform="scale(1,-1)"><tspan
           sodipodi:role="line"
           id="tspan4369"
           x="41.759705"
           y="10.383471"
           style="font-style:normal;font-variant:normal;font-weight:500;font-stretch:normal;font-family:CMU Serif;-inkscape-font-specification:CMU Serif Medium">Baseline</tspan></text>
</g></g></svg>