<?xml version="1.0" encoding="UTF-8" standalone="no"?>
<!-- Created with Inkscape (http://www.inkscape.org/) -->

<svg
   xmlns:dc="http://purl.org/dc/elements/1.1/"
   xmlns:cc="http://creativecommons.org/ns#"
   xmlns:rdf="http://www.w3.org/1999/02/22-rdf-syntax-ns#"
   xmlns:svg="http://www.w3.org/2000/svg"
   xmlns="http://www.w3.org/2000/svg"
   xmlns:sodipodi="http://sodipodi.sourceforge.net/DTD/sodipodi-0.dtd"
   xmlns:inkscape="http://www.inkscape.org/namespaces/inkscape"
   id="svg2"
   version="1.1"
   inkscape:version="0.48.4 r9939"
   width="600"
   height="480"
   xml:space="preserve"
   sodipodi:docname="graph_weight.pdf"><metadata
     id="metadata8"><rdf:RDF><cc:Work
         rdf:about=""><dc:format>image/svg+xml</dc:format><dc:type
           rdf:resource="http://purl.org/dc/dcmitype/StillImage" /><dc:title></dc:title></cc:Work></rdf:RDF></metadata><defs
     id="defs6" /><sodipodi:namedview
     pagecolor="#ffffff"
     bordercolor="#666666"
     borderopacity="1"
     objecttolerance="10"
     gridtolerance="10"
     guidetolerance="10"
     inkscape:pageopacity="0"
     inkscape:pageshadow="2"
     inkscape:window-width="1920"
     inkscape:window-height="1014"
     id="namedview4"
     showgrid="false"
     inkscape:zoom="1.3906433"
     inkscape:cx="16.862014"
     inkscape:cy="223.02928"
     inkscape:window-x="0"
     inkscape:window-y="27"
     inkscape:window-maximized="1"
     inkscape:current-layer="g12" /><g
     id="g10"
     inkscape:groupmode="layer"
     inkscape:label="graph_weight"
     transform="matrix(1.25,0,0,-1.25,0,480)"><g
       id="g12"><text
         transform="matrix(1,0,0,-1,197.01172,369.04)"
         id="text14"><tspan
           style="fill:#000000;fill-opacity:1;fill-rule:nonzero;stroke:none;font-family:CMU Serif;font-variant:normal;font-weight:normal;font-size:10;writing-mode:lr;-inkscape-font-specification:CMU Serif"
           x="0 7.7"
           y="0"
           sodipodi:role="line"
           id="tspan16">Di</tspan></text>
<text
         transform="matrix(1,0,0,-1,207.48172,369.04)"
         id="text18"><tspan
           style="fill:#000000;fill-opacity:1;fill-rule:nonzero;stroke:none;font-family:CMU Serif;font-variant:normal;font-weight:normal;font-size:10;writing-mode:lr;-inkscape-font-specification:CMU Serif"
           x="0"
           y="0"
           id="tspan20">ﬀ</tspan></text>
<text
         transform="matrix(1,0,0,-1,214.36172,369.04)"
         id="text22"
         style="-inkscape-font-specification:CMU Serif Medium;font-family:CMU Serif;font-weight:500;font-style:normal;font-stretch:normal;font-variant:normal"><tspan
           style="fill:#000000;fill-opacity:1;fill-rule:nonzero;stroke:none;font-family:CMU Serif;font-variant:normal;font-weight:500;font-size:10;writing-mode:lr;-inkscape-font-specification:CMU Serif Medium;font-style:normal;font-stretch:normal"
           x="0 6.15 10.05 16.2 22.53 26.45 29.62 37.79 43.94 46.71 53.05 59.41 63.33"
           y="0"
           sodipodi:role="line"
           id="tspan24">erent weights</tspan></text>
<g
         id="g26"
         transform="matrix(1,0,0,-1,0,384)"><path
           d="m 47.602,112 6,0 m 409.519,0 -6,0 0.008,0"
           style="fill:none;stroke:#000000;stroke-opacity:1;stroke-width:0.8;stroke-linecap:butt;stroke-linejoin:miter;stroke-miterlimit:4;stroke-dasharray:none"
           id="path28" /></g><text
         transform="matrix(1,0,0,-1,19.714844,269.04)"
         id="text30"
         style="-inkscape-font-specification:CMU Serif Medium;font-family:CMU Serif;font-weight:500;font-style:normal;font-stretch:normal;font-variant:normal"><tspan
           style="fill:#000000;fill-opacity:1;fill-rule:nonzero;stroke:none;font-family:CMU Serif;font-variant:normal;font-weight:500;font-size:10;writing-mode:lr;-inkscape-font-specification:CMU Serif Medium;font-style:normal;font-stretch:normal"
           x="0 6.36 9.53 15.89"
           y="0"
           sodipodi:role="line"
           id="tspan32">0.99</tspan></text>
<g
         id="g34"
         transform="matrix(1,0,0,-1,0,384)"><path
           d="m 47.602,101.359 6,0 m 409.519,0 -6,0 0.008,0"
           style="fill:none;stroke:#000000;stroke-opacity:1;stroke-width:0.8;stroke-linecap:butt;stroke-linejoin:miter;stroke-miterlimit:4;stroke-dasharray:none"
           id="path36" /></g><text
         transform="matrix(1,0,0,-1,13.347656,279.68)"
         id="text38"
         style="-inkscape-font-specification:CMU Serif Medium;font-family:CMU Serif;font-weight:500;font-style:normal;font-stretch:normal;font-variant:normal"><tspan
           style="fill:#000000;fill-opacity:1;fill-rule:nonzero;stroke:none;font-family:CMU Serif;font-variant:normal;font-weight:500;font-size:10;writing-mode:lr;-inkscape-font-specification:CMU Serif Medium;font-style:normal;font-stretch:normal"
           x="0 6.36 9.53 15.89 22.25"
           y="0"
           sodipodi:role="line"
           id="tspan40">0.991</tspan></text>
<g
         id="g42"
         transform="matrix(1,0,0,-1,0,384)"><path
           d="m 47.602,90.719 6,0 m 409.519,0 -6,0 0.008,0"
           style="fill:none;stroke:#000000;stroke-opacity:1;stroke-width:0.8;stroke-linecap:butt;stroke-linejoin:miter;stroke-miterlimit:4;stroke-dasharray:none"
           id="path44" /></g><text
         transform="matrix(1,0,0,-1,13.347656,290.32)"
         id="text46"
         style="-inkscape-font-specification:CMU Serif Medium;font-family:CMU Serif;font-weight:500;font-style:normal;font-stretch:normal;font-variant:normal"><tspan
           style="fill:#000000;fill-opacity:1;fill-rule:nonzero;stroke:none;font-family:CMU Serif;font-variant:normal;font-weight:500;font-size:10;writing-mode:lr;-inkscape-font-specification:CMU Serif Medium;font-style:normal;font-stretch:normal"
           x="0 6.36 9.53 15.89 22.25"
           y="0"
           sodipodi:role="line"
           id="tspan48">0.992</tspan></text>
<g
         id="g50"
         transform="matrix(1,0,0,-1,0,384)"><path
           d="m 47.602,80 6,0 m 409.519,0 -6,0 0.008,0"
           style="fill:none;stroke:#000000;stroke-opacity:1;stroke-width:0.8;stroke-linecap:butt;stroke-linejoin:miter;stroke-miterlimit:4;stroke-dasharray:none"
           id="path52" /></g><text
         transform="matrix(1,0,0,-1,13.347656,301.04)"
         id="text54"
         style="-inkscape-font-specification:CMU Serif Medium;font-family:CMU Serif;font-weight:500;font-style:normal;font-stretch:normal;font-variant:normal"><tspan
           style="fill:#000000;fill-opacity:1;fill-rule:nonzero;stroke:none;font-family:CMU Serif;font-variant:normal;font-weight:500;font-size:10;writing-mode:lr;-inkscape-font-specification:CMU Serif Medium;font-style:normal;font-stretch:normal"
           x="0 6.36 9.53 15.89 22.25"
           y="0"
           sodipodi:role="line"
           id="tspan56">0.993</tspan></text>
<g
         id="g58"
         transform="matrix(1,0,0,-1,0,384)"><path
           d="m 47.602,69.359 6,0 m 409.519,0 -6,0 0.008,0"
           style="fill:none;stroke:#000000;stroke-opacity:1;stroke-width:0.8;stroke-linecap:butt;stroke-linejoin:miter;stroke-miterlimit:4;stroke-dasharray:none"
           id="path60" /></g><text
         transform="matrix(1,0,0,-1,13.347656,311.68)"
         id="text62"
         style="-inkscape-font-specification:CMU Serif Medium;font-family:CMU Serif;font-weight:500;font-style:normal;font-stretch:normal;font-variant:normal"><tspan
           style="fill:#000000;fill-opacity:1;fill-rule:nonzero;stroke:none;font-family:CMU Serif;font-variant:normal;font-weight:500;font-size:10;writing-mode:lr;-inkscape-font-specification:CMU Serif Medium;font-style:normal;font-stretch:normal"
           x="0 6.36 9.53 15.89 22.25"
           y="0"
           sodipodi:role="line"
           id="tspan64">0.994</tspan></text>
<g
         id="g66"
         transform="matrix(1,0,0,-1,0,384)"><path
           d="m 47.602,58.719 6,0 m 409.519,0 -6,0 0.008,0"
           style="fill:none;stroke:#000000;stroke-opacity:1;stroke-width:0.8;stroke-linecap:butt;stroke-linejoin:miter;stroke-miterlimit:4;stroke-dasharray:none"
           id="path68" /></g><text
         transform="matrix(1,0,0,-1,13.347656,322.32)"
         id="text70"
         style="-inkscape-font-specification:CMU Serif Medium;font-family:CMU Serif;font-weight:500;font-style:normal;font-stretch:normal;font-variant:normal"><tspan
           style="fill:#000000;fill-opacity:1;fill-rule:nonzero;stroke:none;font-family:CMU Serif;font-variant:normal;font-weight:500;font-size:10;writing-mode:lr;-inkscape-font-specification:CMU Serif Medium;font-style:normal;font-stretch:normal"
           x="0 6.36 9.53 15.89 22.25"
           y="0"
           sodipodi:role="line"
           id="tspan72">0.995</tspan></text>
<g
         id="g74"
         transform="matrix(1,0,0,-1,0,384)"><path
           d="m 47.602,48.078 6,0 m 409.519,0 -6,0 0.008,0"
           style="fill:none;stroke:#000000;stroke-opacity:1;stroke-width:0.8;stroke-linecap:butt;stroke-linejoin:miter;stroke-miterlimit:4;stroke-dasharray:none"
           id="path76" /></g><text
         transform="matrix(1,0,0,-1,13.347656,332.96)"
         id="text78"
         style="-inkscape-font-specification:CMU Serif Medium;font-family:CMU Serif;font-weight:500;font-style:normal;font-stretch:normal;font-variant:normal"><tspan
           style="fill:#000000;fill-opacity:1;fill-rule:nonzero;stroke:none;font-family:CMU Serif;font-variant:normal;font-weight:500;font-size:10;writing-mode:lr;-inkscape-font-specification:CMU Serif Medium;font-style:normal;font-stretch:normal"
           x="0 6.36 9.53 15.89 22.25"
           y="0"
           sodipodi:role="line"
           id="tspan80">0.996</tspan></text>
<g
         id="g82"
         transform="matrix(1,0,0,-1,0,384)"><path
           d="m 47.602,112 0,-6 m 0,-57.922 0,6 0.007,0"
           style="fill:none;stroke:#000000;stroke-opacity:1;stroke-width:0.8;stroke-linecap:butt;stroke-linejoin:miter;stroke-miterlimit:4;stroke-dasharray:none"
           id="path84" /></g><text
         transform="matrix(1,0,0,-1,44.416406,257.04)"
         id="text86"
         style="-inkscape-font-specification:CMU Serif Medium;font-family:CMU Serif;font-weight:500;font-style:normal;font-stretch:normal;font-variant:normal"><tspan
           style="fill:#000000;fill-opacity:1;fill-rule:nonzero;stroke:none;font-family:CMU Serif;font-variant:normal;font-weight:500;font-size:10;writing-mode:lr;-inkscape-font-specification:CMU Serif Medium;font-style:normal;font-stretch:normal"
           x="0"
           y="0"
           id="tspan88">0</tspan></text>
<g
         id="g90"
         transform="matrix(1,0,0,-1,0,384)"><path
           d="m 130.719,112 0,-6 m 0,-57.922 0,6 0.008,0"
           style="fill:none;stroke:#000000;stroke-opacity:1;stroke-width:0.8;stroke-linecap:butt;stroke-linejoin:miter;stroke-miterlimit:4;stroke-dasharray:none"
           id="path92" /></g><text
         transform="matrix(1,0,0,-1,124.35281,257.04)"
         id="text94"
         style="-inkscape-font-specification:CMU Serif Medium;font-family:CMU Serif;font-weight:500;font-style:normal;font-stretch:normal;font-variant:normal"><tspan
           style="fill:#000000;fill-opacity:1;fill-rule:nonzero;stroke:none;font-family:CMU Serif;font-variant:normal;font-weight:500;font-size:10;writing-mode:lr;-inkscape-font-specification:CMU Serif Medium;font-style:normal;font-stretch:normal"
           x="0 6.36"
           y="0"
           sodipodi:role="line"
           id="tspan96">10</tspan></text>
<g
         id="g98"
         transform="matrix(1,0,0,-1,0,384)"><path
           d="m 213.84,112 0,-6 m 0,-57.922 0,6 0.008,0"
           style="fill:none;stroke:#000000;stroke-opacity:1;stroke-width:0.8;stroke-linecap:butt;stroke-linejoin:miter;stroke-miterlimit:4;stroke-dasharray:none"
           id="path100" /></g><text
         transform="matrix(1,0,0,-1,207.47281,257.04)"
         id="text102"
         style="-inkscape-font-specification:CMU Serif Medium;font-family:CMU Serif;font-weight:500;font-style:normal;font-stretch:normal;font-variant:normal"><tspan
           style="fill:#000000;fill-opacity:1;fill-rule:nonzero;stroke:none;font-family:CMU Serif;font-variant:normal;font-weight:500;font-size:10;writing-mode:lr;-inkscape-font-specification:CMU Serif Medium;font-style:normal;font-stretch:normal"
           x="0 6.36"
           y="0"
           sodipodi:role="line"
           id="tspan104">20</tspan></text>
<g
         id="g106"
         transform="matrix(1,0,0,-1,0,384)"><path
           d="m 296.879,112 0,-6 m 0,-57.922 0,6 0.008,0"
           style="fill:none;stroke:#000000;stroke-opacity:1;stroke-width:0.8;stroke-linecap:butt;stroke-linejoin:miter;stroke-miterlimit:4;stroke-dasharray:none"
           id="path108" /></g><text
         transform="matrix(1,0,0,-1,290.51281,257.04)"
         id="text110"
         style="-inkscape-font-specification:CMU Serif Medium;font-family:CMU Serif;font-weight:500;font-style:normal;font-stretch:normal;font-variant:normal"><tspan
           style="fill:#000000;fill-opacity:1;fill-rule:nonzero;stroke:none;font-family:CMU Serif;font-variant:normal;font-weight:500;font-size:10;writing-mode:lr;-inkscape-font-specification:CMU Serif Medium;font-style:normal;font-stretch:normal"
           x="0 6.36"
           y="0"
           sodipodi:role="line"
           id="tspan112">30</tspan></text>
<g
         id="g114"
         transform="matrix(1,0,0,-1,0,384)"><path
           d="m 380,112 0,-6 m 0,-57.922 0,6 0.008,0"
           style="fill:none;stroke:#000000;stroke-opacity:1;stroke-width:0.8;stroke-linecap:butt;stroke-linejoin:miter;stroke-miterlimit:4;stroke-dasharray:none"
           id="path116" /></g><text
         transform="matrix(1,0,0,-1,373.63281,257.04)"
         id="text118"
         style="-inkscape-font-specification:CMU Serif Medium;font-family:CMU Serif;font-weight:500;font-style:normal;font-stretch:normal;font-variant:normal"><tspan
           style="fill:#000000;fill-opacity:1;fill-rule:nonzero;stroke:none;font-family:CMU Serif;font-variant:normal;font-weight:500;font-size:10;writing-mode:lr;-inkscape-font-specification:CMU Serif Medium;font-style:normal;font-stretch:normal"
           x="0 6.36"
           y="0"
           sodipodi:role="line"
           id="tspan120">40</tspan></text>
<g
         id="g122"
         transform="matrix(1,0,0,-1,0,384)"><path
           d="m 463.121,112 0,-6 m 0,-57.922 0,6 0.008,0"
           style="fill:none;stroke:#000000;stroke-opacity:1;stroke-width:0.8;stroke-linecap:butt;stroke-linejoin:miter;stroke-miterlimit:4;stroke-dasharray:none"
           id="path124" /></g><text
         transform="matrix(1,0,0,-1,456.75281,257.04)"
         id="text126"
         style="-inkscape-font-specification:CMU Serif Medium;font-family:CMU Serif;font-weight:500;font-style:normal;font-stretch:normal;font-variant:normal"><tspan
           style="fill:#000000;fill-opacity:1;fill-rule:nonzero;stroke:none;font-family:CMU Serif;font-variant:normal;font-weight:500;font-size:10;writing-mode:lr;-inkscape-font-specification:CMU Serif Medium;font-style:normal;font-stretch:normal"
           x="0 6.36"
           y="0"
           sodipodi:role="line"
           id="tspan128">50</tspan></text>
<g
         id="g130"
         transform="matrix(1,0,0,-1,0,384)"><path
           d="m 47.602,48.078 0,63.922 415.519,0 0,-63.922 -415.519,0 z m 0,0 0.007,0"
           style="fill:none;stroke:#000000;stroke-opacity:1;stroke-width:0.8;stroke-linecap:butt;stroke-linejoin:miter;stroke-miterlimit:4;stroke-dasharray:none"
           id="path132" /></g><text
         transform="matrix(1,0,0,-1,233.03578,350.96)"
         id="text134"
         style="-inkscape-font-specification:CMU Serif Medium;font-family:CMU Serif;font-weight:500;font-style:normal;font-stretch:normal;font-variant:normal"><tspan
           style="fill:#000000;fill-opacity:1;fill-rule:nonzero;stroke:none;font-family:CMU Serif;font-variant:normal;font-weight:500;font-size:10;writing-mode:lr;-inkscape-font-specification:CMU Serif Medium;font-style:normal;font-stretch:normal"
           x="0 5.86 9.76 15.91 21.4 24.17 29.37 32.14 38.25"
           y="0"
           sodipodi:role="line"
           id="tspan136">Precision</tspan></text>
<g
         id="g138"
         transform="matrix(1,0,0,-1,0,384)"><path
           d="m 47.602,49.281 20.796,4.239 62.321,0 83.121,29.281 108,23.597 141.281,0.243 0.008,0"
           style="fill:none;stroke:#ff0000;stroke-opacity:1;stroke-width:0.8;stroke-linecap:butt;stroke-linejoin:miter;stroke-miterlimit:4;stroke-dasharray:none"
           id="path140" /></g><g
         id="g142"
         transform="matrix(1,0,0,-1,0,384)"><path
           d="m 47.602,48.078 0,63.922 415.519,0 0,-63.922 -415.519,0 z m 0,0 0.007,0"
           style="fill:none;stroke:#000000;stroke-opacity:1;stroke-width:0.8;stroke-linecap:butt;stroke-linejoin:miter;stroke-miterlimit:4;stroke-dasharray:none"
           id="path144" /></g><g
         id="g146"
         transform="matrix(1,0,0,-1,0,384)"><path
           d="m 47.602,236 6,0 m 409.519,0 -6,0 0.008,0"
           style="fill:none;stroke:#000000;stroke-opacity:1;stroke-width:0.8;stroke-linecap:butt;stroke-linejoin:miter;stroke-miterlimit:4;stroke-dasharray:none"
           id="path148" /></g><g
         id="g162"
         transform="matrix(1,0,0,-1,0,384)"><path
           d="m 47.602,221.762 6,0 m 409.519,0 -6,0 0.008,0"
           style="fill:none;stroke:#000000;stroke-opacity:1;stroke-width:0.8;stroke-linecap:butt;stroke-linejoin:miter;stroke-miterlimit:4;stroke-dasharray:none"
           id="path164" /></g><text
         transform="matrix(1,0,0,-1,19.714844,159.28)"
         id="text166"
         style="-inkscape-font-specification:CMU Serif Medium;font-family:CMU Serif;font-weight:500;font-style:normal;font-stretch:normal;font-variant:normal"><tspan
           style="fill:#000000;fill-opacity:1;fill-rule:nonzero;stroke:none;font-family:CMU Serif;font-variant:normal;font-weight:500;font-size:10;writing-mode:lr;-inkscape-font-specification:CMU Serif Medium;font-style:normal;font-stretch:normal"
           x="0 6.36 9.53 15.89"
           y="0"
           sodipodi:role="line"
           id="tspan168">0.85</tspan></text>
<g
         id="g178"
         transform="matrix(1,0,0,-1,0,384)"><path
           d="m 47.602,207.602 6,0 m 409.519,0 -6,0 0.008,0"
           style="fill:none;stroke:#000000;stroke-opacity:1;stroke-width:0.8;stroke-linecap:butt;stroke-linejoin:miter;stroke-miterlimit:4;stroke-dasharray:none"
           id="path180" /></g><text
         transform="matrix(1,0,0,-1,19.714844,173.44)"
         id="text182"
         style="-inkscape-font-specification:CMU Serif Medium;font-family:CMU Serif;font-weight:500;font-style:normal;font-stretch:normal;font-variant:normal"><tspan
           style="fill:#000000;fill-opacity:1;fill-rule:nonzero;stroke:none;font-family:CMU Serif;font-variant:normal;font-weight:500;font-size:10;writing-mode:lr;-inkscape-font-specification:CMU Serif Medium;font-style:normal;font-stretch:normal"
           x="0 6.36 9.53 15.89"
           y="0"
           sodipodi:role="line"
           id="tspan184">0.86</tspan></text>
<g
         id="g194"
         transform="matrix(1,0,0,-1,0,384)"><path
           d="m 47.602,193.359 6,0 m 409.519,0 -6,0 0.008,0"
           style="fill:none;stroke:#000000;stroke-opacity:1;stroke-width:0.8;stroke-linecap:butt;stroke-linejoin:miter;stroke-miterlimit:4;stroke-dasharray:none"
           id="path196" /></g><text
         transform="matrix(1,0,0,-1,19.714844,187.68)"
         id="text198"
         style="-inkscape-font-specification:CMU Serif Medium;font-family:CMU Serif;font-weight:500;font-style:normal;font-stretch:normal;font-variant:normal"><tspan
           style="fill:#000000;fill-opacity:1;fill-rule:nonzero;stroke:none;font-family:CMU Serif;font-variant:normal;font-weight:500;font-size:10;writing-mode:lr;-inkscape-font-specification:CMU Serif Medium;font-style:normal;font-stretch:normal"
           x="0 6.36 9.53 15.89"
           y="0"
           sodipodi:role="line"
           id="tspan200">0.87</tspan></text>
<g
         id="g202"
         transform="matrix(1,0,0,-1,0,384)" /><g
         id="g210"
         transform="matrix(1,0,0,-1,0,384)"><path
           d="m 47.602,179.199 6,0 m 409.519,0 -6,0 0.008,0"
           style="fill:none;stroke:#000000;stroke-opacity:1;stroke-width:0.8;stroke-linecap:butt;stroke-linejoin:miter;stroke-miterlimit:4;stroke-dasharray:none"
           id="path212" /></g><text
         transform="matrix(1,0,0,-1,19.714844,201.84)"
         id="text214"
         style="-inkscape-font-specification:CMU Serif Medium;font-family:CMU Serif;font-weight:500;font-style:normal;font-stretch:normal;font-variant:normal"><tspan
           style="fill:#000000;fill-opacity:1;fill-rule:nonzero;stroke:none;font-family:CMU Serif;font-variant:normal;font-weight:500;font-size:10;writing-mode:lr;-inkscape-font-specification:CMU Serif Medium;font-style:normal;font-stretch:normal"
           x="0 6.36 9.53 15.89"
           y="0"
           sodipodi:role="line"
           id="tspan216">0.88</tspan></text>
<g
         id="g218"
         transform="matrix(1,0,0,-1,0,384)"><path
           d="m 47.602,172.078 6,0 m 409.519,0 -6,0 0.008,0"
           style="fill:none;stroke:#000000;stroke-opacity:1;stroke-width:0.8;stroke-linecap:butt;stroke-linejoin:miter;stroke-miterlimit:4;stroke-dasharray:none"
           id="path220" /></g><g
         id="g226"
         transform="matrix(1,0,0,-1,0,384)"><path
           d="m 47.602,236 0,-6 m 0,-57.922 0,6 0.007,0"
           style="fill:none;stroke:#000000;stroke-opacity:1;stroke-width:0.8;stroke-linecap:butt;stroke-linejoin:miter;stroke-miterlimit:4;stroke-dasharray:none"
           id="path228" /></g><text
         transform="matrix(1,0,0,-1,44.416406,133.04)"
         id="text230"
         style="-inkscape-font-specification:CMU Serif Medium;font-family:CMU Serif;font-weight:500;font-style:normal;font-stretch:normal;font-variant:normal"><tspan
           style="fill:#000000;fill-opacity:1;fill-rule:nonzero;stroke:none;font-family:CMU Serif;font-variant:normal;font-weight:500;font-size:10;writing-mode:lr;-inkscape-font-specification:CMU Serif Medium;font-style:normal;font-stretch:normal"
           x="0"
           y="0"
           id="tspan232">0</tspan></text>
<g
         id="g234"
         transform="matrix(1,0,0,-1,0,384)"><path
           d="m 130.719,236 0,-6 m 0,-57.922 0,6 0.008,0"
           style="fill:none;stroke:#000000;stroke-opacity:1;stroke-width:0.8;stroke-linecap:butt;stroke-linejoin:miter;stroke-miterlimit:4;stroke-dasharray:none"
           id="path236" /></g><text
         transform="matrix(1,0,0,-1,124.35281,133.04)"
         id="text238"
         style="-inkscape-font-specification:CMU Serif Medium;font-family:CMU Serif;font-weight:500;font-style:normal;font-stretch:normal;font-variant:normal"><tspan
           style="fill:#000000;fill-opacity:1;fill-rule:nonzero;stroke:none;font-family:CMU Serif;font-variant:normal;font-weight:500;font-size:10;writing-mode:lr;-inkscape-font-specification:CMU Serif Medium;font-style:normal;font-stretch:normal"
           x="0 6.36"
           y="0"
           sodipodi:role="line"
           id="tspan240">10</tspan></text>
<g
         id="g242"
         transform="matrix(1,0,0,-1,0,384)"><path
           d="m 213.84,236 0,-6 m 0,-57.922 0,6 0.008,0"
           style="fill:none;stroke:#000000;stroke-opacity:1;stroke-width:0.8;stroke-linecap:butt;stroke-linejoin:miter;stroke-miterlimit:4;stroke-dasharray:none"
           id="path244" /></g><text
         transform="matrix(1,0,0,-1,207.47281,133.04)"
         id="text246"
         style="-inkscape-font-specification:CMU Serif Medium;font-family:CMU Serif;font-weight:500;font-style:normal;font-stretch:normal;font-variant:normal"><tspan
           style="fill:#000000;fill-opacity:1;fill-rule:nonzero;stroke:none;font-family:CMU Serif;font-variant:normal;font-weight:500;font-size:10;writing-mode:lr;-inkscape-font-specification:CMU Serif Medium;font-style:normal;font-stretch:normal"
           x="0 6.36"
           y="0"
           sodipodi:role="line"
           id="tspan248">20</tspan></text>
<g
         id="g250"
         transform="matrix(1,0,0,-1,0,384)"><path
           d="m 296.879,236 0,-6 m 0,-57.922 0,6 0.008,0"
           style="fill:none;stroke:#000000;stroke-opacity:1;stroke-width:0.8;stroke-linecap:butt;stroke-linejoin:miter;stroke-miterlimit:4;stroke-dasharray:none"
           id="path252" /></g><text
         transform="matrix(1,0,0,-1,290.51281,133.04)"
         id="text254"
         style="-inkscape-font-specification:CMU Serif Medium;font-family:CMU Serif;font-weight:500;font-style:normal;font-stretch:normal;font-variant:normal"><tspan
           style="fill:#000000;fill-opacity:1;fill-rule:nonzero;stroke:none;font-family:CMU Serif;font-variant:normal;font-weight:500;font-size:10;writing-mode:lr;-inkscape-font-specification:CMU Serif Medium;font-style:normal;font-stretch:normal"
           x="0 6.36"
           y="0"
           sodipodi:role="line"
           id="tspan256">30</tspan></text>
<g
         id="g258"
         transform="matrix(1,0,0,-1,0,384)"><path
           d="m 380,236 0,-6 m 0,-57.922 0,6 0.008,0"
           style="fill:none;stroke:#000000;stroke-opacity:1;stroke-width:0.8;stroke-linecap:butt;stroke-linejoin:miter;stroke-miterlimit:4;stroke-dasharray:none"
           id="path260" /></g><text
         transform="matrix(1,0,0,-1,373.63281,133.04)"
         id="text262"
         style="-inkscape-font-specification:CMU Serif Medium;font-family:CMU Serif;font-weight:500;font-style:normal;font-stretch:normal;font-variant:normal"><tspan
           style="fill:#000000;fill-opacity:1;fill-rule:nonzero;stroke:none;font-family:CMU Serif;font-variant:normal;font-weight:500;font-size:10;writing-mode:lr;-inkscape-font-specification:CMU Serif Medium;font-style:normal;font-stretch:normal"
           x="0 6.36"
           y="0"
           sodipodi:role="line"
           id="tspan264">40</tspan></text>
<g
         id="g266"
         transform="matrix(1,0,0,-1,0,384)"><path
           d="m 463.121,236 0,-6 m 0,-57.922 0,6 0.008,0"
           style="fill:none;stroke:#000000;stroke-opacity:1;stroke-width:0.8;stroke-linecap:butt;stroke-linejoin:miter;stroke-miterlimit:4;stroke-dasharray:none"
           id="path268" /></g><text
         transform="matrix(1,0,0,-1,456.75281,133.04)"
         id="text270"
         style="-inkscape-font-specification:CMU Serif Medium;font-family:CMU Serif;font-weight:500;font-style:normal;font-stretch:normal;font-variant:normal"><tspan
           style="fill:#000000;fill-opacity:1;fill-rule:nonzero;stroke:none;font-family:CMU Serif;font-variant:normal;font-weight:500;font-size:10;writing-mode:lr;-inkscape-font-specification:CMU Serif Medium;font-style:normal;font-stretch:normal"
           x="0 6.36"
           y="0"
           sodipodi:role="line"
           id="tspan272">50</tspan></text>
<g
         id="g274"
         transform="matrix(1,0,0,-1,0,384)"><path
           d="m 47.602,172.078 0,63.922 415.519,0 0,-63.922 -415.519,0 z m 0,0 0.007,0"
           style="fill:none;stroke:#000000;stroke-opacity:1;stroke-width:0.8;stroke-linecap:butt;stroke-linejoin:miter;stroke-miterlimit:4;stroke-dasharray:none"
           id="path276" /></g><text
         transform="matrix(1,0,0,-1,240.43813,226.96)"
         id="text278"
         style="-inkscape-font-specification:CMU Serif Medium;font-family:CMU Serif;font-weight:500;font-style:normal;font-stretch:normal;font-variant:normal"><tspan
           style="fill:#000000;fill-opacity:1;fill-rule:nonzero;stroke:none;font-family:CMU Serif;font-variant:normal;font-weight:500;font-size:10;writing-mode:lr;-inkscape-font-specification:CMU Serif Medium;font-style:normal;font-stretch:normal"
           x="0 6.5 12.65 18.14 24.26 27.03"
           y="0"
           sodipodi:role="line"
           id="tspan280">Recall</tspan></text>
<g
         id="g282"
         transform="matrix(1,0,0,-1,0,384)"><path
           d="m 47.602,229.441 20.796,-48.8 20.723,0 41.598,-0.719 83.121,-7.762 108,0 141.281,2.801 0.008,0"
           style="fill:none;stroke:#ff0000;stroke-opacity:1;stroke-width:0.8;stroke-linecap:butt;stroke-linejoin:miter;stroke-miterlimit:4;stroke-dasharray:none"
           id="path284" /></g><g
         id="g286"
         transform="matrix(1,0,0,-1,0,384)"><path
           d="m 47.602,172.078 0,63.922 415.519,0 0,-63.922 -415.519,0 z m 0,0 0.007,0"
           style="fill:none;stroke:#000000;stroke-opacity:1;stroke-width:0.8;stroke-linecap:butt;stroke-linejoin:miter;stroke-miterlimit:4;stroke-dasharray:none"
           id="path288" /></g><g
         id="g290"
         transform="matrix(1,0,0,-1,0,384)"><path
           d="m 47.602,360 6,0 m 409.519,0 -6,0 0.008,0"
           style="fill:none;stroke:#000000;stroke-opacity:1;stroke-width:0.8;stroke-linecap:butt;stroke-linejoin:miter;stroke-miterlimit:4;stroke-dasharray:none"
           id="path292" /></g><g
         id="g298"
         transform="matrix(1,0,0,-1,0,384)"><path
           d="m 47.602,352.879 6,0 m 409.519,0 -6,0 0.008,0"
           style="fill:none;stroke:#000000;stroke-opacity:1;stroke-width:0.8;stroke-linecap:butt;stroke-linejoin:miter;stroke-miterlimit:4;stroke-dasharray:none"
           id="path300" /></g><text
         transform="matrix(1,0,0,-1,13.347656,28.16)"
         id="text302"
         style="-inkscape-font-specification:CMU Serif Medium;font-family:CMU Serif;font-weight:500;font-style:normal;font-stretch:normal;font-variant:normal"><tspan
           style="fill:#000000;fill-opacity:1;fill-rule:nonzero;stroke:none;font-family:CMU Serif;font-variant:normal;font-weight:500;font-size:10;writing-mode:lr;-inkscape-font-specification:CMU Serif Medium;font-style:normal;font-stretch:normal"
           x="0 6.36 9.53 15.89 22.25"
           y="0"
           sodipodi:role="line"
           id="tspan304">0.962</tspan></text>
<g
         id="g314"
         transform="matrix(1,0,0,-1,0,384)"><path
           d="m 47.602,338.641 6,0 m 409.519,0 -6,0 0.008,0"
           style="fill:none;stroke:#000000;stroke-opacity:1;stroke-width:0.8;stroke-linecap:butt;stroke-linejoin:miter;stroke-miterlimit:4;stroke-dasharray:none"
           id="path316" /></g><text
         transform="matrix(1,0,0,-1,13.347656,42.4)"
         id="text318"
         style="-inkscape-font-specification:CMU Serif Medium;font-family:CMU Serif;font-weight:500;font-style:normal;font-stretch:normal;font-variant:normal"><tspan
           style="fill:#000000;fill-opacity:1;fill-rule:nonzero;stroke:none;font-family:CMU Serif;font-variant:normal;font-weight:500;font-size:10;writing-mode:lr;-inkscape-font-specification:CMU Serif Medium;font-style:normal;font-stretch:normal"
           x="0 6.36 9.53 15.89 22.25"
           y="0"
           sodipodi:role="line"
           id="tspan320">0.964</tspan></text>
<g
         id="g330"
         transform="matrix(1,0,0,-1,0,384)"><path
           d="m 47.602,324.48 6,0 m 409.519,0 -6,0 0.008,0"
           style="fill:none;stroke:#000000;stroke-opacity:1;stroke-width:0.8;stroke-linecap:butt;stroke-linejoin:miter;stroke-miterlimit:4;stroke-dasharray:none"
           id="path332" /></g><text
         transform="matrix(1,0,0,-1,13.347656,56.56)"
         id="text334"
         style="-inkscape-font-specification:CMU Serif Medium;font-family:CMU Serif;font-weight:500;font-style:normal;font-stretch:normal;font-variant:normal"><tspan
           style="fill:#000000;fill-opacity:1;fill-rule:nonzero;stroke:none;font-family:CMU Serif;font-variant:normal;font-weight:500;font-size:10;writing-mode:lr;-inkscape-font-specification:CMU Serif Medium;font-style:normal;font-stretch:normal"
           x="0 6.36 9.53 15.89 22.25"
           y="0"
           sodipodi:role="line"
           id="tspan336">0.966</tspan></text>
<g
         id="g346"
         transform="matrix(1,0,0,-1,0,384)"><path
           d="m 47.602,310.238 6,0 m 409.519,0 -6,0 0.008,0"
           style="fill:none;stroke:#000000;stroke-opacity:1;stroke-width:0.8;stroke-linecap:butt;stroke-linejoin:miter;stroke-miterlimit:4;stroke-dasharray:none"
           id="path348" /></g><text
         transform="matrix(1,0,0,-1,13.347656,70.8)"
         id="text350"
         style="-inkscape-font-specification:CMU Serif Medium;font-family:CMU Serif;font-weight:500;font-style:normal;font-stretch:normal;font-variant:normal"><tspan
           style="fill:#000000;fill-opacity:1;fill-rule:nonzero;stroke:none;font-family:CMU Serif;font-variant:normal;font-weight:500;font-size:10;writing-mode:lr;-inkscape-font-specification:CMU Serif Medium;font-style:normal;font-stretch:normal"
           x="0 6.36 9.53 15.89 22.25"
           y="0"
           sodipodi:role="line"
           id="tspan352">0.968</tspan></text>
<g
         id="g362"
         transform="matrix(1,0,0,-1,0,384)"><path
           d="m 47.602,296 6,0 m 409.519,0 -6,0 0.008,0"
           style="fill:none;stroke:#000000;stroke-opacity:1;stroke-width:0.8;stroke-linecap:butt;stroke-linejoin:miter;stroke-miterlimit:4;stroke-dasharray:none"
           id="path364" /></g><text
         transform="matrix(1,0,0,-1,19.714844,85.04)"
         id="text366"
         style="-inkscape-font-specification:CMU Serif Medium;font-family:CMU Serif;font-weight:500;font-style:normal;font-stretch:normal;font-variant:normal"><tspan
           style="fill:#000000;fill-opacity:1;fill-rule:nonzero;stroke:none;font-family:CMU Serif;font-variant:normal;font-weight:500;font-size:10;writing-mode:lr;-inkscape-font-specification:CMU Serif Medium;font-style:normal;font-stretch:normal"
           x="0 6.36 9.53 15.89"
           y="0"
           sodipodi:role="line"
           id="tspan368">0.97</tspan></text>
<g
         id="g370"
         transform="matrix(1,0,0,-1,0,384)"><path
           d="m 47.602,360 0,-6 m 0,-58 0,6 0.007,0"
           style="fill:none;stroke:#000000;stroke-opacity:1;stroke-width:0.8;stroke-linecap:butt;stroke-linejoin:miter;stroke-miterlimit:4;stroke-dasharray:none"
           id="path372" /></g><text
         transform="matrix(1,0,0,-1,44.416406,9.04)"
         id="text374"
         style="-inkscape-font-specification:CMU Serif Medium;font-family:CMU Serif;font-weight:500;font-style:normal;font-stretch:normal;font-variant:normal"><tspan
           style="fill:#000000;fill-opacity:1;fill-rule:nonzero;stroke:none;font-family:CMU Serif;font-variant:normal;font-weight:500;font-size:10;writing-mode:lr;-inkscape-font-specification:CMU Serif Medium;font-style:normal;font-stretch:normal"
           x="0"
           y="0"
           id="tspan376">0</tspan></text>
<g
         id="g378"
         transform="matrix(1,0,0,-1,0,384)"><path
           d="m 130.719,360 0,-6 m 0,-58 0,6 0.008,0"
           style="fill:none;stroke:#000000;stroke-opacity:1;stroke-width:0.8;stroke-linecap:butt;stroke-linejoin:miter;stroke-miterlimit:4;stroke-dasharray:none"
           id="path380" /></g><text
         transform="matrix(1,0,0,-1,124.35281,9.04)"
         id="text382"
         style="-inkscape-font-specification:CMU Serif Medium;font-family:CMU Serif;font-weight:500;font-style:normal;font-stretch:normal;font-variant:normal"><tspan
           style="fill:#000000;fill-opacity:1;fill-rule:nonzero;stroke:none;font-family:CMU Serif;font-variant:normal;font-weight:500;font-size:10;writing-mode:lr;-inkscape-font-specification:CMU Serif Medium;font-style:normal;font-stretch:normal"
           x="0 6.36"
           y="0"
           sodipodi:role="line"
           id="tspan384">10</tspan></text>
<g
         id="g386"
         transform="matrix(1,0,0,-1,0,384)"><path
           d="m 213.84,360 0,-6 m 0,-58 0,6 0.008,0"
           style="fill:none;stroke:#000000;stroke-opacity:1;stroke-width:0.8;stroke-linecap:butt;stroke-linejoin:miter;stroke-miterlimit:4;stroke-dasharray:none"
           id="path388" /></g><text
         transform="matrix(1,0,0,-1,207.47281,9.04)"
         id="text390"
         style="-inkscape-font-specification:CMU Serif Medium;font-family:CMU Serif;font-weight:500;font-style:normal;font-stretch:normal;font-variant:normal"><tspan
           style="fill:#000000;fill-opacity:1;fill-rule:nonzero;stroke:none;font-family:CMU Serif;font-variant:normal;font-weight:500;font-size:10;writing-mode:lr;-inkscape-font-specification:CMU Serif Medium;font-style:normal;font-stretch:normal"
           x="0 6.36"
           y="0"
           sodipodi:role="line"
           id="tspan392">20</tspan></text>
<g
         id="g394"
         transform="matrix(1,0,0,-1,0,384)"><path
           d="m 296.879,360 0,-6 m 0,-58 0,6 0.008,0"
           style="fill:none;stroke:#000000;stroke-opacity:1;stroke-width:0.8;stroke-linecap:butt;stroke-linejoin:miter;stroke-miterlimit:4;stroke-dasharray:none"
           id="path396" /></g><text
         transform="matrix(1,0,0,-1,290.51281,9.04)"
         id="text398"
         style="-inkscape-font-specification:CMU Serif Medium;font-family:CMU Serif;font-weight:500;font-style:normal;font-stretch:normal;font-variant:normal"><tspan
           style="fill:#000000;fill-opacity:1;fill-rule:nonzero;stroke:none;font-family:CMU Serif;font-variant:normal;font-weight:500;font-size:10;writing-mode:lr;-inkscape-font-specification:CMU Serif Medium;font-style:normal;font-stretch:normal"
           x="0 6.36"
           y="0"
           sodipodi:role="line"
           id="tspan400">30</tspan></text>
<g
         id="g402"
         transform="matrix(1,0,0,-1,0,384)"><path
           d="m 380,360 0,-6 m 0,-58 0,6 0.008,0"
           style="fill:none;stroke:#000000;stroke-opacity:1;stroke-width:0.8;stroke-linecap:butt;stroke-linejoin:miter;stroke-miterlimit:4;stroke-dasharray:none"
           id="path404" /></g><text
         transform="matrix(1,0,0,-1,373.63281,9.04)"
         id="text406"
         style="-inkscape-font-specification:CMU Serif Medium;font-family:CMU Serif;font-weight:500;font-style:normal;font-stretch:normal;font-variant:normal"><tspan
           style="fill:#000000;fill-opacity:1;fill-rule:nonzero;stroke:none;font-family:CMU Serif;font-variant:normal;font-weight:500;font-size:10;writing-mode:lr;-inkscape-font-specification:CMU Serif Medium;font-style:normal;font-stretch:normal"
           x="0 6.36"
           y="0"
           sodipodi:role="line"
           id="tspan408">40</tspan></text>
<g
         id="g410"
         transform="matrix(1,0,0,-1,0,384)"><path
           d="m 463.121,360 0,-6 m 0,-58 0,6 0.008,0"
           style="fill:none;stroke:#000000;stroke-opacity:1;stroke-width:0.8;stroke-linecap:butt;stroke-linejoin:miter;stroke-miterlimit:4;stroke-dasharray:none"
           id="path412" /></g><text
         transform="matrix(1,0,0,-1,456.75281,9.04)"
         id="text414"
         style="-inkscape-font-specification:CMU Serif Medium;font-family:CMU Serif;font-weight:500;font-style:normal;font-stretch:normal;font-variant:normal"><tspan
           style="fill:#000000;fill-opacity:1;fill-rule:nonzero;stroke:none;font-family:CMU Serif;font-variant:normal;font-weight:500;font-size:10;writing-mode:lr;-inkscape-font-specification:CMU Serif Medium;font-style:normal;font-stretch:normal"
           x="0 6.36"
           y="0"
           sodipodi:role="line"
           id="tspan416">50</tspan></text>
<g
         id="g418"
         transform="matrix(1,0,0,-1,0,384)"><path
           d="m 47.602,296 0,64 415.519,0 0,-64 -415.519,0 z m 0,0 0.007,0"
           style="fill:none;stroke:#000000;stroke-opacity:1;stroke-width:0.8;stroke-linecap:butt;stroke-linejoin:miter;stroke-miterlimit:4;stroke-dasharray:none"
           id="path420" /></g><text
         transform="matrix(1,0,0,-1,244.52016,103.04)"
         id="text422"
         style="-inkscape-font-specification:CMU Serif Medium;font-family:CMU Serif;font-weight:500;font-style:normal;font-stretch:normal;font-variant:normal"><tspan
           style="fill:#000000;fill-opacity:1;fill-rule:nonzero;stroke:none;font-family:CMU Serif;font-variant:normal;font-weight:500;font-size:10;writing-mode:lr;-inkscape-font-specification:CMU Serif Medium;font-style:normal;font-stretch:normal"
           x="0 5.75 12.11 15.28"
           y="0"
           sodipodi:role="line"
           id="tspan424">F0.5</tspan></text>
<g
         id="g426"
         transform="matrix(1,0,0,-1,0,384)"><path
           d="m 47.602,356.801 20.796,-59.199 20.723,0 41.598,-0.883 83.121,5.441 108,12 141.281,3.52 0.008,0"
           style="fill:none;stroke:#ff0000;stroke-opacity:1;stroke-width:0.8;stroke-linecap:butt;stroke-linejoin:miter;stroke-miterlimit:4;stroke-dasharray:none"
           id="path428" /></g><g
         id="g430"
         transform="matrix(1,0,0,-1,0,384)"><path
           d="m 47.602,296 0,64 415.519,0 0,-64 -415.519,0 z m 0,0 0.007,0"
           style="fill:none;stroke:#000000;stroke-opacity:1;stroke-width:0.8;stroke-linecap:butt;stroke-linejoin:miter;stroke-miterlimit:4;stroke-dasharray:none"
           id="path432" /></g></g></g></svg>