<?xml version="1.0" encoding="UTF-8" standalone="no"?>
<!-- Created with Inkscape (http://www.inkscape.org/) -->

<svg
   xmlns:dc="http://purl.org/dc/elements/1.1/"
   xmlns:cc="http://creativecommons.org/ns#"
   xmlns:rdf="http://www.w3.org/1999/02/22-rdf-syntax-ns#"
   xmlns:svg="http://www.w3.org/2000/svg"
   xmlns="http://www.w3.org/2000/svg"
   xmlns:sodipodi="http://sodipodi.sourceforge.net/DTD/sodipodi-0.dtd"
   xmlns:inkscape="http://www.inkscape.org/namespaces/inkscape"
   width="445.44547"
   height="284.39285"
   id="svg10782"
   version="1.1"
   inkscape:version="0.48.4 r9939"
   sodipodi:docname="updating_2.pdf">
  <defs
     id="defs10784" />
  <sodipodi:namedview
     id="base"
     pagecolor="#ffffff"
     bordercolor="#666666"
     borderopacity="1.0"
     inkscape:pageopacity="0.0"
     inkscape:pageshadow="2"
     inkscape:zoom="0.35"
     inkscape:cx="222.72273"
     inkscape:cy="142.19643"
     inkscape:document-units="px"
     inkscape:current-layer="layer1"
     showgrid="false"
     fit-margin-top="0"
     fit-margin-left="0"
     fit-margin-right="0"
     fit-margin-bottom="0"
     inkscape:window-width="1920"
     inkscape:window-height="1014"
     inkscape:window-x="0"
     inkscape:window-y="27"
     inkscape:window-maximized="1" />
  <metadata
     id="metadata10787">
    <rdf:RDF>
      <cc:Work
         rdf:about="">
        <dc:format>image/svg+xml</dc:format>
        <dc:type
           rdf:resource="http://purl.org/dc/dcmitype/StillImage" />
        <dc:title></dc:title>
      </cc:Work>
    </rdf:RDF>
  </metadata>
  <g
     inkscape:label="Layer 1"
     inkscape:groupmode="layer"
     id="layer1"
     transform="translate(-152.27727,-390.16576)">
    <g
       transform="translate(-702.05706,-44.398907)"
       style="display:inline"
       id="g10439">
      <g
         id="g4920"
         transform="translate(637.14838,115.29858)"
         style="display:inline">
        <rect
           style="fill:none"
           x="217.56583"
           y="319.26608"
           width="355.49106"
           height="284.39285"
           id="rect9" />
        <path
           id="path31"
           d="m 260.16551,565.02891 5.33237,0 m 292.74689,0 -5.33236,0 h 0.006"
           inkscape:connector-curvature="0"
           style="color:#000000;fill:none;stroke:#000000;stroke-width:1;stroke-linecap:butt;stroke-linejoin:miter" />
        <g
           id="g33"
           style="font-size:15px;text-anchor:end;color:#000000;fill:#000000;stroke:none;font-family:Arial"
           transform="matrix(0.59248512,0,0,0.59248512,255.24788,567.69509)">
          <text
             id="text35">0</text>
        </g>
        <path
           id="path37"
           d="m 260.16551,525.6879 5.33237,0 m 292.74689,0 -5.33236,0 h 0.006"
           inkscape:connector-curvature="0"
           style="color:#000000;fill:none;stroke:#000000;stroke-width:1;stroke-linecap:butt;stroke-linejoin:miter" />
        <g
           id="g39"
           style="font-size:15px;text-anchor:end;color:#000000;fill:#000000;stroke:none;font-family:Arial"
           transform="matrix(0.59248512,0,0,0.59248512,255.24788,528.35408)">
          <text
             id="text41">100</text>
        </g>
        <path
           id="path43"
           d="m 260.16551,486.40613 5.33237,0 m 292.74689,0 -5.33236,0 h 0.006"
           inkscape:connector-curvature="0"
           style="color:#000000;fill:none;stroke:#000000;stroke-width:1;stroke-linecap:butt;stroke-linejoin:miter" />
        <g
           id="g45"
           style="font-size:15px;text-anchor:end;color:#000000;fill:#000000;stroke:none;font-family:Arial"
           transform="matrix(0.59248512,0,0,0.59248512,255.24788,489.07232)">
          <text
             id="text47">200</text>
        </g>
        <path
           id="path49"
           d="m 260.16551,447.06512 5.33237,0 m 292.74689,0 -5.33236,0 h 0.006"
           inkscape:connector-curvature="0"
           style="color:#000000;fill:none;stroke:#000000;stroke-width:1;stroke-linecap:butt;stroke-linejoin:miter" />
        <g
           id="g51"
           style="font-size:15px;text-anchor:end;color:#000000;fill:#000000;stroke:none;font-family:Arial"
           transform="matrix(0.59248512,0,0,0.59248512,255.24788,449.7313)">
          <text
             id="text53">300</text>
        </g>
        <path
           id="path55"
           d="m 260.16551,407.78336 5.33237,0 m 292.74689,0 -5.33236,0 h 0.006"
           inkscape:connector-curvature="0"
           style="color:#000000;fill:none;stroke:#000000;stroke-width:1;stroke-linecap:butt;stroke-linejoin:miter" />
        <g
           id="g57"
           style="font-size:15px;text-anchor:end;color:#000000;fill:#000000;stroke:none;font-family:Arial"
           transform="matrix(0.59248512,0,0,0.59248512,255.24788,410.44954)">
          <text
             id="text59">400</text>
        </g>
        <path
           id="path61"
           d="m 260.16551,368.44234 5.33237,0 m 292.74689,0 -5.33236,0 h 0.006"
           inkscape:connector-curvature="0"
           style="color:#000000;fill:none;stroke:#000000;stroke-width:1;stroke-linecap:butt;stroke-linejoin:miter" />
        <g
           id="g63"
           style="font-size:15px;text-anchor:end;color:#000000;fill:#000000;stroke:none;font-family:Arial"
           transform="matrix(0.59248512,0,0,0.59248512,255.24788,371.10853)">
          <text
             id="text65">500</text>
        </g>
        <path
           id="path67"
           d="m 260.16551,329.16058 5.33237,0 m 292.74689,0 -5.33236,0 h 0.006"
           inkscape:connector-curvature="0"
           style="color:#000000;fill:none;stroke:#000000;stroke-width:1;stroke-linecap:butt;stroke-linejoin:miter" />
        <g
           id="g69"
           style="font-size:15px;text-anchor:end;color:#000000;fill:#000000;stroke:none;font-family:Arial"
           transform="matrix(0.59248512,0,0,0.59248512,255.24788,331.82676)">
          <text
             id="text71">600</text>
        </g>
        <path
           id="path73"
           d="m 280.01376,565.02891 0,5.33236 m 0,-241.20069 0,-5.33236 h 0.006"
           inkscape:connector-curvature="0"
           style="color:#000000;fill:none;stroke:#000000;stroke-width:1;stroke-linecap:butt;stroke-linejoin:miter" />
        <g
           id="g75"
           style="font-size:15px;text-anchor:end;color:#000000;fill:#000000;stroke:none;font-family:Arial"
           transform="matrix(0,-0.59248512,0.59248512,0,282.67994,575.2789)">
          <text
             id="text77">0</text>
        </g>
        <path
           id="path79"
           d="m 299.92126,565.02891 0,5.33236 m 0,-241.20069 0,-5.33236 h 0.006"
           inkscape:connector-curvature="0"
           style="color:#000000;fill:none;stroke:#000000;stroke-width:1;stroke-linecap:butt;stroke-linejoin:miter" />
        <g
           id="g81"
           style="font-size:15px;text-anchor:end;color:#000000;fill:#000000;stroke:none;font-family:Arial"
           transform="matrix(0,-0.59248512,0.59248512,0,302.58744,575.2789)">
          <text
             id="text83">1</text>
        </g>
        <path
           id="path85"
           d="m 319.76951,565.02891 0,5.33236 m 0,-241.20069 0,-5.33236 h 0.006"
           inkscape:connector-curvature="0"
           style="color:#000000;fill:none;stroke:#000000;stroke-width:1;stroke-linecap:butt;stroke-linejoin:miter" />
        <g
           id="g87"
           style="font-size:15px;text-anchor:end;color:#000000;fill:#000000;stroke:none;font-family:Arial"
           transform="matrix(0,-0.59248512,0.59248512,0,322.4357,575.2789)">
          <text
             id="text89">2</text>
        </g>
        <path
           id="path91"
           d="m 339.67701,565.02891 0,5.33236 m 0,-241.20069 0,-5.33236 h 0.006"
           inkscape:connector-curvature="0"
           style="color:#000000;fill:none;stroke:#000000;stroke-width:1;stroke-linecap:butt;stroke-linejoin:miter" />
        <g
           id="g93"
           style="font-size:15px;text-anchor:end;color:#000000;fill:#000000;stroke:none;font-family:Arial"
           transform="matrix(0,-0.59248512,0.59248512,0,342.3432,575.2789)">
          <text
             id="text95">3</text>
        </g>
        <path
           id="path97"
           d="m 359.52526,565.02891 0,5.33236 m 0,-241.20069 0,-5.33236 h 0.006"
           inkscape:connector-curvature="0"
           style="color:#000000;fill:none;stroke:#000000;stroke-width:1;stroke-linecap:butt;stroke-linejoin:miter" />
        <g
           id="g99"
           style="font-size:15px;text-anchor:end;color:#000000;fill:#000000;stroke:none;font-family:Arial"
           transform="matrix(0,-0.59248512,0.59248512,0,362.19145,575.2789)">
          <text
             id="text101">4</text>
        </g>
        <path
           id="path103"
           d="m 379.37352,565.02891 0,5.33236 m 0,-241.20069 0,-5.33236 h 0.006"
           inkscape:connector-curvature="0"
           style="color:#000000;fill:none;stroke:#000000;stroke-width:1;stroke-linecap:butt;stroke-linejoin:miter" />
        <g
           id="g105"
           style="font-size:15px;text-anchor:end;color:#000000;fill:#000000;stroke:none;font-family:Arial"
           transform="matrix(0,-0.59248512,0.59248512,0,382.0397,575.2789)">
          <text
             id="text107">5</text>
        </g>
        <path
           id="path109"
           d="m 399.28102,565.02891 0,5.33236 m 0,-241.20069 0,-5.33236 h 0.006"
           inkscape:connector-curvature="0"
           style="color:#000000;fill:none;stroke:#000000;stroke-width:1;stroke-linecap:butt;stroke-linejoin:miter" />
        <g
           id="g111"
           style="font-size:15px;text-anchor:end;color:#000000;fill:#000000;stroke:none;font-family:Arial"
           transform="matrix(0,-0.59248512,0.59248512,0,401.9472,575.2789)">
          <text
             id="text113">6</text>
        </g>
        <path
           id="path115"
           d="m 419.12927,565.02891 0,5.33236 m 0,-241.20069 0,-5.33236 h 0.006"
           inkscape:connector-curvature="0"
           style="color:#000000;fill:none;stroke:#000000;stroke-width:1;stroke-linecap:butt;stroke-linejoin:miter" />
        <g
           id="g117"
           style="font-size:15px;text-anchor:end;color:#000000;fill:#000000;stroke:none;font-family:Arial"
           transform="matrix(0,-0.59248512,0.59248512,0,421.79545,575.2789)">
          <text
             id="text119">7</text>
        </g>
        <path
           id="path121"
           d="m 439.03677,565.02891 0,5.33236 m 0,-241.20069 0,-5.33236 h 0.006"
           inkscape:connector-curvature="0"
           style="color:#000000;fill:none;stroke:#000000;stroke-width:1;stroke-linecap:butt;stroke-linejoin:miter" />
        <g
           id="g123"
           style="font-size:15px;text-anchor:end;color:#000000;fill:#000000;stroke:none;font-family:Arial"
           transform="matrix(0,-0.59248512,0.59248512,0,441.70295,575.2789)">
          <text
             id="text125">8</text>
        </g>
        <path
           id="path127"
           d="m 458.88502,565.02891 0,5.33236 m 0,-241.20069 0,-5.33236 h 0.006"
           inkscape:connector-curvature="0"
           style="color:#000000;fill:none;stroke:#000000;stroke-width:1;stroke-linecap:butt;stroke-linejoin:miter" />
        <g
           id="g129"
           style="font-size:15px;text-anchor:end;color:#000000;fill:#000000;stroke:none;font-family:Arial"
           transform="matrix(0,-0.59248512,0.59248512,0,461.5512,575.2789)">
          <text
             id="text131">9</text>
        </g>
        <path
           id="path133"
           d="m 478.73327,565.02891 0,5.33236 m 0,-241.20069 0,-5.33236 h 0.006"
           inkscape:connector-curvature="0"
           style="color:#000000;fill:none;stroke:#000000;stroke-width:1;stroke-linecap:butt;stroke-linejoin:miter" />
        <g
           id="g135"
           style="font-size:15px;text-anchor:end;color:#000000;fill:#000000;stroke:none;font-family:Arial"
           transform="matrix(0,-0.59248512,0.59248512,0,481.39945,575.2789)">
          <text
             id="text137">10</text>
        </g>
        <path
           id="path139"
           d="m 498.64077,565.02891 0,5.33236 m 0,-241.20069 0,-5.33236 h 0.006"
           inkscape:connector-curvature="0"
           style="color:#000000;fill:none;stroke:#000000;stroke-width:1;stroke-linecap:butt;stroke-linejoin:miter" />
        <g
           id="g141"
           style="font-size:15px;text-anchor:end;color:#000000;fill:#000000;stroke:none;font-family:Arial"
           transform="matrix(0,-0.59248512,0.59248512,0,501.30695,575.2789)">
          <text
             id="text143">11</text>
        </g>
        <path
           id="path145"
           d="m 518.48902,565.02891 0,5.33236 m 0,-241.20069 0,-5.33236 h 0.006"
           inkscape:connector-curvature="0"
           style="color:#000000;fill:none;stroke:#000000;stroke-width:1;stroke-linecap:butt;stroke-linejoin:miter" />
        <g
           id="g147"
           style="font-size:15px;text-anchor:end;color:#000000;fill:#000000;stroke:none;font-family:Arial"
           transform="matrix(0,-0.59248512,0.59248512,0,521.15521,575.2789)">
          <text
             id="text149">12</text>
        </g>
        <path
           id="path151"
           d="m 538.39652,565.02891 0,5.33236 m 0,-241.20069 0,-5.33236 h 0.006"
           inkscape:connector-curvature="0"
           style="color:#000000;fill:none;stroke:#000000;stroke-width:1;stroke-linecap:butt;stroke-linejoin:miter" />
        <g
           id="g153"
           style="font-size:15px;text-anchor:end;color:#000000;fill:#000000;stroke:none;font-family:Arial"
           transform="matrix(0,-0.59248512,0.59248512,0,541.06271,575.2789)">
          <text
             id="text155">13</text>
        </g>
        <path
           id="path157"
           d="m 260.16551,329.16058 0,235.86833 298.07926,0 0,-235.86833 -298.07926,0 z m 0,0 h 0.006"
           inkscape:connector-curvature="0"
           style="color:#000000;fill:none;stroke:#000000;stroke-width:1;stroke-linecap:butt;stroke-linejoin:miter" />
        <g
           id="g159"
           style="font-size:15px;text-anchor:middle;color:#000000;fill:#000000;stroke:none;font-family:Arial"
           transform="matrix(0,-0.59248512,0.59248512,0,227.99357,447.12437)">
          <text
             style="font-style:normal;font-variant:normal;font-weight:normal;font-stretch:normal;font-family:Roboto Slab;-inkscape-font-specification:Roboto Slab"
             id="text161">
            <tspan
               id="tspan5857"
               style="font-size:23.62928581px"># of triples</tspan>
          </text>
        </g>
        <g
           id="g163"
           style="font-size:15px;text-anchor:middle;color:#000000;fill:#000000;stroke:none;font-family:Arial"
           transform="matrix(0.59248512,0,0,0.59248512,409.17552,598.85981)">
          <text
             id="text165">
            <tspan
               id="tspan5859"
               style="font-size:23.62928581px;font-style:normal;font-variant:normal;font-weight:normal;font-stretch:normal;font-family:Roboto Slab;-inkscape-font-specification:Roboto Slab">days</tspan>
          </text>
        </g>
        <g
           transform="matrix(0.59248512,0,0,0.59248512,217.56583,319.26608)"
           id="g170"
           style="color:#ff0000;fill:#006400;fill-opacity:1;stroke:currentColor;stroke-width:1.68780613;stroke-linecap:butt;stroke-linejoin:miter">
          <g
             id="g172"
             style="fill:#006400;fill-opacity:1;stroke:none">
            <polygon
               id="polygon174"
               points="109.7,333.1 101.2,333.1 101.2,414.8 109.7,414.8 "
               style="fill:#006400;fill-opacity:1" />
          </g>
          <path
             id="path176"
             d="m 101.2,414.8 0,-81.6 8.4,0 0,81.6 -8.4,0 z m 0,0 h 0.01"
             inkscape:connector-curvature="0"
             style="fill:#006400;fill-opacity:1;stroke:none" />
          <g
             id="g178"
             style="fill:#006400;fill-opacity:1;stroke:none">
            <polygon
               id="polygon180"
               points="143.3,313.8 134.8,313.8 134.8,414.8 143.3,414.8 "
               style="fill:#006400;fill-opacity:1" />
          </g>
          <path
             id="path182"
             d="m 134.8,414.8 0,-100.9 8.4,0 0,100.9 -8.4,0 z m 0,0 h 0.01"
             inkscape:connector-curvature="0"
             style="fill:#006400;fill-opacity:1;stroke:none" />
          <g
             id="g184"
             style="fill:#006400;fill-opacity:1;stroke:none">
            <polygon
               id="polygon186"
               points="176.8,184.5 168.3,184.5 168.3,414.8 176.8,414.8 "
               style="fill:#006400;fill-opacity:1" />
          </g>
          <path
             id="path188"
             d="m 168.3,414.8 0,-230.2 8.4,0 0,230.2 -8.4,0 z m 0,0 h 0.01"
             inkscape:connector-curvature="0"
             style="fill:#006400;fill-opacity:1;stroke:none" />
          <g
             id="g190"
             style="fill:#006400;fill-opacity:1;stroke:none">
            <polygon
               id="polygon192"
               points="210.4,353.7 201.9,353.7 201.9,414.8 210.4,414.8 "
               style="fill:#006400;fill-opacity:1" />
          </g>
          <path
             id="path194"
             d="m 201.9,414.8 0,-61 8.4,0 0,61 -8.4,0 z m 0,0 h 0.01"
             inkscape:connector-curvature="0"
             style="fill:#006400;fill-opacity:1;stroke:none" />
          <g
             id="g196"
             style="fill:#006400;fill-opacity:1;stroke:none">
            <polygon
               id="polygon198"
               points="243.9,382.9 235.4,382.9 235.4,414.8 243.9,414.8 "
               style="fill:#006400;fill-opacity:1" />
          </g>
          <path
             id="path200"
             d="m 235.4,414.8 0,-31.8 8.4,0 0,31.8 -8.4,0 z m 0,0 h 0.01"
             inkscape:connector-curvature="0"
             style="fill:#006400;fill-opacity:1;stroke:none" />
          <g
             id="g202"
             style="fill:#006400;fill-opacity:1;stroke:none">
            <polygon
               id="polygon204"
               points="277.4,73.7 268.9,73.7 268.9,414.8 277.4,414.8 "
               style="fill:#006400;fill-opacity:1;stroke:none" />
          </g>
          <path
             id="path206"
             d="m 268.9,414.8 0,-341 8.4,0 0,341 -8.4,0 z m 0,0 h 0.01"
             inkscape:connector-curvature="0"
             style="fill:#006400;fill-opacity:1;stroke:none" />
          <g
             id="g208"
             style="fill:#006400;fill-opacity:1;stroke:none">
            <polygon
               id="polygon210"
               points="311,223.6 302.5,223.6 302.5,414.8 311,414.8 "
               style="fill:#006400;fill-opacity:1;stroke:none" />
          </g>
          <path
             id="path212"
             d="m 302.5,414.8 0,-191.1 8.4,0 0,191.1 -8.4,0 z m 0,0 h 0.01"
             inkscape:connector-curvature="0"
             style="fill:#006400;fill-opacity:1;stroke:none" />
          <g
             id="g214"
             style="fill:#006400;fill-opacity:1;stroke:none">
            <polygon
               id="polygon216"
               points="344.5,337.7 336,337.7 336,414.8 344.5,414.8 "
               style="fill:#006400;fill-opacity:1;stroke:none" />
          </g>
          <path
             id="path218"
             d="m 336,414.8 0,-77 8.4,0 0,77 -8.4,0 z m 0,0 h 0.01"
             inkscape:connector-curvature="0"
             style="fill:#006400;fill-opacity:1;stroke:none" />
          <g
             id="g220"
             style="fill:#006400;fill-opacity:1;stroke:none">
            <polygon
               id="polygon222"
               points="378.1,236.9 369.6,236.9 369.6,414.8 378.1,414.8 "
               style="fill:#006400;fill-opacity:1" />
          </g>
          <path
             id="path224"
             d="m 369.6,414.8 0,-177.8 8.4,0 0,177.8 -8.4,0 z m 0,0 h 0.01"
             inkscape:connector-curvature="0"
             style="fill:#006400;fill-opacity:1;stroke:none" />
          <g
             id="g226"
             style="fill:#006400;fill-opacity:1;stroke:none">
            <polygon
               id="polygon228"
               points="411.6,345.7 403.1,345.7 403.1,414.8 411.6,414.8 "
               style="fill:#006400;fill-opacity:1;stroke:none" />
          </g>
          <path
             id="path230"
             d="m 403.1,414.8 0,-69 8.4,0 0,69 -8.4,0 z m 0,0 h 0.01"
             inkscape:connector-curvature="0"
             style="fill:#006400;fill-opacity:1;stroke:none" />
          <g
             id="g232"
             style="fill:#006400;fill-opacity:1;stroke:none">
            <polygon
               id="polygon234"
               points="445.1,381.5 436.6,381.5 436.6,414.8 445.1,414.8 "
               style="fill:#006400;fill-opacity:1;stroke:none" />
          </g>
          <path
             id="path236"
             d="m 436.6,414.8 0,-33.2 8.4,0 0,33.2 -8.4,0 z m 0,0 h 0.01"
             inkscape:connector-curvature="0"
             style="fill:#006400;fill-opacity:1;stroke:none" />
          <g
             id="g238"
             style="fill:#006400;fill-opacity:1;stroke:none">
            <polygon
               id="polygon240"
               points="478.7,320.5 470.2,320.5 470.2,414.8 478.7,414.8 "
               style="fill:#006400;fill-opacity:1;stroke:none" />
          </g>
          <path
             id="path242"
             d="m 470.2,414.8 0,-94.2 8.4,0 0,94.2 -8.4,0 z m 0,0 h 0.01"
             inkscape:connector-curvature="0"
             style="fill:#006400;fill-opacity:1;stroke:none" />
          <g
             id="g244"
             style="fill:#006400;fill-opacity:1;stroke:none">
            <polygon
               id="polygon246"
               points="512.2,398.1 503.7,398.1 503.7,414.8 512.2,414.8 "
               style="fill:#006400;fill-opacity:1;stroke:none" />
          </g>
          <path
             id="path248"
             d="m 503.7,414.8 0,-16.6 8.4,0 0,16.6 -8.4,0 z m 0,0 h 0.01"
             inkscape:connector-curvature="0"
             style="fill:#006400;fill-opacity:1;stroke:none" />
          <g
             id="g250"
             style="fill:#006400;fill-opacity:1;stroke:none">
            <polygon
               id="polygon252"
               points="545.8,337.7 537.3,337.7 537.3,414.8 545.8,414.8 "
               style="fill:#006400;fill-opacity:1;stroke:none" />
          </g>
          <path
             id="path254"
             d="m 537.3,414.8 0,-77 8.4,0 0,77 -8.4,0 z m 0,0 h 0.01"
             inkscape:connector-curvature="0"
             style="fill:#006400;fill-opacity:1;stroke:none" />
        </g>
        <g
           transform="matrix(0.59248512,0,0,0.59248512,217.56583,319.26608)"
           id="g259"
           style="color:#008000;fill:#b1063a;fill-opacity:1;stroke:none">
          <g
             id="g261"
             style="fill:#b1063a;fill-opacity:1;stroke:none">
            <polygon
               id="polygon263"
               points="118.1,408.7 109.6,408.7 109.6,414.8 118.1,414.8 "
               style="fill:#b1063a;fill-opacity:1;stroke:none" />
          </g>
          <path
             id="path265"
             d="m 109.6,414.8 0,-6 8.4,0 0,6 -8.4,0 z m 0,0 h 0.01"
             inkscape:connector-curvature="0"
             style="fill:#b1063a;fill-opacity:1;stroke:none" />
          <g
             id="g267"
             style="fill:#b1063a;fill-opacity:1;stroke:none">
            <polygon
               id="polygon269"
               points="151.7,408.7 143.2,408.7 143.2,414.8 151.7,414.8 "
               style="fill:#b1063a;fill-opacity:1;stroke:none" />
          </g>
          <path
             id="path271"
             d="m 143.2,414.8 0,-6 8.4,0 0,6 -8.4,0 z m 0,0 h 0.01"
             inkscape:connector-curvature="0"
             style="fill:#b1063a;fill-opacity:1;stroke:none" />
          <g
             id="g273"
             style="fill:#b1063a;fill-opacity:1;stroke:none">
            <polygon
               id="polygon275"
               points="185.2,321.8 176.7,321.8 176.7,414.8 185.2,414.8 "
               style="fill:#b1063a;fill-opacity:1;stroke:none" />
          </g>
          <path
             id="path277"
             d="m 176.7,414.8 0,-92.9 8.4,0 0,92.9 -8.4,0 z m 0,0 h 0.01"
             inkscape:connector-curvature="0"
             style="fill:#b1063a;fill-opacity:1;stroke:none" />
          <g
             id="g279"
             style="fill:#b1063a;fill-opacity:1;stroke:none">
            <polygon
               id="polygon281"
               points="218.7,412 210.3,412 210.3,414.8 218.7,414.8 "
               style="fill:#b1063a;fill-opacity:1;stroke:none" />
          </g>
          <path
             id="path283"
             d="m 210.3,414.8 0,-2.7 8.3,0 0,2.7 -8.3,0 z m 0,0 h 0.01"
             inkscape:connector-curvature="0"
             style="fill:#b1063a;fill-opacity:1;stroke:none" />
          <g
             id="g285"
             style="fill:#b1063a;fill-opacity:1;stroke:none">
            <polygon
               id="polygon287"
               points="252.3,413.4 243.8,413.4 243.8,414.8 252.3,414.8 "
               style="fill:#b1063a;fill-opacity:1;stroke:none" />
          </g>
          <path
             id="path289"
             d="m 243.8,414.8 0,-1.3 8.4,0 0,1.3 -8.4,0 z m 0,0 h 0.01"
             inkscape:connector-curvature="0"
             style="fill:#b1063a;fill-opacity:1;stroke:none" />
          <g
             id="g291"
             style="fill:#b1063a;fill-opacity:1;stroke:none">
            <polygon
               id="polygon293"
               points="285.8,383.5 277.3,383.5 277.3,414.8 285.8,414.8 "
               style="fill:#b1063a;fill-opacity:1;stroke:none" />
          </g>
          <path
             id="path295"
             d="m 277.3,414.8 0,-31.2 8.4,0 0,31.2 -8.4,0 z m 0,0 h 0.01"
             inkscape:connector-curvature="0"
             style="fill:#b1063a;fill-opacity:1;stroke:none" />
          <g
             id="g297"
             style="fill:#b1063a;fill-opacity:1;stroke:none">
            <polygon
               id="polygon299"
               points="319.4,396.8 310.9,396.8 310.9,414.8 319.4,414.8 "
               style="fill:#b1063a;fill-opacity:1;stroke:none" />
          </g>
          <path
             id="path301"
             d="m 310.9,414.8 0,-17.9 8.4,0 0,17.9 -8.4,0 z m 0,0 h 0.01"
             inkscape:connector-curvature="0"
             style="fill:#b1063a;fill-opacity:1;stroke:none" />
          <g
             id="g303"
             style="fill:#b1063a;fill-opacity:1;stroke:none">
            <polygon
               id="polygon305"
               points="352.9,366.9 344.4,366.9 344.4,414.8 352.9,414.8 "
               style="fill:#b1063a;fill-opacity:1;stroke:none" />
          </g>
          <path
             id="path307"
             d="m 344.4,414.8 0,-47.8 8.4,0 0,47.8 -8.4,0 z m 0,0 h 0.01"
             inkscape:connector-curvature="0"
             style="fill:#b1063a;fill-opacity:1;stroke:none" />
          <g
             id="g309"
             style="fill:#b1063a;fill-opacity:1;stroke:none">
            <polygon
               id="polygon311"
               points="386.4,400.1 378,400.1 378,414.8 386.4,414.8 "
               style="fill:#b1063a;fill-opacity:1;stroke:none" />
          </g>
          <path
             id="path313"
             d="m 378,414.8 0,-14.6 8.3,0 0,14.6 -8.3,0 z m 0,0 h 0.01"
             inkscape:connector-curvature="0"
             style="fill:#b1063a;fill-opacity:1;stroke:none" />
          <g
             id="g315"
             style="fill:#b1063a;fill-opacity:1;stroke:none">
            <polygon
               id="polygon317"
               points="420,398.1 411.5,398.1 411.5,414.8 420,414.8 "
               style="fill:#b1063a;fill-opacity:1;stroke:none" />
          </g>
          <path
             id="path319"
             d="m 411.5,414.8 0,-16.6 8.4,0 0,16.6 -8.4,0 z m 0,0 h 0.01"
             inkscape:connector-curvature="0"
             style="fill:#b1063a;fill-opacity:1;stroke:none" />
          <g
             id="g321"
             style="fill:#b1063a;fill-opacity:1;stroke:none">
            <polygon
               id="polygon323"
               points="453.5,413.4 445,413.4 445,414.8 453.5,414.8 "
               style="fill:#b1063a;fill-opacity:1;stroke:none" />
          </g>
          <path
             id="path325"
             d="m 445,414.8 0,-1.3 8.4,0 0,1.3 -8.4,0 z m 0,0 h 0.01"
             inkscape:connector-curvature="0"
             style="fill:#b1063a;fill-opacity:1;stroke:none" />
          <g
             id="g327"
             style="fill:#b1063a;fill-opacity:1;stroke:none">
            <polygon
               id="polygon329"
               points="487.1,409.4 478.6,409.4 478.6,414.8 487.1,414.8 "
               style="fill:#b1063a;fill-opacity:1;stroke:none" />
          </g>
          <path
             id="path331"
             d="m 478.6,414.8 0,-5.3 8.4,0 0,5.3 -8.4,0 z m 0,0 h 0.01"
             inkscape:connector-curvature="0"
             style="fill:#b1063a;fill-opacity:1;stroke:none" />
          <g
             id="g333"
             style="fill:#b1063a;fill-opacity:1;stroke:none">
            <polygon
               id="polygon335"
               points="520.6,414 512.1,414 512.1,414.8 520.6,414.8 "
               style="fill:#b1063a;fill-opacity:1;stroke:none" />
          </g>
          <path
             id="path337"
             d="m 512.1,414.8 0,-0.7 8.4,0 0,0.7 -8.4,0 z m 0,0 h 0.01"
             inkscape:connector-curvature="0"
             style="fill:#b1063a;fill-opacity:1;stroke:none" />
          <g
             id="g339"
             style="fill:#b1063a;fill-opacity:1;stroke:none">
            <polygon
               id="polygon341"
               points="554.1,352.3 545.7,352.3 545.7,414.8 554.1,414.8 "
               style="fill:#b1063a;fill-opacity:1;stroke:none" />
          </g>
          <path
             id="path343"
             d="m 545.7,414.8 0,-62.4 8.3,0 0,62.4 -8.3,0 z m 0,0 h 0.01"
             inkscape:connector-curvature="0"
             style="fill:#b1063a;fill-opacity:1;stroke:none" />
        </g>
        <path
           id="path347"
           d="m 260.16551,329.16058 0,235.86833 298.07926,0 0,-235.86833 -298.07926,0 z m 0,0 h 0.006"
           inkscape:connector-curvature="0"
           style="color:#000000;fill:none;stroke:#000000;stroke-width:1;stroke-linecap:butt;stroke-linejoin:miter" />
      </g>
      <text
         sodipodi:linespacing="125%"
         id="text4214"
         y="493.01242"
         x="1238.5378"
         style="font-size:22px;font-style:normal;font-variant:normal;font-weight:normal;font-stretch:normal;line-height:125%;letter-spacing:0px;word-spacing:0px;color:#000000;fill:#000000;fill-opacity:1;stroke:none;font-family:Roboto Slab;-inkscape-font-specification:Roboto Slab"
         xml:space="preserve"><tspan
           style="font-size:14px"
           y="493.01242"
           x="1238.5378"
           id="tspan4216"
           sodipodi:role="line">New</tspan></text>
      <text
         sodipodi:linespacing="125%"
         id="text4218"
         y="509.65326"
         x="1238.6118"
         style="font-size:22px;font-style:normal;font-variant:normal;font-weight:normal;font-stretch:normal;line-height:125%;letter-spacing:0px;word-spacing:0px;color:#000000;fill:#000000;fill-opacity:1;stroke:none;font-family:Roboto Slab;-inkscape-font-specification:Roboto Slab"
         xml:space="preserve"><tspan
           style="font-size:14px"
           y="509.65326"
           x="1238.6118"
           id="tspan4220"
           sodipodi:role="line">Removed</tspan></text>
      <rect
         style="fill:#b1063a;fill-opacity:1;fill-rule:nonzero;stroke:none;display:inline"
         id="rect4194-5"
         width="17.422073"
         height="8.4332991"
         x="1211.0125"
         y="483.89099"
         rx="7.4999914"
         ry="0" />
      <rect
         style="fill:#006400;fill-opacity:1;fill-rule:nonzero;stroke:none;display:inline"
         id="rect4194-5-2"
         width="17.422073"
         height="8.4332991"
         x="1211.0125"
         y="500.17636"
         rx="7.4999914"
         ry="0" />
    </g>
  </g>
</svg>
