<?xml version="1.0" encoding="UTF-8" standalone="no"?>
<!-- Created with Inkscape (http://www.inkscape.org/) -->

<svg
   xmlns:dc="http://purl.org/dc/elements/1.1/"
   xmlns:cc="http://creativecommons.org/ns#"
   xmlns:rdf="http://www.w3.org/1999/02/22-rdf-syntax-ns#"
   xmlns:svg="http://www.w3.org/2000/svg"
   xmlns="http://www.w3.org/2000/svg"
   xmlns:sodipodi="http://sodipodi.sourceforge.net/DTD/sodipodi-0.dtd"
   xmlns:inkscape="http://www.inkscape.org/namespaces/inkscape"
   width="445.44547"
   height="284.39285"
   id="svg10782"
   version="1.1"
   inkscape:version="0.48.4 r9939"
   sodipodi:docname="updating_2.pdf">
  <defs
     id="defs10784" />
  <sodipodi:namedview
     id="base"
     pagecolor="#ffffff"
     bordercolor="#666666"
     borderopacity="1.0"
     inkscape:pageopacity="0.0"
     inkscape:pageshadow="2"
     inkscape:zoom="2"
     inkscape:cx="300.05949"
     inkscape:cy="186.37331"
     inkscape:document-units="px"
     inkscape:current-layer="layer1"
     showgrid="false"
     fit-margin-top="0"
     fit-margin-left="0"
     fit-margin-right="0"
     fit-margin-bottom="0"
     inkscape:window-width="1920"
     inkscape:window-height="1014"
     inkscape:window-x="0"
     inkscape:window-y="27"
     inkscape:window-maximized="1" />
  <metadata
     id="metadata10787">
    <rdf:RDF>
      <cc:Work
         rdf:about="">
        <dc:format>image/svg+xml</dc:format>
        <dc:type
           rdf:resource="http://purl.org/dc/dcmitype/StillImage" />
        <dc:title></dc:title>
      </cc:Work>
    </rdf:RDF>
  </metadata>
  <g
     inkscape:label="Layer 1"
     inkscape:groupmode="layer"
     id="layer1"
     transform="translate(-152.27727,-390.16576)">
    <rect
       style="fill:none"
       x="152.65715"
       y="390.16574"
       width="355.49106"
       height="284.39285"
       id="rect9" />
    <path
       id="path31"
       d="m 195.25683,635.92858 5.33237,0 m 292.74689,0 -5.33236,0 h 0.006"
       inkscape:connector-curvature="0"
       style="color:#000000;fill:none;stroke:#000000;stroke-width:1;stroke-linecap:butt;stroke-linejoin:miter" />
    <text
       style="font-size:8.88727665px;text-anchor:end;color:#000000;fill:#000000;stroke:none;font-family:CMU Serif;-inkscape-font-specification:CMU Serif Medium;font-weight:500;font-style:normal;font-stretch:normal;font-variant:normal;text-align:end;writing-mode:lr;line-height:125%"
       id="text35"
       x="190.3392"
       y="638.59479"
       sodipodi:linespacing="125%">0</text>
    <path
       id="path37"
       d="m 195.25683,596.58757 5.33237,0 m 292.74689,0 -5.33236,0 h 0.006"
       inkscape:connector-curvature="0"
       style="color:#000000;fill:none;stroke:#000000;stroke-width:1;stroke-linecap:butt;stroke-linejoin:miter" />
    <text
       style="font-size:8.88727665px;text-anchor:end;color:#000000;fill:#000000;stroke:none;font-family:CMU Serif;-inkscape-font-specification:CMU Serif Medium;font-weight:500;font-style:normal;font-stretch:normal;font-variant:normal;text-align:end;writing-mode:lr;line-height:125%"
       id="text41"
       x="190.3392"
       y="599.25372"
       sodipodi:linespacing="125%">100</text>
    <path
       id="path43"
       d="m 195.25683,557.3058 5.33237,0 m 292.74689,0 -5.33236,0 h 0.006"
       inkscape:connector-curvature="0"
       style="color:#000000;fill:none;stroke:#000000;stroke-width:1;stroke-linecap:butt;stroke-linejoin:miter" />
    <text
       style="font-size:8.88727665px;text-anchor:end;color:#000000;fill:#000000;stroke:none;font-family:CMU Serif;-inkscape-font-specification:CMU Serif Medium;font-weight:500;font-style:normal;font-stretch:normal;font-variant:normal;text-align:end;writing-mode:lr;line-height:125%"
       id="text47"
       x="190.3392"
       y="559.97198"
       sodipodi:linespacing="125%">200</text>
    <path
       id="path49"
       d="m 195.25683,517.96479 5.33237,0 m 292.74689,0 -5.33236,0 h 0.006"
       inkscape:connector-curvature="0"
       style="color:#000000;fill:none;stroke:#000000;stroke-width:1;stroke-linecap:butt;stroke-linejoin:miter" />
    <text
       style="font-size:8.88727665px;text-anchor:end;color:#000000;fill:#000000;stroke:none;font-family:CMU Serif;-inkscape-font-specification:CMU Serif Medium;font-weight:500;font-style:normal;font-stretch:normal;font-variant:normal;text-align:end;writing-mode:lr;line-height:125%"
       id="text53"
       x="190.3392"
       y="520.63098"
       sodipodi:linespacing="125%">300</text>
    <path
       id="path55"
       d="m 195.25683,478.68303 5.33237,0 m 292.74689,0 -5.33236,0 h 0.006"
       inkscape:connector-curvature="0"
       style="color:#000000;fill:none;stroke:#000000;stroke-width:1;stroke-linecap:butt;stroke-linejoin:miter" />
    <text
       style="font-size:8.88727665px;text-anchor:end;color:#000000;fill:#000000;stroke:none;font-family:CMU Serif;-inkscape-font-specification:CMU Serif Medium;font-weight:500;font-style:normal;font-stretch:normal;font-variant:normal;text-align:end;writing-mode:lr;line-height:125%"
       id="text59"
       x="190.3392"
       y="481.34921"
       sodipodi:linespacing="125%">400</text>
    <path
       id="path61"
       d="m 195.25683,439.34201 5.33237,0 m 292.74689,0 -5.33236,0 h 0.006"
       inkscape:connector-curvature="0"
       style="color:#000000;fill:none;stroke:#000000;stroke-width:1;stroke-linecap:butt;stroke-linejoin:miter" />
    <text
       style="font-size:8.88727665px;text-anchor:end;color:#000000;fill:#000000;stroke:none;font-family:CMU Serif;-inkscape-font-specification:CMU Serif Medium;font-weight:500;font-style:normal;font-stretch:normal;font-variant:normal;text-align:end;writing-mode:lr;line-height:125%"
       id="text65"
       x="190.3392"
       y="442.00821"
       sodipodi:linespacing="125%">500</text>
    <path
       id="path67"
       d="m 195.25683,400.06025 5.33237,0 m 292.74689,0 -5.33236,0 h 0.006"
       inkscape:connector-curvature="0"
       style="color:#000000;fill:none;stroke:#000000;stroke-width:1;stroke-linecap:butt;stroke-linejoin:miter" />
    <text
       style="font-size:8.88727665px;text-anchor:end;color:#000000;fill:#000000;stroke:none;font-family:CMU Serif;-inkscape-font-specification:CMU Serif Medium;font-weight:500;font-style:normal;font-stretch:normal;font-variant:normal;text-align:end;writing-mode:lr;line-height:125%"
       id="text71"
       x="190.3392"
       y="402.72644"
       sodipodi:linespacing="125%">600</text>
    <path
       id="path73"
       d="m 215.10508,635.92858 0,5.33236 m 0,-241.20069 0,-5.33236 h 0.006"
       inkscape:connector-curvature="0"
       style="color:#000000;fill:none;stroke:#000000;stroke-width:1;stroke-linecap:butt;stroke-linejoin:miter" />
    <text
       style="font-size:8.88727665px;text-anchor:end;color:#000000;fill:#000000;stroke:none;font-family:CMU Serif;-inkscape-font-specification:CMU Serif Medium;font-weight:500;font-style:normal;font-stretch:normal;font-variant:normal;text-align:end;writing-mode:lr;line-height:125%"
       id="text77"
       transform="matrix(0,-1,1,0,0,0)"
       x="-646.17859"
       y="217.77126"
       sodipodi:linespacing="125%">0</text>
    <path
       id="path79"
       d="m 235.01258,635.92858 0,5.33236 m 0,-241.20069 0,-5.33236 h 0.006"
       inkscape:connector-curvature="0"
       style="color:#000000;fill:none;stroke:#000000;stroke-width:1;stroke-linecap:butt;stroke-linejoin:miter" />
    <text
       style="font-size:8.88727665px;text-anchor:end;color:#000000;fill:#000000;stroke:none;font-family:CMU Serif;-inkscape-font-specification:CMU Serif Medium;font-weight:500;font-style:normal;font-stretch:normal;font-variant:normal;text-align:end;writing-mode:lr;line-height:125%"
       id="text83"
       transform="matrix(0,-1,1,0,0,0)"
       x="-646.17859"
       y="237.67876"
       sodipodi:linespacing="125%">1</text>
    <path
       id="path85"
       d="m 254.86083,635.92858 0,5.33236 m 0,-241.20069 0,-5.33236 h 0.006"
       inkscape:connector-curvature="0"
       style="color:#000000;fill:none;stroke:#000000;stroke-width:1;stroke-linecap:butt;stroke-linejoin:miter" />
    <text
       style="font-size:8.88727665px;text-anchor:end;color:#000000;fill:#000000;stroke:none;font-family:CMU Serif;-inkscape-font-specification:CMU Serif Medium;font-weight:500;font-style:normal;font-stretch:normal;font-variant:normal;text-align:end;writing-mode:lr;line-height:125%"
       id="text89"
       transform="matrix(0,-1,1,0,0,0)"
       x="-646.17859"
       y="257.52701"
       sodipodi:linespacing="125%">2</text>
    <path
       id="path91"
       d="m 274.76833,635.92858 0,5.33236 m 0,-241.20069 0,-5.33236 h 0.006"
       inkscape:connector-curvature="0"
       style="color:#000000;fill:none;stroke:#000000;stroke-width:1;stroke-linecap:butt;stroke-linejoin:miter" />
    <text
       style="font-size:8.88727665px;text-anchor:end;color:#000000;fill:#000000;stroke:none;font-family:CMU Serif;-inkscape-font-specification:CMU Serif Medium;font-weight:500;font-style:normal;font-stretch:normal;font-variant:normal;text-align:end;writing-mode:lr;line-height:125%"
       id="text95"
       transform="matrix(0,-1,1,0,0,0)"
       x="-646.17859"
       y="277.43451"
       sodipodi:linespacing="125%">3</text>
    <path
       id="path97"
       d="m 294.61658,635.92858 0,5.33236 m 0,-241.20069 0,-5.33236 h 0.006"
       inkscape:connector-curvature="0"
       style="color:#000000;fill:none;stroke:#000000;stroke-width:1;stroke-linecap:butt;stroke-linejoin:miter" />
    <text
       style="font-size:8.88727665px;text-anchor:end;color:#000000;fill:#000000;stroke:none;font-family:CMU Serif;-inkscape-font-specification:CMU Serif Medium;font-weight:500;font-style:normal;font-stretch:normal;font-variant:normal;text-align:end;writing-mode:lr;line-height:125%"
       id="text101"
       transform="matrix(0,-1,1,0,0,0)"
       x="-646.17859"
       y="297.28278"
       sodipodi:linespacing="125%">4</text>
    <path
       id="path103"
       d="m 314.46484,635.92858 0,5.33236 m 0,-241.20069 0,-5.33236 h 0.006"
       inkscape:connector-curvature="0"
       style="color:#000000;fill:none;stroke:#000000;stroke-width:1;stroke-linecap:butt;stroke-linejoin:miter" />
    <text
       style="font-size:8.88727665px;text-anchor:end;color:#000000;fill:#000000;stroke:none;font-family:CMU Serif;-inkscape-font-specification:CMU Serif Medium;font-weight:500;font-style:normal;font-stretch:normal;font-variant:normal;text-align:end;writing-mode:lr;line-height:125%"
       id="text107"
       transform="matrix(0,-1,1,0,0,0)"
       x="-646.17859"
       y="317.13101"
       sodipodi:linespacing="125%">5</text>
    <path
       id="path109"
       d="m 334.37234,635.92858 0,5.33236 m 0,-241.20069 0,-5.33236 h 0.006"
       inkscape:connector-curvature="0"
       style="color:#000000;fill:none;stroke:#000000;stroke-width:1;stroke-linecap:butt;stroke-linejoin:miter" />
    <text
       style="font-size:8.88727665px;text-anchor:end;color:#000000;fill:#000000;stroke:none;font-family:CMU Serif;-inkscape-font-specification:CMU Serif Medium;font-weight:500;font-style:normal;font-stretch:normal;font-variant:normal;text-align:end;writing-mode:lr;line-height:125%"
       id="text113"
       transform="matrix(0,-1,1,0,0,0)"
       x="-646.17859"
       y="337.03851"
       sodipodi:linespacing="125%">6</text>
    <path
       id="path115"
       d="m 354.22059,635.92858 0,5.33236 m 0,-241.20069 0,-5.33236 h 0.006"
       inkscape:connector-curvature="0"
       style="color:#000000;fill:none;stroke:#000000;stroke-width:1;stroke-linecap:butt;stroke-linejoin:miter" />
    <text
       style="font-size:8.88727665px;text-anchor:end;color:#000000;fill:#000000;stroke:none;font-family:CMU Serif;-inkscape-font-specification:CMU Serif Medium;font-weight:500;font-style:normal;font-stretch:normal;font-variant:normal;text-align:end;writing-mode:lr;line-height:125%"
       id="text119"
       transform="matrix(0,-1,1,0,0,0)"
       x="-646.17859"
       y="356.88678"
       sodipodi:linespacing="125%">7</text>
    <path
       id="path121"
       d="m 374.12809,635.92858 0,5.33236 m 0,-241.20069 0,-5.33236 h 0.006"
       inkscape:connector-curvature="0"
       style="color:#000000;fill:none;stroke:#000000;stroke-width:1;stroke-linecap:butt;stroke-linejoin:miter" />
    <text
       style="font-size:8.88727665px;text-anchor:end;color:#000000;fill:#000000;stroke:none;font-family:CMU Serif;-inkscape-font-specification:CMU Serif Medium;font-weight:500;font-style:normal;font-stretch:normal;font-variant:normal;text-align:end;writing-mode:lr;line-height:125%"
       id="text125"
       transform="matrix(0,-1,1,0,0,0)"
       x="-646.17859"
       y="376.79428"
       sodipodi:linespacing="125%">8</text>
    <path
       id="path127"
       d="m 393.97634,635.92858 0,5.33236 m 0,-241.20069 0,-5.33236 h 0.006"
       inkscape:connector-curvature="0"
       style="color:#000000;fill:none;stroke:#000000;stroke-width:1;stroke-linecap:butt;stroke-linejoin:miter" />
    <text
       style="font-size:8.88727665px;text-anchor:end;color:#000000;fill:#000000;stroke:none;font-family:CMU Serif;-inkscape-font-specification:CMU Serif Medium;font-weight:500;font-style:normal;font-stretch:normal;font-variant:normal;text-align:end;writing-mode:lr;line-height:125%"
       id="text131"
       transform="matrix(0,-1,1,0,0,0)"
       x="-646.17859"
       y="396.64252"
       sodipodi:linespacing="125%">9</text>
    <path
       id="path133"
       d="m 413.82459,635.92858 0,5.33236 m 0,-241.20069 0,-5.33236 h 0.006"
       inkscape:connector-curvature="0"
       style="color:#000000;fill:none;stroke:#000000;stroke-width:1;stroke-linecap:butt;stroke-linejoin:miter" />
    <text
       style="font-size:8.88727665px;text-anchor:end;color:#000000;fill:#000000;stroke:none;font-family:CMU Serif;-inkscape-font-specification:CMU Serif Medium;font-weight:500;font-style:normal;font-stretch:normal;font-variant:normal;text-align:end;writing-mode:lr;line-height:125%"
       id="text137"
       transform="matrix(0,-1,1,0,0,0)"
       x="-646.17859"
       y="416.49078"
       sodipodi:linespacing="125%">10</text>
    <path
       id="path139"
       d="m 433.73209,635.92858 0,5.33236 m 0,-241.20069 0,-5.33236 h 0.006"
       inkscape:connector-curvature="0"
       style="color:#000000;fill:none;stroke:#000000;stroke-width:1;stroke-linecap:butt;stroke-linejoin:miter" />
    <text
       style="font-size:8.88727665px;text-anchor:end;color:#000000;fill:#000000;stroke:none;font-family:CMU Serif;-inkscape-font-specification:CMU Serif Medium;font-weight:500;font-style:normal;font-stretch:normal;font-variant:normal;text-align:end;writing-mode:lr;line-height:125%"
       id="text143"
       transform="matrix(0,-1,1,0,0,0)"
       x="-646.17859"
       y="436.39828"
       sodipodi:linespacing="125%">11</text>
    <path
       id="path145"
       d="m 453.58034,635.92858 0,5.33236 m 0,-241.20069 0,-5.33236 h 0.006"
       inkscape:connector-curvature="0"
       style="color:#000000;fill:none;stroke:#000000;stroke-width:1;stroke-linecap:butt;stroke-linejoin:miter" />
    <text
       style="font-size:8.88727665px;text-anchor:end;color:#000000;fill:#000000;stroke:none;font-family:CMU Serif;-inkscape-font-specification:CMU Serif Medium;font-weight:500;font-style:normal;font-stretch:normal;font-variant:normal;text-align:end;writing-mode:lr;line-height:125%"
       id="text149"
       transform="matrix(0,-1,1,0,0,0)"
       x="-646.17859"
       y="456.24652"
       sodipodi:linespacing="125%">12</text>
    <path
       id="path151"
       d="m 473.48784,635.92858 0,5.33236 m 0,-241.20069 0,-5.33236 h 0.006"
       inkscape:connector-curvature="0"
       style="color:#000000;fill:none;stroke:#000000;stroke-width:1;stroke-linecap:butt;stroke-linejoin:miter" />
    <text
       style="font-size:8.88727665px;text-anchor:end;color:#000000;fill:#000000;stroke:none;font-family:CMU Serif;-inkscape-font-specification:CMU Serif Medium;font-weight:500;font-style:normal;font-stretch:normal;font-variant:normal;text-align:end;writing-mode:lr;line-height:125%"
       id="text155"
       transform="matrix(0,-1,1,0,0,0)"
       x="-646.17859"
       y="476.15402"
       sodipodi:linespacing="125%">13</text>
    <path
       id="path157"
       d="m 195.25683,400.06025 0,235.86833 298.07926,0 0,-235.86833 -298.07926,0 z m 0,0 h 0.006"
       inkscape:connector-curvature="0"
       style="color:#000000;fill:none;stroke:#000000;stroke-width:1;stroke-linecap:butt;stroke-linejoin:miter" />
    <text
       id="text161"
       style="font-size:14px;font-style:normal;font-variant:normal;font-weight:500;font-stretch:normal;text-align:end;line-height:125%;writing-mode:lr-tb;text-anchor:end;color:#000000;fill:#000000;stroke:none;font-family:CMU Serif;-inkscape-font-specification:CMU Serif Medium"
       transform="matrix(0,-1,1,0,0,0)"
       x="-492.77023"
       y="170.15596"
       sodipodi:linespacing="125%">
      <tspan
         style="font-size:14px;font-style:normal;font-variant:normal;font-weight:500;font-stretch:normal;text-align:end;line-height:125%;writing-mode:lr-tb;text-anchor:end;font-family:CMU Serif;-inkscape-font-specification:CMU Serif Medium"
         id="tspan5857"># of triples</tspan>
    </text>
    <text
       style="font-size:14px;font-style:normal;font-variant:normal;font-weight:500;font-stretch:normal;text-align:end;line-height:125%;writing-mode:lr-tb;text-anchor:end;color:#000000;fill:#000000;stroke:none;font-family:CMU Serif;-inkscape-font-specification:CMU Serif Medium"
       id="text165"
       x="347.2973"
       y="665.71887"
       sodipodi:linespacing="125%">
      <tspan
         style="font-size:14px;font-style:normal;font-variant:normal;font-weight:500;font-stretch:normal;text-align:end;line-height:125%;writing-mode:lr-tb;text-anchor:end;font-family:CMU Serif;-inkscape-font-specification:CMU Serif Medium"
         id="tspan5859">days</tspan>
    </text>
    <polygon
       id="polygon174"
       points="109.7,333.1 101.2,333.1 101.2,414.8 109.7,414.8 "
       style="color:#ff0000;fill:#b3b3b3;fill-opacity:1;stroke:none"
       transform="matrix(0.59248512,0,0,0.59248512,152.65715,390.16575)" />
    <polygon
       id="polygon180"
       points="143.3,313.8 134.8,313.8 134.8,414.8 143.3,414.8 "
       style="color:#ff0000;fill:#b3b3b3;fill-opacity:1;stroke:none"
       transform="matrix(0.59248512,0,0,0.59248512,152.65715,390.16575)" />
    <polygon
       id="polygon186"
       points="176.8,184.5 168.3,184.5 168.3,414.8 176.8,414.8 "
       style="color:#ff0000;fill:#b3b3b3;fill-opacity:1;stroke:none"
       transform="matrix(0.59248512,0,0,0.59248512,152.65715,390.16575)" />
    <polygon
       id="polygon192"
       points="210.4,353.7 201.9,353.7 201.9,414.8 210.4,414.8 "
       style="color:#ff0000;fill:#b3b3b3;fill-opacity:1;stroke:none"
       transform="matrix(0.59248512,0,0,0.59248512,152.65715,390.16575)" />
    <polygon
       id="polygon198"
       points="243.9,382.9 235.4,382.9 235.4,414.8 243.9,414.8 "
       style="color:#ff0000;fill:#b3b3b3;fill-opacity:1;stroke:none"
       transform="matrix(0.59248512,0,0,0.59248512,152.65715,390.16575)" />
    <polygon
       id="polygon204"
       points="277.4,73.7 268.9,73.7 268.9,414.8 277.4,414.8 "
       style="color:#ff0000;fill:#b3b3b3;fill-opacity:1;stroke:none"
       transform="matrix(0.59248512,0,0,0.59248512,152.65715,390.16575)" />
    <polygon
       id="polygon210"
       points="311,223.6 302.5,223.6 302.5,414.8 311,414.8 "
       style="color:#ff0000;fill:#b3b3b3;fill-opacity:1;stroke:none"
       transform="matrix(0.59248512,0,0,0.59248512,152.65715,390.16575)" />
    <polygon
       id="polygon216"
       points="344.5,337.7 336,337.7 336,414.8 344.5,414.8 "
       style="color:#ff0000;fill:#b3b3b3;fill-opacity:1;stroke:none"
       transform="matrix(0.59248512,0,0,0.59248512,152.65715,390.16575)" />
    <polygon
       id="polygon222"
       points="378.1,236.9 369.6,236.9 369.6,414.8 378.1,414.8 "
       style="color:#ff0000;fill:#b3b3b3;fill-opacity:1;stroke:none"
       transform="matrix(0.59248512,0,0,0.59248512,152.65715,390.16575)" />
    <polygon
       id="polygon228"
       points="411.6,345.7 403.1,345.7 403.1,414.8 411.6,414.8 "
       style="color:#ff0000;fill:#b3b3b3;fill-opacity:1;stroke:none"
       transform="matrix(0.59248512,0,0,0.59248512,152.65715,390.16575)" />
    <polygon
       id="polygon234"
       points="445.1,381.5 436.6,381.5 436.6,414.8 445.1,414.8 "
       style="color:#ff0000;fill:#b3b3b3;fill-opacity:1;stroke:none"
       transform="matrix(0.59248512,0,0,0.59248512,152.65715,390.16575)" />
    <polygon
       id="polygon240"
       points="478.7,320.5 470.2,320.5 470.2,414.8 478.7,414.8 "
       style="color:#ff0000;fill:#b3b3b3;fill-opacity:1;stroke:none"
       transform="matrix(0.59248512,0,0,0.59248512,152.65715,390.16575)" />
    <polygon
       id="polygon246"
       points="512.2,398.1 503.7,398.1 503.7,414.8 512.2,414.8 "
       style="color:#ff0000;fill:#b3b3b3;fill-opacity:1;stroke:none"
       transform="matrix(0.59248512,0,0,0.59248512,152.65715,390.16575)" />
    <polygon
       id="polygon252"
       points="545.8,337.7 537.3,337.7 537.3,414.8 545.8,414.8 "
       style="color:#ff0000;fill:#b3b3b3;fill-opacity:1;stroke:none"
       transform="matrix(0.59248512,0,0,0.59248512,152.65715,390.16575)" />
    <polygon
       id="polygon263"
       points="118.1,408.7 109.6,408.7 109.6,414.8 118.1,414.8 "
       style="color:#008000;fill:#666666;fill-opacity:1;stroke:none"
       transform="matrix(0.59248512,0,0,0.59248512,152.65715,390.16575)" />
    <polygon
       id="polygon269"
       points="151.7,408.7 143.2,408.7 143.2,414.8 151.7,414.8 "
       style="color:#008000;fill:#666666;fill-opacity:1;stroke:none"
       transform="matrix(0.59248512,0,0,0.59248512,152.65715,390.16575)" />
    <polygon
       id="polygon275"
       points="185.2,321.8 176.7,321.8 176.7,414.8 185.2,414.8 "
       style="color:#008000;fill:#666666;fill-opacity:1;stroke:none"
       transform="matrix(0.59248512,0,0,0.59248512,152.65715,390.16575)" />
    <polygon
       id="polygon281"
       points="218.7,412 210.3,412 210.3,414.8 218.7,414.8 "
       style="color:#008000;fill:#666666;fill-opacity:1;stroke:none"
       transform="matrix(0.59248512,0,0,0.59248512,152.65715,390.16575)" />
    <polygon
       id="polygon287"
       points="252.3,413.4 243.8,413.4 243.8,414.8 252.3,414.8 "
       style="color:#008000;fill:#666666;fill-opacity:1;stroke:none"
       transform="matrix(0.59248512,0,0,0.59248512,152.65715,390.16575)" />
    <polygon
       id="polygon293"
       points="285.8,383.5 277.3,383.5 277.3,414.8 285.8,414.8 "
       style="color:#008000;fill:#666666;fill-opacity:1;stroke:none"
       transform="matrix(0.59248512,0,0,0.59248512,152.65715,390.16575)" />
    <polygon
       id="polygon299"
       points="319.4,396.8 310.9,396.8 310.9,414.8 319.4,414.8 "
       style="color:#008000;fill:#666666;fill-opacity:1;stroke:none"
       transform="matrix(0.59248512,0,0,0.59248512,152.65715,390.16575)" />
    <polygon
       id="polygon305"
       points="352.9,366.9 344.4,366.9 344.4,414.8 352.9,414.8 "
       style="color:#008000;fill:#666666;fill-opacity:1;stroke:none"
       transform="matrix(0.59248512,0,0,0.59248512,152.65715,390.16575)" />
    <polygon
       id="polygon311"
       points="386.4,400.1 378,400.1 378,414.8 386.4,414.8 "
       style="color:#008000;fill:#666666;fill-opacity:1;stroke:none"
       transform="matrix(0.59248512,0,0,0.59248512,152.65715,390.16575)" />
    <polygon
       id="polygon317"
       points="420,398.1 411.5,398.1 411.5,414.8 420,414.8 "
       style="color:#008000;fill:#666666;fill-opacity:1;stroke:none"
       transform="matrix(0.59248512,0,0,0.59248512,152.65715,390.16575)" />
    <polygon
       id="polygon323"
       points="453.5,413.4 445,413.4 445,414.8 453.5,414.8 "
       style="color:#008000;fill:#666666;fill-opacity:1;stroke:none"
       transform="matrix(0.59248512,0,0,0.59248512,152.65715,390.16575)" />
    <polygon
       id="polygon329"
       points="487.1,409.4 478.6,409.4 478.6,414.8 487.1,414.8 "
       style="color:#008000;fill:#666666;fill-opacity:1;stroke:none"
       transform="matrix(0.59248512,0,0,0.59248512,152.65715,390.16575)" />
    <polygon
       id="polygon335"
       points="520.6,414 512.1,414 512.1,414.8 520.6,414.8 "
       style="color:#008000;fill:#b1063a;fill-opacity:1;stroke:none"
       transform="matrix(0.59248512,0,0,0.59248512,152.65715,390.16575)" />
    <path
       style="color:#008000;fill:#b1063a;fill-opacity:1;stroke:none"
       inkscape:connector-curvature="0"
       d="m 456.06878,635.92858 0,-0.41474 4.97687,0 0,0.41474 -4.97687,0 z m 0,0 h 0.006"
       id="path337" />
    <polygon
       id="polygon341"
       points="554.1,352.3 545.7,352.3 545.7,414.8 554.1,414.8 "
       style="color:#008000;fill:#666666;fill-opacity:1;stroke:none"
       transform="matrix(0.59248512,0,0,0.59248512,152.65715,390.16575)" />
    <path
       id="path347"
       d="m 195.25683,400.06025 0,235.86833 298.07926,0 0,-235.86833 -298.07926,0 z m 0,0 h 0.006"
       inkscape:connector-curvature="0"
       style="color:#000000;fill:none;stroke:#000000;stroke-width:1;stroke-linecap:butt;stroke-linejoin:miter" />
    <text
       xml:space="preserve"
       style="font-size:14px;font-style:normal;font-variant:normal;font-weight:500;font-stretch:normal;text-align:start;line-height:125%;letter-spacing:0px;word-spacing:0px;writing-mode:lr-tb;text-anchor:start;color:#000000;fill:#000000;fill-opacity:1;stroke:none;font-family:CMU Serif;-inkscape-font-specification:CMU Serif Medium"
       x="531.42999"
       y="448.10846"
       id="text4214"
       sodipodi:linespacing="125%"><tspan
         sodipodi:role="line"
         id="tspan4216"
         x="531.42999"
         y="448.10846"
         style="font-size:14px;font-style:normal;font-variant:normal;font-weight:500;font-stretch:normal;text-align:start;line-height:125%;writing-mode:lr-tb;text-anchor:start;font-family:CMU Serif;-inkscape-font-specification:CMU Serif Medium">New</tspan></text>
    <text
       xml:space="preserve"
       style="font-size:14px;font-style:normal;font-variant:normal;font-weight:500;font-stretch:normal;text-align:start;line-height:125%;letter-spacing:0px;word-spacing:0px;writing-mode:lr-tb;text-anchor:start;color:#000000;fill:#000000;fill-opacity:1;stroke:none;font-family:CMU Serif;-inkscape-font-specification:CMU Serif Medium"
       x="531.50397"
       y="464.7493"
       id="text4218"
       sodipodi:linespacing="125%"><tspan
         sodipodi:role="line"
         id="tspan4220"
         x="531.50397"
         y="464.7493"
         style="font-size:14px;font-style:normal;font-variant:normal;font-weight:500;font-stretch:normal;text-align:start;line-height:125%;writing-mode:lr-tb;text-anchor:start;font-family:CMU Serif;-inkscape-font-specification:CMU Serif Medium">Removed</tspan></text>
    <rect
       ry="0"
       rx="7.4999914"
       y="439.4921"
       x="508.95538"
       height="8.4332991"
       width="17.422073"
       id="rect4194-5"
       style="fill:#b3b3b3;fill-opacity:1;fill-rule:nonzero;stroke:none;display:inline" />
    <rect
       ry="0"
       rx="7.4999914"
       y="455.77747"
       x="508.95538"
       height="8.4332991"
       width="17.422073"
       id="rect4194-5-2"
       style="fill:#666666;fill-opacity:1;fill-rule:nonzero;stroke:none;display:inline" />
  </g>
</svg>
